<?xml version="1.0" encoding="utf-8"?>
<!-- Generator: Adobe Illustrator 22.1.0, SVG Export Plug-In . SVG Version: 6.00 Build 0)  -->
<svg version="1.1" id="Layer_1" xmlns="http://www.w3.org/2000/svg" xmlns:xlink="http://www.w3.org/1999/xlink" x="0px" y="0px"
	 viewBox="0 0 137.2 137.2" style="enable-background:new 0 0 137.2 137.2;" xml:space="preserve">
<style type="text/css">
	.st0{fill:#FFFFFF;}
</style>
<path class="st0" d="M35.8,65.8c1.6,3.1,3.4,1.4,5.1,4.5c1.2,2.7,3.5,8.4,3.8,8.4c-0.1,0.2,9.7,13.5,10.1,14c1,1.1,6.5,5,6.7,5
	c0.6-0.3,1.4-1.9,2.7-2.7c1.6-1.1,2.7-7.6,2.8-7.7c0.2-1.1-0.5-7.9-0.6-7.9c0.8-1,0.3-2.9,0.1-5.1c-0.2-2.7-0.5-5.4-0.7-8.1
	c0.1-1.5,0.3-3.1,0.1-4.5c-0.2-0.1-0.5-0.2-0.7-0.2c1.4-1.9-0.2-11.2-0.2-13.7c0-2.4-0.7-9.5-0.8-10.6c-0.1-9-2.3-26.3-3-35.2
	c0.1,0,7.3,8.1,5.5,9.9c1.7,2.7,0.6,5.2,1.4,8.1c2.1,7.4,3.3,14.9,5.3,22.3c1.2,4.6-2.9,10,2.7,14c-2,2.1-0.9,3.4-3,5.5
	c1.2,3.1,0.5,8.5,0.5,12c0,2.5,1,4.6,0.5,7.2c0.1,0.1,0.2,0.1,0.3,0.1c0.3-0.3,0.2-0.3,0.5-0.2c-1.2,2.9-0.3,5.9,0.1,8.7
	c0.1,2.8,0.3,5.7,0.4,8.5c0.1,2.2,0,4.4,0.1,6.6c0.4,1.1,4.7,11.9,6.2,10.7c4.8-3.7,26.1-17.9,26.8-17.2c-2.1,3.1-17.8,19.6-19,22.4
	c-1.2,2.1-8,9.7-10.6,12.9c-2.5-0.6-5,2.4-7.5,1.8c-1.3-0.7,1.6-2.8,1.4-4.2c-2.3-17.4-24.5-33.6-29.6-43.9c-2-4.2-6.5-13-8.5-17.3
	L35.8,65.8z"/>
</svg>
