<?xml version="1.0" encoding="utf-8"?>
<!-- Generator: Adobe Illustrator 22.1.0, SVG Export Plug-In . SVG Version: 6.00 Build 0)  -->
<svg version="1.1" id="Layer_1" xmlns="http://www.w3.org/2000/svg" xmlns:xlink="http://www.w3.org/1999/xlink" x="0px" y="0px"
	 viewBox="0 0 100 100" style="enable-background:new 0 0 100 100;" xml:space="preserve">
<path d="M59.1,86.3c0.9-2.9,2.4-10.3,3.2-13.2c0.9-2.4,3-7.2,2.8-7.4c0.2-0.1,4.8-16.6,4.8-17.2c0.1-1.3-2.8-5.2-2.9-5.3
	c-0.6-0.2-3.8-1.5-5.1-1.8c-1.7-0.3-4.4,1.2-4.6,1.2c-0.8,0.6-1.5,2.1-1.4,2.1c-1.1,0.1-2,1.6-3.2,3c-1.5,1.8-3,3.6-4.5,5.4
	c-1,0.9-2.1,1.7-2.8,2.7c0.1,0.2,0.2,0.4,0.3,0.6c-2,0.3-6.7,7-8.3,8.5c-1.4,1.4-5.4,6.2-5.9,7c-5.4,5.5-14.7,17.5-19.7,23.3
	c-0.1-0.1,1.7-8.1,3.9-8.2c0.6-2.7,2.8-3.5,4.1-5.8c3.2-5.8,7-11.1,10.3-16.8c2.1-3.5,7.2-5,6.3-10.8c2.5-0.1,3.2-0.9,5.8-1
	c1.2-2.6,4.9-5.5,7-7.6c1.5-1.5,2.2-3.4,4.1-4.7c0-0.1-0.1-0.1-0.1-0.2c-0.4,0-0.3,0.1-0.4-0.2c2.6-1,3.8-3.4,5.2-5.4
	c1.7-1.8,3.3-3.7,5-5.4c1.3-1.4,2.7-2.7,4-4.1c0.4-0.9,3.2-11.3,1.5-11.5c-5.2-0.7-26.8-5-26.8-5.9C44.9,7,64.6,6.5,67,5.5
	c2.1-0.6,10.8-1,14.3-1.4c1.2,1.9,4.5,1.6,5.7,3.4c0.3,1.2-2.7,0.7-3.4,1.7c-9.2,12-9.2,42.8-12.4,52.1c-1.4,3.8-7.7,19.2-9,23.1
	L59.1,86.3z"/>
</svg>
