<?xml version="1.0" encoding="utf-8"?>
<!-- Generator: Adobe Illustrator 24.3.0, SVG Export Plug-In . SVG Version: 6.00 Build 0)  -->
<svg version="1.1" id="Layer_1" xmlns="http://www.w3.org/2000/svg" xmlns:xlink="http://www.w3.org/1999/xlink" x="0px" y="0px"
	 viewBox="0 0 68.5 39.2" style="enable-background:new 0 0 68.5 39.2;" xml:space="preserve">
<g>
	<path d="M14.4,19c-0.3,0.3-0.6,0.7-1,1.1c-0.4,0.4-0.8,0.8-1.2,1.1c-0.4,0.4-0.9,0.7-1.4,0.9c-0.5,0.2-0.9,0.4-1.4,0.4
		c-0.4,0-0.7-0.1-0.8-0.2c-0.2-0.2-0.2-0.4-0.2-0.8c0-0.2,0.1-0.6,0.3-1.1c0.2-0.5,0.5-1,0.8-1.6c0.3-0.5,0.5-1.1,0.8-1.5
		c0.2-0.5,0.3-0.8,0.3-1c0-0.1-0.1-0.2-0.2-0.2c-0.3,0.1-0.6,0.3-0.9,0.6s-0.7,0.6-1,0.9c-0.3,0.3-0.6,0.6-0.9,0.9
		c-0.3,0.3-0.5,0.5-0.6,0.8c-0.1,0.2-0.3,0.4-0.4,0.7c-0.1,0.3-0.3,0.5-0.4,0.8c-0.1,0.3-0.3,0.5-0.4,0.7c-0.1,0.2-0.2,0.3-0.3,0.3
		s-0.2-0.1-0.3-0.2c-0.1-0.1-0.1-0.2-0.1-0.3c0-0.1,0-0.2,0.1-0.3c0.1-0.1,0.2-0.3,0.3-0.6c0.3-0.4,0.5-0.7,0.7-1.1
		c0.2-0.4,0.4-0.8,0.5-1.1c0.2-0.3,0.3-0.6,0.3-0.9c0.1-0.2,0.1-0.4,0.1-0.4c0-0.2,0-0.2-0.1-0.2c-0.1,0-0.3,0.1-0.6,0.4
		c-0.3,0.3-0.6,0.6-0.9,0.9c-0.3,0.4-0.7,0.7-1,1.1c-0.3,0.4-0.6,0.8-0.8,1.1c-0.3,0.4-0.5,0.8-0.7,1.1c-0.2,0.3-0.4,0.5-0.5,0.5
		c-0.2,0-0.3-0.1-0.3-0.2c0-0.1,0-0.3,0-0.4c0-0.2,0-0.3,0.1-0.4c0.5-0.9,1.1-1.7,1.6-2.6c0.5-0.9,1-1.8,1.6-2.7
		c0.1-0.2,0.2-0.3,0.3-0.3c0.1,0,0.2,0.1,0.3,0.2c0.1,0.1,0.1,0.2,0.1,0.3C6,16,5.8,16.5,5.5,17.1c-0.3,0.6-0.6,1.1-0.9,1.6
		c0.8-0.9,1.5-1.6,2-2.1c0.5-0.5,1-0.7,1.3-0.7c0.2,0,0.3,0.2,0.3,0.5c0,0.2-0.1,0.5-0.3,0.9c-0.2,0.4-0.3,0.7-0.5,1
		c0,0.1,0,0.1,0,0.1s0.1,0,0.1-0.1c0.2-0.3,0.5-0.6,0.8-0.9c0.3-0.3,0.6-0.6,1-0.9c0.3-0.3,0.7-0.5,1.1-0.8c0.3-0.2,0.7-0.4,1-0.6
		c0.3,0,0.5,0.1,0.5,0.4c0,0.1,0,0.1,0,0.2c0,0.1,0,0.1-0.1,0.2c-0.1,0.2-0.3,0.6-0.6,1.1c-0.3,0.5-0.5,1-0.8,1.6
		c-0.3,0.6-0.5,1.1-0.7,1.6c-0.2,0.5-0.3,0.9-0.3,1.2c0,0.4,0.2,0.6,0.6,0.6c0.4,0,0.7-0.1,1.1-0.4c0.4-0.2,0.8-0.5,1.2-0.9
		c0.4-0.3,0.8-0.7,1.1-1.1s0.6-0.7,0.9-1c0.1-0.1,0.2-0.2,0.2-0.1C14.5,18.7,14.5,18.8,14.4,19z"/>
	<path d="M22.8,18c-0.3,0.5-0.7,1-1.2,1.5c-0.5,0.5-0.9,1-1.4,1.5c-0.5,0.4-1,0.8-1.5,1.1c-0.5,0.3-1,0.4-1.5,0.4
		c-0.3,0-0.6-0.1-0.8-0.3s-0.3-0.5-0.3-0.8c0-0.2,0-0.4,0.1-0.6c0-0.2,0.1-0.5,0.3-0.8c-0.1,0.1-0.3,0.3-0.4,0.5s-0.3,0.4-0.5,0.5
		c-0.2,0.2-0.4,0.3-0.6,0.4s-0.5,0.2-0.8,0.2c-0.2,0-0.4-0.1-0.5-0.2c-0.1-0.1-0.2-0.3-0.2-0.6c0-0.2,0-0.4,0.1-0.6
		c0.1-0.2,0.2-0.6,0.4-1c0.2-0.4,0.5-0.9,0.8-1.5s0.8-1.4,1.3-2.3c0.1-0.2,0.2-0.3,0.3-0.3c0.1,0,0.3,0.1,0.4,0.3
		c0.1,0.2,0.2,0.3,0.2,0.3c0,0.1-0.1,0.2-0.2,0.4c-0.3,0.5-0.6,1-0.9,1.4c-0.3,0.5-0.5,0.9-0.7,1.3c-0.2,0.4-0.4,0.8-0.5,1.1
		c-0.1,0.3-0.2,0.6-0.2,0.8c0,0.3,0.1,0.4,0.3,0.4c0.2,0,0.5-0.2,0.8-0.5c0.3-0.3,0.8-0.8,1.2-1.6c0.2-0.3,0.4-0.7,0.6-1
		c0.2-0.3,0.4-0.7,0.6-1c0.2-0.3,0.3-0.6,0.5-0.9c0.2-0.3,0.3-0.5,0.4-0.6c0.1-0.1,0.2-0.2,0.2-0.2c0.1,0,0.2,0.1,0.3,0.3
		s0.2,0.4,0.2,0.6c0,0.2,0,0.3-0.1,0.5c-0.2,0.4-0.5,0.7-0.8,1.1c-0.3,0.4-0.5,0.7-0.8,1.1s-0.4,0.8-0.6,1.2
		c-0.2,0.4-0.2,0.9-0.2,1.4c0,0.4,0.2,0.7,0.6,0.7c0.3,0,0.6-0.1,1-0.3s0.8-0.5,1.3-0.9c0.5-0.4,0.9-0.8,1.4-1.4
		c0.5-0.5,1-1.1,1.4-1.8C22.7,17.8,22.8,17.9,22.8,18z"/>
	<path d="M25.6,16.1c-0.1,0.1-0.1,0.1-0.1,0c-0.1-0.3-0.4-0.4-0.8-0.4c-0.3,0-0.6,0.1-0.8,0.2c-0.3,0.2-0.4,0.4-0.4,0.7
		c0,0.2,0,0.3,0.1,0.5s0.2,0.4,0.4,0.6c0.2,0.2,0.3,0.5,0.4,0.7c0.1,0.2,0.2,0.5,0.2,0.8c0,0.5-0.1,0.9-0.4,1.3s-0.5,0.6-0.9,0.8
		c-0.3,0.2-0.7,0.3-1,0.4c-0.3,0.1-0.6,0.1-0.8,0.1c-1.2,0-1.9-0.4-2-1.2c0.1-0.1,0.2-0.1,0.3-0.2c0.1-0.1,0.2-0.2,0.3-0.3
		c0,0,0.1,0,0.1,0.1c0.1,0.4,0.3,0.7,0.6,0.9c0.3,0.3,0.6,0.4,1,0.4c0.2,0,0.3,0,0.6,0c0.2,0,0.4-0.1,0.6-0.2
		c0.2-0.1,0.4-0.3,0.5-0.5s0.2-0.5,0.2-0.8c0-0.3-0.1-0.5-0.2-0.7c-0.1-0.2-0.2-0.4-0.3-0.6c-0.1-0.2-0.2-0.4-0.4-0.6
		c-0.1-0.2-0.2-0.4-0.2-0.7c0-0.2,0.1-0.5,0.3-0.8c0.2-0.3,0.4-0.5,0.6-0.8c0.3-0.2,0.5-0.4,0.9-0.6c0.3-0.2,0.6-0.2,0.9-0.2
		c0.3,0,0.5,0.1,0.5,0.3c-0.1,0.1-0.1,0.2-0.2,0.3S25.7,16,25.6,16.1z"/>
	<path d="M32.9,17.7c-0.5,0.6-1,1.2-1.7,1.8c-0.6,0.6-1.2,1-1.7,1.4c-0.4,0.3-0.8,0.5-1.2,0.6s-0.8,0.2-1.1,0.2c-0.1,0-0.3,0-0.4,0
		c-0.2,0-0.3-0.1-0.4-0.1c-0.1-0.1-0.2-0.2-0.3-0.3c-0.1-0.1-0.1-0.3-0.1-0.5c0-0.3,0.1-0.6,0.3-1.1c0.2-0.5,0.4-0.9,0.7-1.4
		c0.3-0.5,0.5-0.9,0.8-1.4c0.3-0.4,0.5-0.8,0.6-1c0.1-0.2,0.3-0.3,0.5-0.4c0.2-0.1,0.4-0.2,0.5-0.2c0.1,0,0.1,0,0.1,0.1
		c0,0,0,0.1,0,0.2c0,0.1-0.1,0.1-0.1,0.2c-0.3,0.4-0.5,0.8-0.8,1.3c-0.3,0.5-0.5,0.9-0.7,1.4c-0.2,0.5-0.4,0.9-0.5,1.2
		c-0.1,0.4-0.2,0.7-0.2,0.9c0,0.2,0.1,0.4,0.2,0.5c0.1,0.1,0.3,0.2,0.5,0.2c0.4,0,0.8-0.1,1.3-0.4c0.5-0.3,1-0.6,1.4-1
		c0.5-0.4,0.9-0.8,1.3-1.2c0.4-0.4,0.7-0.8,0.9-1.1c0.1-0.1,0.2-0.1,0.2-0.1C33,17.5,32.9,17.6,32.9,17.7z M31.6,11
		c0,0.2-0.1,0.5-0.3,0.7C31,11.9,30.8,12,30.5,12c-0.2,0-0.4-0.1-0.4-0.4c0-0.3,0.1-0.5,0.3-0.8c0.2-0.2,0.4-0.4,0.7-0.4
		C31.4,10.6,31.6,10.7,31.6,11z"/>
	<path d="M39.2,17.6c-0.3,0.4-0.6,0.8-1,1.2c-0.4,0.4-0.8,0.8-1.2,1.1c-0.4,0.3-0.8,0.7-1.2,0.9s-0.8,0.5-1.2,0.7
		c-0.3,0.1-0.6,0.2-0.8,0.3c-0.3,0-0.5,0.1-0.7,0.1c-1.1,0-1.6-0.5-1.6-1.4c0-0.4,0.1-0.7,0.2-1.1c0.4-0.9,0.9-1.8,1.6-2.5
		c0.7-0.7,1.4-1.3,2.2-1.6c0.2-0.1,0.4-0.1,0.6-0.1c0.7,0,1.1,0.3,1.1,0.9c0,0.3-0.1,0.5-0.2,0.7c-0.1,0.1-0.3,0.3-0.6,0.5l-0.1,0
		c0.1-0.2,0.1-0.3,0.1-0.5c0-0.2-0.1-0.4-0.2-0.6c-0.1-0.2-0.4-0.3-0.7-0.3c-0.4,0-0.7,0.1-1.1,0.4c-0.4,0.2-0.7,0.6-0.9,1
		s-0.5,0.9-0.6,1.4s-0.2,1.1-0.2,1.6c0,0.4,0.1,0.7,0.3,0.9s0.5,0.3,0.9,0.3c0.6,0,1.3-0.3,2.3-1c0.9-0.6,2-1.6,3-3
		c0.1-0.1,0.2-0.1,0.2-0.1S39.3,17.5,39.2,17.6z"/>
</g>
</svg>
