<?xml version="1.0" encoding="utf-8"?>
<!-- Generator: Adobe Illustrator 22.1.0, SVG Export Plug-In . SVG Version: 6.00 Build 0)  -->
<svg version="1.1" xmlns="http://www.w3.org/2000/svg" xmlns:xlink="http://www.w3.org/1999/xlink" x="0px" y="0px"
	 viewBox="0 0 68.5 39.2" style="enable-background:new 0 0 68.5 39.2;" xml:space="preserve">
<g>
	<path d="M7.1,16c-0.1,0.1-0.1,0.1-0.1,0c-0.1-0.3-0.4-0.4-0.8-0.4c-0.3,0-0.6,0.1-0.8,0.2S5,16.3,5,16.6c0,0.2,0,0.3,0.1,0.5
		c0.1,0.2,0.2,0.4,0.4,0.6C5.7,18,5.8,18.2,6,18.5c0.1,0.2,0.2,0.5,0.2,0.8c0,0.5-0.1,0.9-0.4,1.3S5.3,21.1,5,21.3
		c-0.3,0.2-0.7,0.3-1,0.4c-0.3,0.1-0.6,0.1-0.8,0.1c-1.2,0-1.9-0.4-2-1.2c0.1-0.1,0.2-0.1,0.3-0.2c0.1-0.1,0.2-0.2,0.3-0.3
		c0,0,0.1,0,0.1,0.1c0.1,0.4,0.3,0.7,0.6,0.9c0.3,0.3,0.6,0.4,1,0.4c0.2,0,0.3,0,0.6,0c0.2,0,0.4-0.1,0.6-0.2
		C4.8,21.2,5,21,5.1,20.8c0.1-0.2,0.2-0.5,0.2-0.8c0-0.3-0.1-0.5-0.2-0.7c-0.1-0.2-0.2-0.4-0.3-0.6c-0.1-0.2-0.2-0.4-0.4-0.6
		c-0.1-0.2-0.2-0.4-0.2-0.7c0-0.2,0.1-0.5,0.3-0.8c0.2-0.3,0.4-0.5,0.6-0.8c0.3-0.2,0.5-0.4,0.9-0.6C6.4,15.1,6.7,15,7,15
		c0.3,0,0.5,0.1,0.5,0.3c-0.1,0.1-0.1,0.2-0.2,0.3C7.2,15.8,7.2,15.9,7.1,16z"/>
	<path d="M15.2,10.6c-0.2,0-0.3,0.1-0.5,0.2c-0.2,0.1-0.4,0.2-0.4,0.4c-0.5,0.6-0.9,1.3-1.3,2c-0.4,0.7-0.8,1.4-1.2,2.1h3.7
		c0.1,0,0.1,0.1,0.1,0.1s0,0.1-0.1,0.1c-0.2,0-0.4,0-0.7,0c-0.3,0-0.7,0-1,0c-0.4,0-0.8,0-1.2,0.1c-0.4,0-0.8,0-1.1,0.1
		c-0.6,1-1,1.9-1.3,2.5c-0.3,0.7-0.4,1.3-0.4,1.8c0,0.7,0.3,1.1,1,1.1c0.3,0,0.7-0.1,1.1-0.3c0.4-0.2,0.8-0.4,1.3-0.7
		c0.1-0.1,0.1-0.1,0.2,0c0.1,0.1,0,0.1-0.1,0.2c-0.7,0.4-1.3,0.8-1.9,1c-0.6,0.2-1.2,0.3-1.8,0.3c-0.3,0-0.6-0.1-0.8-0.3
		c-0.2-0.2-0.4-0.5-0.4-1c0-0.4,0.2-1,0.5-1.8c0.4-0.8,0.9-1.7,1.6-2.9c-0.2,0-0.5,0-0.9,0.1c-0.4,0-0.6,0-0.6,0
		c-0.1,0-0.1,0-0.1-0.1c0.1-0.1,0.2-0.3,0.4-0.4l1.5,0c0.2-0.3,0.4-0.6,0.6-1c0.2-0.4,0.4-0.7,0.7-1.1c0.2-0.4,0.4-0.7,0.7-1.1
		c0.2-0.4,0.4-0.7,0.6-1c0.2-0.1,0.5-0.2,0.9-0.4c0.4-0.2,0.7-0.3,1-0.4c0,0,0.1,0,0.1,0.1C15.3,10.5,15.2,10.5,15.2,10.6z"/>
	<path d="M20.8,15.4c-0.1,0.1-0.2,0.3-0.4,0.5c-0.1,0.2-0.2,0.4-0.3,0.4c0,0.1-0.1,0.1-0.1,0.1c0,0,0,0-0.1-0.1
		c0-0.1-0.1-0.1-0.2-0.2c-0.1-0.1-0.2-0.1-0.3-0.2c-0.1-0.1-0.3-0.1-0.5-0.1c-0.3,0-0.6,0.1-0.9,0.3c-0.3,0.2-0.6,0.4-0.8,0.6
		c-0.4,0.3-0.7,0.7-1,1c-0.3,0.4-0.6,0.8-0.8,1.2c-0.3,0.4-0.5,0.8-0.8,1.3c-0.2,0.4-0.5,0.9-0.8,1.3c0,0.1-0.1,0.1-0.2,0.1
		c0,0-0.1-0.1-0.3-0.2c-0.1-0.1-0.2-0.2-0.2-0.3c0-0.1,0.1-0.3,0.2-0.5c0.3-0.6,0.6-1.1,1-1.7s0.6-1.1,0.9-1.6
		c0.3-0.5,0.5-0.9,0.8-1.3c0.2-0.4,0.4-0.6,0.5-0.8c0.1-0.2,0.2-0.3,0.2-0.3s0.1,0,0.3,0.1c0.2,0.1,0.2,0.2,0.2,0.4
		c0,0.1,0,0.2-0.1,0.3c-0.1,0.1-0.1,0.3-0.2,0.4c-0.1,0.1-0.2,0.3-0.3,0.4c-0.1,0.1-0.1,0.2-0.2,0.3c-0.1,0.1-0.1,0.1,0,0.1
		s0.1,0,0.1-0.1c0.2-0.2,0.4-0.4,0.7-0.7c0.3-0.2,0.6-0.5,0.9-0.7c0.3-0.2,0.6-0.4,0.9-0.5c0.3-0.1,0.6-0.2,0.8-0.2
		c0.2,0,0.3,0,0.5,0.1C20.7,15.2,20.8,15.3,20.8,15.4z"/>
	<path d="M27.2,18c-0.3,0.4-0.7,0.9-1.2,1.3c-0.5,0.5-1,0.9-1.5,1.2c-0.6,0.4-1.1,0.7-1.7,0.9c-0.6,0.2-1.2,0.3-1.8,0.3
		c-0.9,0-1.4-0.4-1.4-1.3c0-0.6,0.1-1.2,0.4-1.8c0.3-0.6,0.7-1.2,1.1-1.8c0.5-0.5,1-1,1.5-1.4c0.5-0.4,1.1-0.6,1.6-0.6
		c0.3,0,0.5,0.1,0.6,0.1c0.1,0.1,0.2,0.2,0.2,0.4c0,0.2-0.1,0.5-0.2,0.8s-0.4,0.5-0.7,0.8c-0.3,0.2-0.7,0.5-1.1,0.6
		c-0.5,0.2-1,0.3-1.6,0.3c-0.1,0.2-0.2,0.5-0.3,0.9c-0.1,0.4-0.2,0.8-0.2,1.2c0,0.8,0.4,1.2,1.1,1.2c0.5,0,0.9-0.1,1.4-0.3
		c0.5-0.2,1-0.5,1.4-0.8s0.9-0.7,1.3-1.1c0.4-0.4,0.7-0.8,1-1.1c0,0,0.1,0,0.1,0C27.2,17.9,27.2,17.9,27.2,18z M24.1,15.6
		c0-0.3-0.1-0.4-0.4-0.4c-0.2,0-0.4,0.1-0.6,0.2c-0.2,0.2-0.4,0.3-0.6,0.6c-0.2,0.2-0.4,0.5-0.6,0.8c-0.2,0.3-0.3,0.6-0.4,0.8
		c0,0,0.1,0,0.2,0c0.1,0,0.2,0,0.2,0c0.6,0,1.1-0.2,1.5-0.6C23.8,16.7,24.1,16.2,24.1,15.6z"/>
	<path d="M36.1,17.4c-0.5,0.6-1,1.1-1.5,1.7c-0.6,0.6-1.1,1.1-1.7,1.5c-0.6,0.5-1.1,0.8-1.7,1.1c-0.6,0.3-1.1,0.4-1.5,0.4
		c-0.4,0-0.7-0.1-0.8-0.3c-0.2-0.2-0.2-0.5-0.2-0.8c0-0.3,0.1-0.7,0.3-1.1c0.2-0.5,0.4-1,0.8-1.5c-0.3,0.3-0.6,0.7-0.9,1.1
		c-0.3,0.4-0.7,0.7-1.1,1c-0.4,0.3-0.7,0.6-1.1,0.8c-0.4,0.2-0.7,0.3-1,0.3c-0.4,0-0.6-0.2-0.6-0.6c0-0.5,0.2-1,0.5-1.7
		c0.4-0.7,0.8-1.4,1.5-2c0.6-0.6,1.3-1.2,2.1-1.7c0.8-0.5,1.6-0.7,2.4-0.7c0.1-0.2,0.2-0.3,0.3-0.4c0.1-0.1,0.2-0.1,0.2-0.2l0.8-0.2
		l0.1,0c-0.1,0.1-0.2,0.2-0.3,0.4c-0.1,0.2-0.2,0.3-0.3,0.5c0.1,0,0.2,0,0.4,0c0.2,0,0.4,0,0.5,0.1c0.1,0,0.1,0.1,0.1,0.1
		s0,0.1-0.1,0.1c-0.1,0-0.3-0.1-0.5-0.1c-0.2,0-0.4,0-0.5,0c-0.9,1.6-1.6,2.9-2,3.9c-0.4,1-0.6,1.7-0.6,2.1c0,0.2,0,0.3,0.1,0.5
		c0.1,0.1,0.3,0.2,0.6,0.2c0.3,0,0.7-0.1,1.1-0.3c0.4-0.2,0.9-0.6,1.4-1c0.5-0.4,1-0.9,1.5-1.4c0.5-0.5,1-1.1,1.5-1.7
		c0-0.1,0.1-0.1,0.1,0C36.1,17.3,36.1,17.4,36.1,17.4z M31.4,15.1c-0.7,0-1.3,0.2-1.9,0.7c-0.6,0.5-1.2,1-1.7,1.7
		c-0.5,0.7-0.9,1.3-1.2,1.9c-0.3,0.6-0.4,1.1-0.4,1.4c0,0.2,0.1,0.2,0.2,0.2s0.3-0.1,0.6-0.2s0.5-0.4,0.9-0.6s0.6-0.6,1-0.9
		c0.3-0.4,0.6-0.8,0.9-1.2c0.3-0.5,0.6-1,0.9-1.5C31,16.1,31.2,15.6,31.4,15.1L31.4,15.1z"/>
	<path d="M45.7,18.9c-0.3,0.3-0.6,0.7-1,1.1c-0.4,0.4-0.8,0.8-1.2,1.1c-0.4,0.4-0.9,0.7-1.4,0.9c-0.5,0.2-0.9,0.4-1.4,0.4
		c-0.4,0-0.7-0.1-0.8-0.2s-0.2-0.4-0.2-0.8c0-0.2,0.1-0.6,0.3-1.1c0.2-0.5,0.5-1,0.8-1.6c0.3-0.5,0.5-1.1,0.8-1.5
		c0.2-0.5,0.3-0.8,0.3-1c0-0.1-0.1-0.2-0.2-0.2c-0.3,0.1-0.6,0.3-0.9,0.6s-0.7,0.6-1,0.9c-0.3,0.3-0.6,0.6-0.9,0.9
		c-0.3,0.3-0.5,0.6-0.6,0.8c-0.1,0.2-0.3,0.4-0.4,0.7c-0.1,0.3-0.3,0.6-0.4,0.8c-0.1,0.3-0.3,0.5-0.4,0.7c-0.1,0.2-0.2,0.3-0.3,0.3
		c-0.1,0-0.2-0.1-0.3-0.2s-0.1-0.2-0.1-0.3c0-0.1,0-0.2,0.1-0.3c0.1-0.1,0.2-0.3,0.3-0.6c0.3-0.4,0.5-0.7,0.7-1.1
		c0.2-0.4,0.4-0.8,0.5-1.1c0.2-0.3,0.3-0.6,0.3-0.9c0.1-0.2,0.1-0.4,0.1-0.4c0-0.2,0-0.2-0.1-0.2c-0.1,0-0.3,0.1-0.6,0.4
		c-0.3,0.3-0.6,0.6-0.9,0.9c-0.3,0.4-0.7,0.7-1,1.1c-0.3,0.4-0.6,0.8-0.8,1.1c-0.3,0.4-0.5,0.8-0.7,1.1c-0.2,0.3-0.4,0.5-0.5,0.5
		c-0.2,0-0.3-0.1-0.3-0.2c0-0.1,0-0.3,0-0.4c0-0.2,0-0.3,0.1-0.4c0.5-0.9,1.1-1.7,1.6-2.6c0.5-0.9,1-1.8,1.6-2.7
		c0.1-0.2,0.2-0.3,0.3-0.3c0.1,0,0.2,0.1,0.3,0.2c0.1,0.1,0.1,0.2,0.1,0.3c-0.1,0.4-0.4,0.9-0.7,1.5c-0.3,0.6-0.6,1.1-0.9,1.6
		c0.8-0.9,1.5-1.6,2-2.1c0.5-0.5,1-0.7,1.3-0.7c0.2,0,0.3,0.2,0.3,0.5c0,0.2-0.1,0.5-0.3,0.9c-0.2,0.4-0.3,0.7-0.5,1
		c0,0.1,0,0.1,0,0.1c0,0,0.1,0,0.1-0.1c0.2-0.3,0.5-0.6,0.8-0.9c0.3-0.3,0.6-0.6,1-0.9c0.3-0.3,0.7-0.5,1-0.8c0.3-0.2,0.7-0.4,1-0.6
		c0.3,0,0.5,0.1,0.5,0.4c0,0.1,0,0.1,0,0.2c0,0.1,0,0.1-0.1,0.2c-0.1,0.2-0.3,0.6-0.6,1.1s-0.5,1-0.8,1.6c-0.3,0.6-0.5,1.1-0.7,1.6
		c-0.2,0.5-0.3,0.9-0.3,1.2c0,0.4,0.2,0.6,0.6,0.6c0.4,0,0.7-0.1,1.1-0.4c0.4-0.2,0.8-0.5,1.2-0.9c0.4-0.3,0.8-0.7,1.1-1.1
		s0.6-0.7,0.9-1c0.1-0.1,0.2-0.2,0.2-0.1S45.8,18.8,45.7,18.9z"/>
	<path d="M51.9,17.6c-0.5,0.6-1,1.2-1.7,1.8c-0.6,0.6-1.2,1-1.7,1.4c-0.4,0.3-0.8,0.5-1.2,0.6c-0.4,0.1-0.8,0.2-1.1,0.2
		c-0.1,0-0.3,0-0.4,0c-0.2,0-0.3-0.1-0.4-0.2S45.1,21.2,45,21c-0.1-0.1-0.1-0.3-0.1-0.5c0-0.3,0.1-0.6,0.3-1.1s0.4-0.9,0.7-1.4
		s0.5-0.9,0.8-1.4c0.3-0.4,0.5-0.8,0.6-1c0.1-0.2,0.3-0.3,0.5-0.4c0.2-0.1,0.4-0.2,0.5-0.2c0.1,0,0.2,0,0.2,0.1c0,0,0,0.1,0,0.2
		c0,0.1-0.1,0.1-0.1,0.2c-0.3,0.4-0.5,0.8-0.8,1.3c-0.3,0.5-0.5,0.9-0.7,1.4c-0.2,0.4-0.4,0.9-0.5,1.2s-0.2,0.7-0.2,0.9
		c0,0.2,0.1,0.4,0.2,0.5c0.1,0.1,0.3,0.2,0.5,0.2c0.4,0,0.8-0.1,1.3-0.4c0.5-0.3,1-0.6,1.4-1c0.5-0.4,0.9-0.8,1.3-1.2
		c0.4-0.4,0.7-0.8,0.9-1.1c0.1-0.1,0.2-0.1,0.2-0.1S51.9,17.5,51.9,17.6z M50.5,10.9c0,0.2-0.1,0.5-0.3,0.7C50,11.9,49.8,12,49.5,12
		c-0.2,0-0.4-0.1-0.4-0.4c0-0.3,0.1-0.5,0.3-0.8c0.2-0.2,0.4-0.4,0.7-0.4C50.4,10.5,50.5,10.6,50.5,10.9z"/>
	<path d="M59.8,17.7c-0.4,0.5-0.8,1-1.2,1.5c-0.5,0.5-1,1-1.5,1.4c-0.5,0.4-1.1,0.7-1.6,1s-1.1,0.4-1.6,0.4c-0.2,0-0.5,0-0.7-0.1
		c-0.2-0.1-0.3-0.2-0.3-0.5c0-0.3,0.1-0.6,0.3-1.1c0.2-0.4,0.4-0.9,0.7-1.4c0.3-0.5,0.5-1,0.8-1.5c0.3-0.5,0.5-1,0.7-1.4
		c0-0.1,0-0.2,0-0.3c0-0.1-0.1-0.1-0.2,0c-0.2,0.1-0.5,0.3-0.8,0.6c-0.3,0.2-0.6,0.5-0.9,0.8c-0.3,0.3-0.6,0.5-0.9,0.8
		c-0.3,0.3-0.5,0.5-0.7,0.8c-0.3,0.5-0.6,1-0.8,1.4c-0.2,0.4-0.5,0.9-0.9,1.4c-0.1,0.1-0.1,0.2-0.2,0.2c-0.1,0-0.2-0.1-0.3-0.3
		c-0.1-0.2-0.1-0.4-0.1-0.4c0-0.2,0.1-0.4,0.4-0.7c0.2-0.3,0.5-0.7,0.8-1c0.3-0.6,0.6-1.3,1-2c0.3-0.7,0.6-1.3,0.9-1.9
		c0.1-0.1,0.1-0.1,0.3-0.1s0.2,0,0.3,0.1c0.1,0.1,0.2,0.2,0.2,0.3c0,0.1-0.1,0.4-0.4,0.8c-0.3,0.5-0.6,1-0.9,1.6
		c0.4-0.3,0.8-0.7,1.2-1.1c0.4-0.4,0.9-0.7,1.3-1.1c0.4-0.3,0.8-0.6,1.1-0.8c0.3-0.2,0.5-0.3,0.6-0.3c0.1,0,0.2,0,0.2,0.1
		c0.1,0.1,0.1,0.2,0.1,0.3c0,0.1-0.1,0.2-0.2,0.4c-0.2,0.3-0.5,0.7-0.8,1.2c-0.3,0.5-0.6,1-0.9,1.5c-0.3,0.5-0.5,1-0.7,1.5
		s-0.3,0.9-0.3,1.1c0,0.2,0,0.4,0.2,0.5c0.1,0.1,0.3,0.1,0.5,0.1c0.3,0,0.7-0.1,1.2-0.4c0.5-0.3,0.9-0.6,1.4-1
		c0.5-0.4,1-0.8,1.4-1.3c0.4-0.5,0.8-0.9,1.1-1.4c0-0.1,0.1-0.1,0.2,0C59.9,17.5,59.9,17.5,59.8,17.7z"/>
	<path d="M65.4,13.5c0,0.2-0.1,0.4-0.2,0.5c-1,1.9-1.9,3.5-2.7,4.9c-0.8,1.4-1.6,2.8-2.3,4c-0.7,1.2-1.4,2.4-2.1,3.5
		c-0.7,1.1-1.4,2.3-2.2,3.6c-0.6,1-1.3,2-2.1,2.9s-1.6,1.7-2.5,2.3c-0.9,0.6-1.9,1.2-3,1.5c-1.1,0.4-2.2,0.6-3.5,0.6
		c-0.9,0-1.7-0.1-2.3-0.4c-0.6-0.3-1.1-0.6-1.4-1c-0.3-0.4-0.6-0.9-0.7-1.4c-0.1-0.5-0.2-1.1-0.2-1.7c0-0.2,0-0.5,0.1-0.8
		c0-0.3,0.1-0.5,0.1-0.6c0-0.1,0.1-0.1,0.1-0.1c0.1,0,0.1,0,0.1,0.2c0,0.1-0.1,0.3-0.1,0.5c0,0.2-0.1,0.4-0.1,0.6
		c0,0.7,0.2,1.3,0.5,1.8s0.7,0.9,1.2,1.3s1.2,0.6,1.9,0.8c0.7,0.2,1.5,0.3,2.3,0.3c0.9,0,1.7-0.1,2.6-0.4c0.9-0.3,1.7-0.7,2.6-1.4
		c0.9-0.7,1.7-1.5,2.5-2.5c0.8-1,1.6-2.3,2.4-3.8c0.5-1,1.1-2,1.7-3.1s1.1-2.1,1.7-3.1c0.5-1,1-1.9,1.5-2.7c0.4-0.8,0.7-1.4,0.9-1.7
		c-0.4,0.5-0.8,1-1.2,1.5s-0.7,0.9-1.1,1.3s-0.6,0.6-0.9,0.9c-0.3,0.2-0.6,0.3-0.8,0.3c-0.2,0-0.3-0.1-0.5-0.2s-0.2-0.3-0.2-0.6
		c0-0.3,0.1-0.7,0.4-1.3c0.2-0.5,0.6-1.1,1-1.7c0.4-0.6,0.9-1.2,1.4-1.7s1.1-0.9,1.6-1.2c0.5-0.2,1-0.4,1.4-0.4c0.1,0,0.2,0,0.3,0
		c0.2-0.3,0.3-0.6,0.5-0.8c0.2-0.3,0.3-0.6,0.5-0.9c0.1-0.3,0.3-0.4,0.4-0.4c0.1,0,0.2,0.1,0.2,0.3S65.4,13.4,65.4,13.5z M63.5,15.3
		c-0.1,0-0.1,0-0.2,0c-0.1,0-0.2,0-0.2,0c-0.3,0-0.5,0-0.8,0.1s-0.5,0.2-0.6,0.3c-0.5,0.4-0.9,0.9-1.3,1.4c-0.4,0.5-0.7,1-0.9,1.5
		c-0.2,0.5-0.4,1-0.5,1.4c-0.1,0.4-0.2,0.7-0.2,0.9c0,0.2,0.1,0.3,0.2,0.3s0.4-0.2,0.7-0.5c0.4-0.3,0.8-0.8,1.2-1.4
		c0.5-0.6,0.9-1.2,1.4-1.9C62.7,16.7,63.1,16,63.5,15.3z"/>
</g>
</svg>
