<?xml version="1.0" encoding="utf-8"?>
<!-- Generator: Adobe Illustrator 24.3.0, SVG Export Plug-In . SVG Version: 6.00 Build 0)  -->
<svg version="1.1" id="Layer_1" xmlns="http://www.w3.org/2000/svg" xmlns:xlink="http://www.w3.org/1999/xlink" x="0px" y="0px"
	 viewBox="0 0 34.9 39.2" style="enable-background:new 0 0 34.9 39.2;" xml:space="preserve">
<g>
	<path d="M12.6,16.7c-1.1,1.3-2.2,2.3-3.4,3c-1.2,0.6-2.5,1.1-3.8,1.4c-0.5,0.1-0.9,0.2-1.2,0.2c-0.3,0.1-0.7,0.1-1,0.2
		c-0.6,1-1.1,2-1.6,2.9c-0.5,1-1,1.9-1.6,2.9c-0.8,1.4-1.4,2.8-2.1,4c-0.6,1.3-1.3,2.5-2,3.8c-0.1,0.2-0.3,0.4-0.6,0.6
		c-0.2,0.1-0.5,0.2-0.8,0.3c-0.3,0.1-0.7,0.2-1.1,0.3c-0.4,0.1-0.9,0.2-1.4,0.4c-0.1,0.1-0.2,0-0.2,0c0-0.1,0-0.2,0.1-0.2
		c0.5-0.2,1-0.4,1.3-0.6s0.7-0.4,1-0.7s0.6-0.6,0.8-0.9c0.3-0.4,0.6-0.8,0.9-1.4c0.3-0.6,0.8-1.3,1.2-2.1c0.5-0.8,1-1.7,1.6-2.7
		c0.6-1,1.2-2.1,1.9-3.2c0.7-1.1,1.3-2.3,2-3.4c-0.1,0-0.2-0.2-0.2-0.3c0-0.1,0.1-0.2,0.2-0.2C2.9,21,3,21,3,21l1.4-2.2
		c0.6-1,1.3-2.1,1.9-3.2c0.6-1.1,1.3-2.1,2-3c0.1-0.1,0.2-0.1,0.3-0.2c0,0,0.1,0,0.2-0.1c0.1,0,0.2,0,0.4-0.1c0.1,0,0.2,0,0.3,0
		c0.1,0,0.2,0,0.2,0c0.1,0,0.1,0,0.1,0.1c0,0.1,0,0.1-0.1,0.2c-0.4,0.4-0.8,0.7-1.1,1.1c-0.3,0.4-0.6,0.7-0.9,1
		c-0.3,0.3-0.5,0.7-0.8,1c-0.2,0.3-0.5,0.7-0.8,1.1c0.2-0.2,0.4-0.4,0.7-0.7c0.2-0.2,0.5-0.5,0.7-0.7c0.2-0.2,0.5-0.4,0.7-0.5
		c0.2-0.1,0.5-0.2,0.7-0.2c0.2,0,0.4,0.1,0.5,0.2c0.1,0.1,0.2,0.3,0.2,0.6c0,0.2-0.1,0.5-0.3,0.9c-0.2,0.4-0.5,0.9-0.9,1.4
		c-0.4,0.5-1,1.1-1.6,1.6c-0.7,0.6-1.5,1.1-2.6,1.6c0.5-0.1,1.1-0.2,1.8-0.3c0.7-0.1,1.4-0.3,2.1-0.7c0.7-0.3,1.4-0.7,2.2-1.3
		c0.7-0.5,1.4-1.2,2-2.1c0,0,0.1-0.1,0.1,0C12.6,16.6,12.6,16.6,12.6,16.7z M8.4,15.9c0-0.1,0-0.2,0-0.3c0-0.1-0.1-0.2-0.3-0.2
		c-0.1,0-0.2,0.1-0.4,0.2c-0.2,0.1-0.4,0.3-0.6,0.5c-0.2,0.2-0.5,0.4-0.8,0.7c-0.3,0.3-0.5,0.6-0.8,0.9c-0.3,0.5-0.7,1-1,1.5
		s-0.6,1.1-1,1.7c0.7-0.2,1.3-0.5,1.9-0.9s1.1-0.9,1.6-1.4c0.5-0.5,0.8-1,1.1-1.5C8.2,16.7,8.4,16.3,8.4,15.9z"/>
	<path d="M17.1,15.3c-0.1,0.1-0.2,0.3-0.4,0.5c-0.1,0.2-0.2,0.4-0.3,0.4c0,0.1-0.1,0.1-0.1,0.1c0,0,0,0-0.1-0.1
		c0-0.1-0.1-0.1-0.2-0.2c-0.1-0.1-0.2-0.1-0.3-0.2c-0.1-0.1-0.3-0.1-0.5-0.1c-0.3,0-0.6,0.1-0.9,0.3c-0.3,0.2-0.6,0.4-0.8,0.6
		c-0.4,0.3-0.7,0.7-1,1c-0.3,0.4-0.6,0.8-0.8,1.2c-0.3,0.4-0.5,0.8-0.8,1.3c-0.2,0.4-0.5,0.9-0.8,1.3c0,0.1-0.1,0.1-0.2,0.1
		c0,0-0.1-0.1-0.3-0.2c-0.1-0.1-0.2-0.2-0.2-0.3c0-0.1,0.1-0.3,0.2-0.5c0.3-0.6,0.6-1.1,1-1.7c0.3-0.6,0.6-1.1,0.9-1.6
		c0.3-0.5,0.5-0.9,0.8-1.3c0.2-0.4,0.4-0.6,0.5-0.8c0.1-0.2,0.2-0.3,0.2-0.3s0.1,0,0.3,0.1c0.2,0.1,0.2,0.2,0.2,0.4
		c0,0.1,0,0.2-0.1,0.3c-0.1,0.1-0.1,0.3-0.2,0.4c-0.1,0.1-0.2,0.3-0.3,0.4c-0.1,0.1-0.1,0.2-0.2,0.3c-0.1,0.1-0.1,0.2,0,0.2
		S13,17,13,17c0.2-0.2,0.4-0.4,0.7-0.7c0.3-0.2,0.6-0.5,0.9-0.7c0.3-0.2,0.6-0.4,0.9-0.5c0.3-0.1,0.6-0.2,0.8-0.2
		c0.2,0,0.3,0,0.5,0.1C17,15.1,17.1,15.2,17.1,15.3z"/>
	<path d="M23.6,17.9c-0.3,0.4-0.7,0.9-1.2,1.3c-0.5,0.4-1,0.9-1.5,1.2c-0.6,0.4-1.1,0.7-1.7,0.9c-0.6,0.2-1.2,0.3-1.8,0.3
		c-0.9,0-1.4-0.4-1.4-1.3c0-0.6,0.1-1.2,0.4-1.8c0.3-0.6,0.7-1.2,1.1-1.8c0.5-0.5,1-1,1.5-1.4c0.5-0.4,1.1-0.6,1.6-0.6
		c0.3,0,0.5,0.1,0.6,0.1c0.1,0.1,0.2,0.2,0.2,0.4c0,0.2-0.1,0.5-0.2,0.8c-0.1,0.3-0.4,0.5-0.7,0.8c-0.3,0.3-0.7,0.5-1.1,0.6
		c-0.5,0.2-1,0.3-1.6,0.3c-0.1,0.2-0.2,0.5-0.3,0.9s-0.2,0.8-0.2,1.2c0,0.8,0.4,1.2,1.1,1.2c0.5,0,0.9-0.1,1.4-0.3
		c0.5-0.2,1-0.5,1.4-0.8s0.9-0.7,1.3-1.1c0.4-0.4,0.7-0.8,1-1.1c0,0,0.1,0,0.1,0C23.5,17.8,23.6,17.8,23.6,17.9z M20.4,15.5
		c0-0.3-0.1-0.4-0.4-0.4c-0.2,0-0.4,0.1-0.6,0.2c-0.2,0.2-0.4,0.3-0.6,0.6c-0.2,0.2-0.4,0.5-0.6,0.8s-0.3,0.5-0.4,0.8
		c0,0,0.1,0,0.2,0c0.1,0,0.2,0,0.2,0c0.6,0,1.1-0.2,1.5-0.6C20.2,16.6,20.4,16.1,20.4,15.5z"/>
	<path d="M26.5,15.9c-0.1,0.1-0.1,0.1-0.2,0c-0.1-0.3-0.4-0.4-0.8-0.4c-0.3,0-0.6,0.1-0.8,0.2s-0.4,0.4-0.4,0.7c0,0.2,0,0.3,0.1,0.5
		s0.2,0.4,0.4,0.6c0.2,0.2,0.3,0.5,0.4,0.7c0.1,0.2,0.2,0.5,0.2,0.8c0,0.5-0.1,0.9-0.4,1.3s-0.5,0.6-0.9,0.8c-0.3,0.2-0.7,0.3-1,0.4
		c-0.3,0.1-0.6,0.1-0.8,0.1c-1.2,0-1.9-0.4-2-1.2c0.1-0.1,0.2-0.1,0.3-0.2c0.1-0.1,0.2-0.2,0.3-0.3c0,0,0.1,0,0.1,0.1
		c0.1,0.4,0.3,0.7,0.6,0.9c0.3,0.3,0.6,0.4,1,0.4c0.2,0,0.3,0,0.6,0c0.2,0,0.4-0.1,0.6-0.2c0.2-0.1,0.4-0.3,0.5-0.5s0.2-0.5,0.2-0.8
		c0-0.3-0.1-0.5-0.2-0.7c-0.1-0.2-0.2-0.4-0.3-0.6c-0.1-0.2-0.2-0.4-0.4-0.6c-0.1-0.2-0.2-0.4-0.2-0.7c0-0.2,0.1-0.5,0.3-0.8
		c0.2-0.3,0.4-0.5,0.6-0.8c0.3-0.2,0.5-0.4,0.9-0.6C25.7,15,26,15,26.3,15c0.3,0,0.5,0.1,0.5,0.3c-0.1,0.1-0.1,0.2-0.2,0.3
		C26.6,15.7,26.5,15.8,26.5,15.9z"/>
	<path d="M31.8,15.9c-0.1,0.1-0.1,0.1-0.1,0c-0.1-0.3-0.4-0.4-0.8-0.4c-0.3,0-0.6,0.1-0.8,0.2s-0.4,0.4-0.4,0.7c0,0.2,0,0.3,0.2,0.5
		c0.1,0.2,0.2,0.4,0.4,0.6c0.2,0.2,0.3,0.5,0.5,0.7c0.1,0.2,0.2,0.5,0.2,0.8c0,0.5-0.1,0.9-0.4,1.3S30,21,29.7,21.2
		c-0.3,0.2-0.7,0.3-1,0.4c-0.3,0.1-0.6,0.1-0.8,0.1c-1.2,0-1.9-0.4-2-1.2c0.1-0.1,0.2-0.1,0.3-0.2c0.1-0.1,0.2-0.2,0.3-0.3
		c0,0,0.1,0,0.1,0.1c0.1,0.4,0.3,0.7,0.6,0.9c0.3,0.3,0.6,0.4,1,0.4c0.2,0,0.3,0,0.6,0s0.4-0.1,0.6-0.2c0.2-0.1,0.4-0.3,0.5-0.5
		c0.1-0.2,0.2-0.5,0.2-0.8c0-0.3,0-0.5-0.2-0.7c-0.1-0.2-0.2-0.4-0.3-0.6c-0.1-0.2-0.2-0.4-0.4-0.6c-0.1-0.2-0.2-0.4-0.2-0.7
		c0-0.2,0.1-0.5,0.3-0.8c0.2-0.3,0.4-0.5,0.6-0.8c0.3-0.2,0.5-0.4,0.9-0.6c0.3-0.2,0.6-0.2,0.9-0.2c0.3,0,0.5,0.1,0.5,0.3
		c-0.1,0.1-0.1,0.2-0.2,0.3C31.9,15.7,31.9,15.8,31.8,15.9z"/>
</g>
</svg>
