<?xml version="1.0" encoding="utf-8"?>
<!-- Generator: Adobe Illustrator 22.1.0, SVG Export Plug-In . SVG Version: 6.00 Build 0)  -->
<svg version="1.1" xmlns="http://www.w3.org/2000/svg" xmlns:xlink="http://www.w3.org/1999/xlink" x="0px" y="0px"
	 viewBox="0 0 68.5 39.2" style="enable-background:new 0 0 68.5 39.2;" xml:space="preserve">
<g>
	<path d="M16.8,15.4c-0.3,0.1-0.6,0.2-1,0.2c-0.4,0.1-0.8,0.1-1.2,0.2c-0.4,0.1-0.8,0.1-1.2,0.1C13,16,12.7,16,12.5,16
		c-0.1,0-0.2,0.1-0.2,0.1c0,0.1,0,0.2,0,0.3c0,0.5-0.1,1.1-0.2,1.7c-0.1,0.6-0.3,1.1-0.6,1.6c-0.2,0.5-0.5,1-0.8,1.4
		c-0.3,0.4-0.6,0.7-0.8,1c-0.3,0.3-0.7,0.5-1,0.7C8.5,22.9,8.2,23,7.7,23c-0.5,0-0.9-0.2-1.2-0.5S6,21.8,6,21.3c0-0.2,0-0.4,0.1-0.6
		c-0.4,0.2-0.8,0.4-1.3,0.7c-0.5,0.2-0.9,0.3-1.4,0.3c-0.2,0-0.4-0.1-0.6-0.2S2.7,21,2.7,20.7c0-0.4,0.1-0.8,0.3-1.2
		c0.2-0.5,0.5-0.9,0.8-1.4c0.3-0.5,0.6-0.9,0.9-1.3c0.3-0.4,0.5-0.7,0.6-0.9c0.1-0.1,0.1-0.2,0.2-0.3c0.1-0.1,0.2-0.2,0.3-0.2
		c0.2,0,0.3-0.1,0.5-0.1c0.2,0,0.4-0.1,0.5-0.1c0.1,0,0.1,0,0.1,0.1c0,0-0.1,0.1-0.2,0.1c-0.1,0-0.3,0.2-0.4,0.3
		C6,16.1,5.7,16.5,5.4,17c-0.3,0.5-0.6,0.9-0.8,1.4c-0.2,0.5-0.4,0.9-0.6,1.3c-0.1,0.4-0.2,0.8-0.2,1c0,0.1,0,0.2,0.1,0.3
		c0.1,0.1,0.2,0.1,0.3,0.1c0.1,0,0.3,0,0.6-0.1c0.3-0.1,0.7-0.3,1.2-0.7c0.2-0.8,0.5-1.5,0.8-2.3s0.8-1.4,1.3-2
		c0.1-0.1,0.3-0.3,0.5-0.5c0.2-0.2,0.5-0.3,0.8-0.3c0.2,0,0.3,0.1,0.3,0.2c0,0.1,0,0.2,0,0.3c0,0.1,0,0.3-0.1,0.6
		c-0.1,0.3-0.2,0.6-0.4,1c-0.2,0.4-0.5,0.8-0.9,1.3S7.6,19.5,7,20c0,0.3,0,0.6,0.1,0.8c0,0.3,0.1,0.5,0.2,0.8s0.3,0.4,0.5,0.5
		c0.2,0.1,0.5,0.2,0.8,0.2c0.5,0,0.9-0.2,1.3-0.5c0.4-0.3,0.7-0.7,0.9-1.2c0.2-0.5,0.4-1.1,0.5-1.7c0.1-0.6,0.2-1.2,0.2-1.7
		c0-0.5,0-0.9-0.1-1.2c-0.1-0.3-0.2-0.5-0.6-0.5c-0.1-0.1-0.1-0.1,0-0.2c0.1,0,0.3,0,0.4-0.1c0.2-0.1,0.3-0.1,0.4-0.1
		c0,0,0.1,0,0.1,0.1c0,0,0.1,0.1,0.3,0.1c0.1,0.1,0.3,0.1,0.6,0.1c0.3,0.1,0.6,0.1,1.1,0.1c0.6,0,1.2,0,1.8-0.1
		c0.6-0.1,1-0.2,1.3-0.3c0.1,0,0.1,0,0.2,0.1C16.9,15.3,16.9,15.3,16.8,15.4z M9.2,16.2c0,0,0-0.1,0-0.2c0-0.1-0.1-0.2-0.2-0.2
		c-0.1,0-0.2,0.1-0.4,0.2c-0.2,0.2-0.4,0.4-0.6,0.7c-0.2,0.3-0.4,0.7-0.6,1.2c-0.2,0.5-0.3,1.1-0.4,1.7c0.8-0.6,1.4-1.3,1.7-1.9
		C9.1,17.2,9.2,16.7,9.2,16.2z"/>
	<path d="M20.9,15.5c-0.1,0.1-0.2,0.3-0.4,0.5c-0.1,0.2-0.2,0.4-0.3,0.4c0,0.1-0.1,0.1-0.1,0.1c0,0,0,0-0.1-0.1
		c0-0.1-0.1-0.1-0.2-0.2c-0.1-0.1-0.2-0.1-0.3-0.2C19.5,16,19.3,16,19.1,16c-0.3,0-0.6,0.1-0.9,0.3c-0.3,0.2-0.6,0.4-0.8,0.6
		c-0.4,0.3-0.7,0.7-1,1c-0.3,0.4-0.6,0.8-0.8,1.2c-0.3,0.4-0.5,0.8-0.8,1.3c-0.2,0.4-0.5,0.9-0.8,1.3c0,0.1-0.1,0.1-0.2,0.1
		c0,0-0.1-0.1-0.3-0.2c-0.1-0.1-0.2-0.2-0.2-0.3c0-0.1,0.1-0.3,0.2-0.5c0.3-0.6,0.6-1.1,1-1.7s0.6-1.1,0.9-1.6
		c0.3-0.5,0.5-0.9,0.8-1.3c0.2-0.4,0.4-0.6,0.5-0.8c0.1-0.2,0.2-0.3,0.2-0.3s0.1,0,0.3,0.1c0.2,0.1,0.2,0.2,0.2,0.4
		c0,0.1,0,0.2-0.1,0.3c-0.1,0.1-0.1,0.3-0.2,0.4c-0.1,0.1-0.2,0.3-0.3,0.4c-0.1,0.1-0.1,0.2-0.2,0.3c-0.1,0.1-0.1,0.1,0,0.1
		s0.1,0,0.1-0.1c0.2-0.2,0.4-0.4,0.7-0.7c0.3-0.2,0.6-0.5,0.9-0.7c0.3-0.2,0.6-0.4,0.9-0.5c0.3-0.1,0.6-0.2,0.8-0.2
		c0.2,0,0.3,0,0.5,0.1C20.8,15.3,20.9,15.4,20.9,15.5z"/>
	<path d="M27,17.7c-0.5,0.6-1,1.2-1.7,1.8c-0.6,0.6-1.2,1-1.7,1.4c-0.4,0.3-0.8,0.5-1.2,0.6c-0.4,0.1-0.8,0.2-1.1,0.2
		c-0.1,0-0.3,0-0.4,0s-0.3-0.1-0.4-0.2c-0.1-0.1-0.2-0.2-0.3-0.3C20,21,20,20.8,20,20.6c0-0.3,0.1-0.6,0.3-1.1
		c0.2-0.5,0.4-0.9,0.7-1.4c0.3-0.5,0.5-0.9,0.8-1.4s0.5-0.8,0.6-1c0.1-0.2,0.3-0.3,0.5-0.4c0.2-0.1,0.4-0.2,0.5-0.2
		c0.1,0,0.1,0,0.1,0.1c0,0,0,0.1,0,0.2c0,0.1-0.1,0.1-0.1,0.2c-0.3,0.4-0.5,0.8-0.8,1.3s-0.5,0.9-0.7,1.4c-0.2,0.4-0.4,0.9-0.5,1.2
		c-0.1,0.4-0.2,0.7-0.2,0.9c0,0.2,0.1,0.4,0.2,0.5c0.1,0.1,0.3,0.2,0.5,0.2c0.4,0,0.8-0.1,1.3-0.4s1-0.6,1.4-1
		c0.5-0.4,0.9-0.8,1.3-1.2c0.4-0.4,0.7-0.8,0.9-1.1c0.1-0.1,0.2-0.1,0.2-0.1C27.1,17.5,27.1,17.6,27,17.7z M25.7,11
		c0,0.2-0.1,0.5-0.3,0.7c-0.2,0.2-0.4,0.4-0.7,0.4c-0.2,0-0.4-0.1-0.4-0.4c0-0.3,0.1-0.5,0.3-0.8c0.2-0.2,0.4-0.4,0.7-0.4
		C25.5,10.6,25.7,10.8,25.7,11z"/>
	<path d="M32.5,10.7c-0.2,0-0.3,0.1-0.5,0.2c-0.2,0.1-0.4,0.2-0.4,0.4c-0.5,0.6-0.9,1.3-1.3,2c-0.4,0.7-0.8,1.4-1.2,2.1h3.7
		c0.1,0,0.1,0.1,0.1,0.1s0,0.1-0.1,0.1c-0.2,0-0.4,0-0.7,0c-0.3,0-0.7,0-1,0c-0.4,0-0.8,0-1.2,0.1c-0.4,0-0.8,0-1.1,0.1
		c-0.6,1-1,1.9-1.3,2.5c-0.3,0.7-0.4,1.3-0.4,1.8c0,0.7,0.3,1.1,1,1.1c0.3,0,0.7-0.1,1.1-0.3c0.4-0.2,0.8-0.4,1.3-0.7
		c0.1-0.1,0.1-0.1,0.2,0c0.1,0.1,0,0.1-0.1,0.2c-0.7,0.4-1.3,0.8-1.9,1s-1.2,0.3-1.8,0.3c-0.3,0-0.6-0.1-0.8-0.3
		c-0.2-0.2-0.4-0.5-0.4-1c0-0.4,0.2-1,0.5-1.8c0.4-0.8,0.9-1.7,1.6-2.9c-0.2,0-0.5,0-0.9,0.1c-0.4,0-0.6,0-0.6,0
		c-0.1,0-0.1,0-0.1-0.1c0.1-0.1,0.2-0.3,0.4-0.4l1.5,0c0.2-0.3,0.4-0.6,0.6-1c0.2-0.4,0.4-0.7,0.7-1.1c0.2-0.4,0.4-0.7,0.7-1.1
		c0.2-0.4,0.4-0.7,0.6-1c0.2-0.1,0.5-0.2,0.9-0.4c0.4-0.2,0.7-0.3,1-0.4c0,0,0.1,0,0.1,0.1C32.6,10.6,32.6,10.6,32.5,10.7z"/>
	<path d="M38.4,17.7c-0.5,0.6-1,1.2-1.7,1.8c-0.6,0.6-1.2,1-1.7,1.4c-0.4,0.3-0.8,0.5-1.2,0.6c-0.4,0.1-0.8,0.2-1.1,0.2
		c-0.1,0-0.3,0-0.4,0s-0.3-0.1-0.4-0.2c-0.1-0.1-0.2-0.2-0.3-0.3c-0.1-0.1-0.1-0.3-0.1-0.5c0-0.3,0.1-0.6,0.3-1.1
		c0.2-0.5,0.4-0.9,0.7-1.4c0.3-0.5,0.5-0.9,0.8-1.4s0.5-0.8,0.6-1c0.1-0.2,0.3-0.3,0.5-0.4c0.2-0.1,0.4-0.2,0.5-0.2
		c0.1,0,0.1,0,0.1,0.1c0,0,0,0.1,0,0.2c0,0.1-0.1,0.1-0.1,0.2c-0.3,0.4-0.5,0.8-0.8,1.3s-0.5,0.9-0.7,1.4c-0.2,0.4-0.4,0.9-0.5,1.2
		c-0.1,0.4-0.2,0.7-0.2,0.9c0,0.2,0.1,0.4,0.2,0.5c0.1,0.1,0.3,0.2,0.5,0.2c0.4,0,0.8-0.1,1.3-0.4s1-0.6,1.4-1
		c0.5-0.4,0.9-0.8,1.3-1.2c0.4-0.4,0.7-0.8,0.9-1.1c0.1-0.1,0.2-0.1,0.2-0.1C38.4,17.5,38.4,17.6,38.4,17.7z M37,11
		c0,0.2-0.1,0.5-0.3,0.7c-0.2,0.2-0.4,0.4-0.7,0.4c-0.2,0-0.4-0.1-0.4-0.4c0-0.3,0.1-0.5,0.3-0.8c0.2-0.2,0.4-0.4,0.7-0.4
		C36.9,10.6,37,10.8,37,11z"/>
	<path d="M46.3,17.8c-0.4,0.5-0.8,1-1.2,1.5c-0.5,0.5-1,1-1.5,1.4c-0.5,0.4-1.1,0.7-1.6,1c-0.6,0.3-1.1,0.4-1.6,0.4
		c-0.2,0-0.5,0-0.7-0.1c-0.2-0.1-0.3-0.2-0.3-0.5c0-0.3,0.1-0.6,0.3-1.1c0.2-0.4,0.4-0.9,0.7-1.4s0.5-1,0.8-1.5
		c0.3-0.5,0.5-1,0.7-1.4c0-0.1,0-0.2,0-0.3c0-0.1-0.1-0.1-0.2,0c-0.2,0.1-0.5,0.3-0.8,0.6c-0.3,0.2-0.6,0.5-0.9,0.8
		s-0.6,0.5-0.9,0.8c-0.3,0.3-0.5,0.5-0.7,0.8c-0.3,0.5-0.6,1-0.8,1.4c-0.2,0.4-0.5,0.9-0.9,1.4c-0.1,0.1-0.1,0.2-0.2,0.2
		c-0.1,0-0.2-0.1-0.3-0.3c-0.1-0.2-0.1-0.4-0.1-0.4c0-0.2,0.1-0.4,0.4-0.7c0.2-0.3,0.5-0.7,0.8-1c0.3-0.6,0.6-1.3,1-2
		c0.3-0.7,0.6-1.3,0.9-1.9c0.1-0.1,0.1-0.1,0.3-0.1c0.1,0,0.2,0,0.3,0.1c0.1,0.1,0.1,0.2,0.1,0.3c0,0.1-0.1,0.4-0.4,0.8
		c-0.3,0.5-0.6,1-0.9,1.6c0.4-0.3,0.8-0.7,1.2-1.1c0.4-0.4,0.9-0.7,1.3-1.1c0.4-0.3,0.8-0.6,1.1-0.8s0.5-0.3,0.6-0.3
		c0.1,0,0.2,0,0.2,0.1c0.1,0.1,0.1,0.2,0.1,0.3c0,0.1-0.1,0.2-0.1,0.4c-0.2,0.3-0.5,0.7-0.8,1.2c-0.3,0.5-0.6,1-0.9,1.5
		c-0.3,0.5-0.5,1-0.7,1.5c-0.2,0.5-0.3,0.9-0.3,1.1c0,0.2,0,0.4,0.2,0.5c0.1,0.1,0.3,0.1,0.5,0.1c0.3,0,0.7-0.1,1.2-0.4
		c0.5-0.3,0.9-0.6,1.4-1c0.5-0.4,1-0.8,1.4-1.3c0.4-0.5,0.8-0.9,1.1-1.4c0-0.1,0.1-0.1,0.2,0C46.4,17.6,46.4,17.6,46.3,17.8z"/>
	<path d="M51.9,13.6c0,0.2-0.1,0.4-0.2,0.5c-1,1.9-1.9,3.5-2.7,4.9c-0.8,1.4-1.6,2.8-2.3,4c-0.7,1.2-1.4,2.4-2.1,3.5
		c-0.7,1.1-1.4,2.3-2.2,3.6c-0.6,1-1.3,2-2.1,2.9c-0.8,0.9-1.6,1.7-2.5,2.3c-0.9,0.6-1.9,1.2-3,1.5c-1.1,0.4-2.2,0.6-3.5,0.6
		c-0.9,0-1.7-0.1-2.3-0.4c-0.6-0.3-1.1-0.6-1.4-1c-0.3-0.4-0.6-0.9-0.7-1.4c-0.1-0.5-0.2-1.1-0.2-1.7c0-0.2,0-0.5,0.1-0.8
		c0-0.3,0.1-0.5,0.1-0.6c0-0.1,0.1-0.1,0.1-0.1s0.1,0,0.1,0.2c0,0.1-0.1,0.3-0.1,0.5s-0.1,0.4-0.1,0.6c0,0.7,0.1,1.3,0.4,1.8
		c0.3,0.5,0.7,0.9,1.2,1.3c0.5,0.3,1.2,0.6,1.9,0.8c0.7,0.2,1.5,0.3,2.3,0.3c0.9,0,1.7-0.1,2.6-0.4c0.9-0.3,1.7-0.7,2.6-1.4
		c0.9-0.7,1.7-1.5,2.5-2.5c0.8-1,1.6-2.3,2.4-3.8c0.5-1,1.1-2,1.6-3.1s1.1-2.1,1.7-3.1c0.5-1,1-1.9,1.5-2.7c0.4-0.8,0.7-1.4,0.9-1.7
		c-0.4,0.5-0.8,1-1.2,1.5c-0.4,0.5-0.7,0.9-1.1,1.3c-0.3,0.4-0.6,0.6-0.9,0.9c-0.3,0.2-0.6,0.3-0.8,0.3c-0.2,0-0.3-0.1-0.5-0.2
		s-0.2-0.3-0.2-0.6c0-0.3,0.1-0.7,0.4-1.3c0.2-0.5,0.6-1.1,1-1.7c0.4-0.6,0.9-1.2,1.4-1.7c0.5-0.5,1-0.9,1.6-1.2
		c0.5-0.2,1-0.4,1.4-0.4c0.1,0,0.2,0,0.3,0c0.2-0.3,0.3-0.6,0.5-0.8c0.2-0.3,0.3-0.6,0.5-0.9c0.1-0.3,0.3-0.4,0.4-0.4
		c0.1,0,0.2,0.1,0.2,0.3C51.9,13.3,51.9,13.5,51.9,13.6z M50,15.4c-0.1,0-0.1,0-0.2,0c-0.1,0-0.1,0-0.2,0c-0.3,0-0.5,0-0.8,0.1
		c-0.3,0-0.5,0.2-0.6,0.3c-0.5,0.4-0.9,0.9-1.3,1.4c-0.4,0.5-0.7,1-0.9,1.5c-0.2,0.5-0.4,1-0.5,1.4c-0.1,0.4-0.2,0.7-0.2,0.9
		c0,0.2,0.1,0.3,0.2,0.3s0.4-0.2,0.7-0.5c0.4-0.3,0.8-0.8,1.2-1.4c0.5-0.6,0.9-1.2,1.4-1.9S49.6,16.1,50,15.4z"/>
</g>
</svg>
