<?xml version="1.0" encoding="utf-8"?>
<!-- Generator: Adobe Illustrator 25.0.1, SVG Export Plug-In . SVG Version: 6.00 Build 0)  -->
<svg version="1.1" id="Layer_1" xmlns="http://www.w3.org/2000/svg" xmlns:xlink="http://www.w3.org/1999/xlink" x="0px" y="0px"
	 viewBox="0 0 68.5 39.2" enable-background="new 0 0 68.5 39.2" xml:space="preserve">
<g id="live">
	<path d="M17.1,2.1c0,0.3-0.1,0.7-0.3,1.2s-0.5,1.2-0.9,1.9c-0.4,0.7-0.9,1.5-1.5,2.3c-0.6,0.8-1.3,1.6-2,2.4s-1.6,1.6-2.5,2.3
		C9,12.9,8,13.5,7,14.1c-0.2,0.3-0.4,0.8-0.8,1.3c-0.3,0.5-0.6,1.1-0.9,1.7c-0.3,0.6-0.6,1.2-0.8,1.8s-0.3,1.1-0.3,1.5
		c0,0.6,0.3,1,0.9,1c0.5,0,1-0.1,1.6-0.4c0.5-0.3,1.1-0.6,1.5-1C8.6,19.5,9,19,9.5,18.6c0.4-0.5,0.8-0.9,1.1-1.2
		c0.1-0.1,0.2-0.2,0.2-0.1c0,0.1,0,0.1-0.1,0.2c-0.4,0.4-0.8,0.9-1.3,1.4c-0.5,0.5-1,1-1.6,1.4c-0.6,0.4-1.1,0.8-1.7,1.1
		c-0.6,0.3-1.2,0.4-1.8,0.4c-0.5,0-0.9-0.1-1.1-0.4s-0.3-0.6-0.3-0.9s0.2-0.9,0.5-1.5c0.3-0.7,0.7-1.4,1.1-2.1
		c0.4-0.7,0.8-1.4,1.3-2.1c0.4-0.7,0.7-1.2,0.9-1.5C7,12.6,7.3,12,7.7,11.4c0.4-0.6,0.7-1.2,1.1-1.8c0.4-0.6,0.7-1.2,1-1.7
		c0.3-0.5,0.6-1,0.9-1.5c0.3-0.5,0.7-1,1-1.5c0.4-0.5,0.8-0.9,1.4-1.4c0.8-0.6,1.5-1.1,2.1-1.5c0.6-0.3,1.1-0.5,1.3-0.5
		c0.2,0,0.3,0,0.4,0.1C17.1,1.8,17.1,1.9,17.1,2.1z M15.8,2.9c0-0.3-0.1-0.5-0.4-0.5c-0.1,0-0.2,0-0.3,0.1s-0.3,0.2-0.5,0.4
		c-0.2,0.2-0.4,0.5-0.7,0.8c-0.3,0.3-0.6,0.8-1,1.3c-0.2,0.2-0.4,0.5-0.7,1c-0.3,0.4-0.7,1-1.1,1.7s-1,1.5-1.6,2.6
		c-0.6,1-1.4,2.2-2.2,3.6c1.2-0.7,2.3-1.5,3.4-2.5c1-1,2-2,2.7-3c0.8-1,1.4-2,1.8-3C15.5,4.3,15.8,3.5,15.8,2.9z"/>
	<path d="M15.9,17.7c-0.5,0.6-1,1.2-1.7,1.8c-0.6,0.6-1.2,1-1.7,1.4c-0.4,0.3-0.8,0.5-1.2,0.6c-0.4,0.1-0.8,0.2-1.1,0.2
		c-0.1,0-0.3,0-0.4,0s-0.3-0.1-0.4-0.2c-0.1-0.1-0.2-0.2-0.3-0.3c-0.1-0.1-0.1-0.3-0.1-0.5c0-0.3,0.1-0.6,0.3-1.1
		c0.2-0.5,0.4-0.9,0.7-1.4c0.3-0.5,0.5-0.9,0.8-1.4s0.5-0.8,0.6-1c0.1-0.2,0.3-0.3,0.5-0.4c0.2-0.1,0.4-0.2,0.5-0.2
		c0.1,0,0.1,0,0.1,0.1c0,0,0,0.1,0,0.2c0,0.1-0.1,0.1-0.1,0.2c-0.3,0.4-0.5,0.8-0.8,1.3s-0.5,0.9-0.7,1.4c-0.2,0.4-0.4,0.9-0.5,1.2
		c-0.1,0.4-0.2,0.7-0.2,0.9c0,0.2,0.1,0.4,0.2,0.5c0.1,0.1,0.3,0.2,0.5,0.2c0.4,0,0.8-0.1,1.3-0.4s1-0.6,1.4-1
		c0.5-0.4,0.9-0.8,1.3-1.2c0.4-0.4,0.7-0.8,0.9-1.1c0.1-0.1,0.2-0.1,0.2-0.1C16,17.5,16,17.6,15.9,17.7z M14.6,11
		c0,0.2-0.1,0.5-0.3,0.7c-0.2,0.2-0.4,0.4-0.7,0.4c-0.2,0-0.4-0.1-0.4-0.4c0-0.3,0.1-0.5,0.3-0.8c0.2-0.2,0.4-0.4,0.7-0.4
		C14.5,10.6,14.6,10.8,14.6,11z"/>
	<path d="M20.7,15.6c0,0.4-0.2,0.8-0.5,1.2c-0.3,0.4-0.6,0.9-1,1.4c-0.4,0.4-0.8,0.9-1.3,1.3c-0.5,0.4-1,0.8-1.4,1.1
		c-0.5,0.3-0.9,0.6-1.3,0.8c-0.4,0.2-0.7,0.3-0.9,0.3l-0.5-0.5c0-0.1,0-0.1,0.1-0.1c0.5,0,0.8-0.2,1.1-0.5c0.3-0.3,0.5-0.9,0.7-1.8
		c0-0.2,0.1-0.5,0.1-0.7s0.1-0.5,0.1-0.8s0.1-0.5,0.1-0.7c0-0.2,0.1-0.3,0.1-0.4c0.1-0.2,0.1-0.4,0.1-0.4c0,0-0.1-0.1-0.3-0.1
		l-0.9,0.1c-0.2-0.1-0.2-0.1,0-0.2c0.4-0.1,0.9-0.1,1.4-0.2c0.5-0.1,1-0.2,1.3-0.3c0.1,0,0.1,0.1,0,0.1c-0.1,0.1-0.2,0.1-0.3,0.2
		c-0.1,0.1-0.2,0.2-0.2,0.3c-0.1,0.2-0.2,0.5-0.3,0.8c-0.1,0.3-0.1,0.6-0.2,0.9s-0.1,0.6-0.2,0.8c-0.1,0.2-0.1,0.4-0.1,0.5
		c-0.1,0.3-0.3,0.7-0.6,1c-0.3,0.3-0.6,0.6-0.8,0.8c-0.1,0.1-0.1,0.2,0,0.1c0.6-0.2,1.1-0.5,1.7-0.8s1-0.7,1.4-1.2
		c0.4-0.5,0.8-1,1-1.5c0.3-0.6,0.4-1.2,0.5-1.8c0.1-0.8-0.1-1.3-0.4-1.5c0,0-0.1,0,0-0.1c0,0,0.1,0,0.2,0c0.4,0,0.6,0.2,0.8,0.5
		C20.6,14.8,20.7,15.2,20.7,15.6z"/>
	<path d="M28.5,18.1c-0.3,0.4-0.7,0.9-1.2,1.3c-0.5,0.5-1,0.9-1.5,1.2c-0.6,0.4-1.1,0.7-1.7,0.9c-0.6,0.2-1.2,0.3-1.8,0.3
		c-0.9,0-1.4-0.4-1.4-1.3c0-0.6,0.1-1.2,0.4-1.8c0.3-0.6,0.7-1.2,1.1-1.8c0.5-0.5,1-1,1.5-1.4c0.5-0.4,1.1-0.6,1.6-0.6
		c0.3,0,0.5,0.1,0.6,0.1c0.1,0.1,0.2,0.2,0.2,0.4c0,0.2-0.1,0.5-0.2,0.8s-0.4,0.5-0.7,0.8c-0.3,0.2-0.7,0.5-1.1,0.6
		c-0.5,0.2-1,0.3-1.6,0.3c-0.1,0.2-0.2,0.5-0.3,0.9c-0.1,0.4-0.2,0.8-0.2,1.2c0,0.8,0.4,1.2,1.1,1.2c0.5,0,0.9-0.1,1.4-0.3
		c0.5-0.2,1-0.5,1.4-0.8s0.9-0.7,1.3-1.1c0.4-0.4,0.7-0.8,1-1.1c0,0,0.1,0,0.1,0C28.4,18,28.5,18,28.5,18.1z M25.3,15.7
		c0-0.3-0.1-0.4-0.4-0.4c-0.2,0-0.4,0.1-0.6,0.2c-0.2,0.2-0.4,0.3-0.6,0.6c-0.2,0.2-0.4,0.5-0.6,0.8c-0.2,0.3-0.3,0.6-0.4,0.8
		c0,0,0.1,0,0.2,0c0.1,0,0.2,0,0.2,0c0.6,0,1.1-0.2,1.5-0.6C25.1,16.8,25.3,16.3,25.3,15.7z"/>
</g>
</svg>
