<?xml version="1.0" encoding="utf-8"?>
<!-- Generator: Adobe Illustrator 22.1.0, SVG Export Plug-In . SVG Version: 6.00 Build 0)  -->
<svg version="1.1" id="Layer_1" xmlns="http://www.w3.org/2000/svg" xmlns:xlink="http://www.w3.org/1999/xlink" x="0px" y="0px"
	 viewBox="0 0 68.5 39.2" style="enable-background:new 0 0 68.5 39.2;" xml:space="preserve">
<g id="publication">
	<path d="M11.6,16.9c-1.1,1.3-2.2,2.3-3.4,3C7,20.6,5.7,21,4.4,21.3c-0.5,0.1-0.9,0.2-1.2,0.2c-0.3,0.1-0.7,0.1-1,0.2
		c-0.6,1-1.1,2-1.6,2.9c-0.5,1-1,1.9-1.6,2.9c-0.8,1.4-1.4,2.8-2.1,4c-0.6,1.3-1.3,2.5-2,3.8c-0.1,0.2-0.3,0.4-0.6,0.6
		c-0.2,0.1-0.5,0.2-0.8,0.3c-0.3,0.1-0.7,0.2-1.1,0.3C-8.1,36.6-8.5,36.8-9,37c-0.1,0.1-0.2,0-0.2,0c0-0.1,0-0.2,0.1-0.2
		c0.5-0.2,1-0.4,1.3-0.6c0.4-0.2,0.7-0.4,1-0.7c0.3-0.3,0.6-0.6,0.8-0.9c0.3-0.4,0.6-0.8,0.9-1.4c0.3-0.6,0.8-1.3,1.2-2.1
		c0.5-0.8,1-1.7,1.6-2.7c0.6-1,1.2-2.1,1.9-3.2c0.7-1.1,1.3-2.3,2-3.4c-0.1,0-0.2-0.1-0.2-0.3c0-0.1,0.1-0.2,0.2-0.2
		c0.1,0,0.2,0,0.3-0.1l1.4-2.2c0.6-1,1.3-2.1,1.9-3.2c0.6-1.1,1.3-2.1,2-3c0.1-0.1,0.2-0.1,0.3-0.2c0,0,0.1,0,0.2-0.1
		c0.1,0,0.2,0,0.4-0.1c0.1,0,0.2,0,0.3,0c0.1,0,0.2,0,0.2,0c0.1,0,0.1,0,0.1,0.1c0,0.1,0,0.1-0.1,0.2c-0.4,0.4-0.8,0.7-1.1,1.1
		c-0.3,0.4-0.6,0.7-0.9,1c-0.3,0.3-0.5,0.7-0.8,1c-0.2,0.3-0.5,0.7-0.8,1.1c0.2-0.2,0.4-0.4,0.7-0.7c0.2-0.2,0.5-0.5,0.7-0.7
		C6.8,15.3,7,15.1,7.3,15c0.2-0.1,0.5-0.2,0.7-0.2c0.2,0,0.4,0.1,0.5,0.2c0.1,0.1,0.2,0.3,0.2,0.6c0,0.2-0.1,0.5-0.3,0.9
		c-0.2,0.4-0.5,0.9-0.9,1.4c-0.4,0.5-1,1.1-1.6,1.6c-0.7,0.6-1.5,1.1-2.6,1.6c0.5-0.1,1.1-0.2,1.8-0.3c0.7-0.1,1.4-0.3,2.1-0.7
		c0.7-0.3,1.4-0.7,2.2-1.3c0.7-0.5,1.4-1.2,2-2.1c0,0,0.1-0.1,0.1,0C11.6,16.8,11.6,16.8,11.6,16.9z M7.4,16.1c0-0.1,0-0.2,0-0.3
		c0-0.1-0.1-0.2-0.3-0.2c-0.1,0-0.2,0.1-0.4,0.2c-0.2,0.1-0.4,0.3-0.6,0.5c-0.2,0.2-0.5,0.4-0.8,0.7c-0.3,0.3-0.5,0.6-0.8,0.9
		c-0.3,0.5-0.7,1-1,1.5c-0.3,0.6-0.6,1.1-1,1.7c0.7-0.2,1.3-0.5,1.9-0.9s1.1-0.9,1.6-1.4c0.5-0.5,0.8-1,1.1-1.5
		C7.3,16.9,7.4,16.5,7.4,16.1z"/>
	<path d="M18.6,18c-0.3,0.5-0.7,1-1.2,1.5c-0.5,0.5-0.9,1-1.4,1.5c-0.5,0.4-1,0.8-1.5,1.1c-0.5,0.3-1,0.4-1.5,0.4
		c-0.3,0-0.6-0.1-0.8-0.3c-0.2-0.2-0.3-0.5-0.3-0.8c0-0.2,0-0.4,0.1-0.6c0-0.2,0.1-0.5,0.3-0.8c-0.1,0.1-0.3,0.3-0.4,0.5
		c-0.1,0.2-0.3,0.4-0.5,0.5c-0.2,0.2-0.4,0.3-0.6,0.4s-0.5,0.2-0.8,0.2c-0.2,0-0.4-0.1-0.5-0.2c-0.1-0.1-0.2-0.3-0.2-0.6
		c0-0.2,0-0.4,0.1-0.6c0.1-0.2,0.2-0.6,0.4-1c0.2-0.4,0.5-0.9,0.8-1.5s0.8-1.4,1.3-2.3c0.1-0.2,0.2-0.3,0.3-0.3
		c0.1,0,0.3,0.1,0.4,0.3s0.2,0.3,0.2,0.3s-0.1,0.2-0.2,0.4c-0.3,0.5-0.6,1-0.9,1.4c-0.3,0.5-0.5,0.9-0.7,1.3
		c-0.2,0.4-0.4,0.8-0.5,1.1c-0.1,0.3-0.2,0.6-0.2,0.8c0,0.3,0.1,0.5,0.3,0.5c0.2,0,0.5-0.2,0.8-0.5c0.3-0.3,0.8-0.8,1.2-1.6
		c0.2-0.3,0.4-0.7,0.6-1c0.2-0.4,0.4-0.7,0.6-1c0.2-0.3,0.3-0.6,0.5-0.9c0.2-0.3,0.3-0.5,0.4-0.6c0.1-0.1,0.2-0.2,0.2-0.2
		c0.1,0,0.2,0.1,0.3,0.3c0.1,0.2,0.2,0.4,0.2,0.6c0,0.2,0,0.3-0.1,0.5c-0.2,0.4-0.5,0.7-0.8,1.1c-0.3,0.4-0.5,0.7-0.8,1.1
		c-0.2,0.4-0.4,0.8-0.6,1.2c-0.2,0.4-0.2,0.9-0.2,1.4c0,0.4,0.2,0.7,0.6,0.7c0.3,0,0.6-0.1,1-0.3s0.8-0.5,1.3-0.9
		c0.5-0.4,0.9-0.8,1.4-1.4c0.5-0.5,1-1.1,1.4-1.8C18.6,17.8,18.6,17.9,18.6,18z"/>
	<path d="M33.4,2.3c0,0.3,0,0.5,0,0.6c0,0.1-0.1,0.1-0.1,0.1c-0.1-0.1-0.2-0.2-0.4-0.3c-0.2-0.1-0.5-0.2-0.9-0.2c-0.4,0-0.7,0-1,0.1
		S30.4,2.6,30,2.8s-0.6,0.3-1,0.5c-0.3,0.2-0.7,0.5-1.1,0.9c-0.6,0.5-1.3,1.2-2,2.2c-0.7,1-1.4,2-2.1,3.2s-1.4,2.3-2,3.5
		c-0.6,1.2-1.2,2.3-1.7,3.2c-0.2,0.3-0.3,0.7-0.5,1.1c-0.2,0.4-0.4,0.9-0.5,1.3c-0.1,0.4-0.3,0.8-0.4,1.2c-0.1,0.4-0.1,0.6-0.1,0.8
		c0,0.5,0.2,0.8,0.5,0.8c0.2,0,0.5-0.1,0.8-0.3c0.3-0.2,0.5-0.5,0.8-0.9s0.5-0.9,0.7-1.4c0.2-0.6,0.3-1.2,0.3-1.9c0-0.2,0-0.4,0-0.6
		s-0.1-0.3-0.1-0.4c0-0.1,0.1-0.2,0.2-0.4c0.1-0.1,0.2-0.2,0.3-0.3c0.1-0.1,0.2-0.2,0.3-0.3c0.1,0,0.1,0,0.1,0.1
		c0,0.4,0.1,0.7,0.2,1c0.2,0.3,0.3,0.5,0.6,0.7c0.2,0.2,0.5,0.3,0.8,0.4s0.5,0.1,0.8,0.1c0.3,0,0.7-0.1,1.1-0.2
		c0.4-0.1,0.8-0.3,1.2-0.6c0.1-0.1,0.2-0.1,0.2,0c0,0.1,0,0.1-0.1,0.2c-0.6,0.3-1.2,0.6-1.8,0.8c-0.5,0.2-1,0.2-1.5,0.2
		c-0.4,0-0.7-0.1-1-0.3c-0.3-0.2-0.5-0.4-0.7-0.6c0,0.8-0.1,1.5-0.4,2.1c-0.3,0.6-0.6,1.1-0.9,1.6s-0.8,0.8-1.2,1
		c-0.4,0.2-0.8,0.4-1.1,0.4c-0.3,0-0.6-0.1-0.8-0.3s-0.3-0.5-0.3-0.9c0-0.3,0.1-0.7,0.2-1.2c0.1-0.5,0.3-0.9,0.5-1.4
		c0.2-0.5,0.4-0.9,0.6-1.4c0.2-0.4,0.4-0.8,0.5-1c0.5-1,1.1-2,1.7-3.1c0.6-1,1.3-2.1,2-3.1s1.4-2,2.2-3c0.8-0.9,1.6-1.8,2.4-2.6
		c0.2-0.2,0.5-0.5,0.9-0.8s0.8-0.6,1.2-0.9s0.8-0.5,1.3-0.7c0.4-0.2,0.8-0.3,1.2-0.3c0.4,0,0.6,0.1,0.8,0.3
		C33.3,1.8,33.4,2.1,33.4,2.3z"/>
	<path d="M39,2.1c0,0.3-0.1,0.7-0.3,1.2s-0.5,1.2-0.9,1.9c-0.4,0.7-0.9,1.5-1.5,2.3c-0.6,0.8-1.3,1.6-2,2.4s-1.6,1.6-2.5,2.3
		c-0.9,0.7-1.9,1.4-2.9,1.9c-0.2,0.3-0.4,0.8-0.8,1.3c-0.3,0.5-0.6,1.1-0.9,1.7c-0.3,0.6-0.6,1.2-0.8,1.8S26,19.9,26,20.3
		c0,0.6,0.3,1,0.9,1c0.5,0,1-0.1,1.6-0.4c0.5-0.3,1.1-0.6,1.5-1c0.5-0.4,0.9-0.8,1.4-1.3c0.4-0.5,0.8-0.9,1.1-1.2
		c0.1-0.1,0.2-0.2,0.2-0.1c0,0.1,0,0.1-0.1,0.2c-0.4,0.4-0.8,0.9-1.3,1.4c-0.5,0.5-1,1-1.6,1.4c-0.6,0.4-1.1,0.8-1.7,1.1
		c-0.6,0.3-1.2,0.4-1.8,0.4c-0.5,0-0.9-0.1-1.1-0.4s-0.3-0.6-0.3-0.9s0.2-0.9,0.5-1.5c0.3-0.7,0.7-1.4,1.1-2.1
		c0.4-0.7,0.8-1.4,1.3-2.1c0.4-0.7,0.7-1.2,0.9-1.5c0.3-0.6,0.7-1.2,1.1-1.8c0.4-0.6,0.7-1.2,1.1-1.8c0.4-0.6,0.7-1.2,1-1.7
		c0.3-0.5,0.6-1,0.9-1.5c0.3-0.5,0.7-1,1-1.5c0.4-0.5,0.8-0.9,1.4-1.4c0.8-0.6,1.5-1.1,2.1-1.5c0.6-0.3,1.1-0.5,1.3-0.5
		c0.2,0,0.3,0,0.4,0.1C39,1.8,39,1.9,39,2.1z M37.7,2.9c0-0.3-0.1-0.5-0.4-0.5c-0.1,0-0.2,0-0.3,0.1s-0.3,0.2-0.5,0.4
		c-0.2,0.2-0.4,0.5-0.7,0.8c-0.3,0.3-0.6,0.8-1,1.3c-0.2,0.2-0.4,0.5-0.7,1c-0.3,0.4-0.7,1-1.1,1.7s-1,1.5-1.6,2.6
		c-0.6,1-1.4,2.2-2.2,3.6c1.2-0.7,2.3-1.5,3.4-2.5c1-1,2-2,2.7-3c0.8-1,1.4-2,1.8-3C37.5,4.3,37.7,3.5,37.7,2.9z"/>
	<path d="M37.9,17.7c-0.5,0.6-1,1.2-1.7,1.8c-0.6,0.6-1.2,1-1.7,1.4c-0.4,0.3-0.8,0.5-1.2,0.6c-0.4,0.1-0.8,0.2-1.1,0.2
		c-0.1,0-0.3,0-0.4,0s-0.3-0.1-0.4-0.2c-0.1-0.1-0.2-0.2-0.3-0.3c-0.1-0.1-0.1-0.3-0.1-0.5c0-0.3,0.1-0.6,0.3-1.1
		c0.2-0.5,0.4-0.9,0.7-1.4c0.3-0.5,0.5-0.9,0.8-1.4s0.5-0.8,0.6-1c0.1-0.2,0.3-0.3,0.5-0.4c0.2-0.1,0.4-0.2,0.5-0.2
		c0.1,0,0.1,0,0.1,0.1c0,0,0,0.1,0,0.2c0,0.1-0.1,0.1-0.1,0.2c-0.3,0.4-0.5,0.8-0.8,1.3s-0.5,0.9-0.7,1.4c-0.2,0.4-0.4,0.9-0.5,1.2
		C32.1,20,32,20.3,32,20.5c0,0.2,0.1,0.4,0.2,0.5c0.1,0.1,0.3,0.2,0.5,0.2c0.4,0,0.8-0.1,1.3-0.4s1-0.6,1.4-1
		c0.5-0.4,0.9-0.8,1.3-1.2c0.4-0.4,0.7-0.8,0.9-1.1c0.1-0.1,0.2-0.1,0.2-0.1C37.9,17.5,37.9,17.6,37.9,17.7z M36.5,11
		c0,0.2-0.1,0.5-0.3,0.7c-0.2,0.2-0.4,0.4-0.7,0.4c-0.2,0-0.4-0.1-0.4-0.4c0-0.3,0.1-0.5,0.3-0.8c0.2-0.2,0.4-0.4,0.7-0.4
		C36.4,10.6,36.5,10.8,36.5,11z"/>
	<path d="M44.2,17.6c-0.3,0.4-0.6,0.8-1,1.2c-0.4,0.4-0.8,0.8-1.2,1.1c-0.4,0.4-0.8,0.7-1.2,0.9c-0.4,0.3-0.8,0.5-1.2,0.7
		c-0.3,0.1-0.6,0.2-0.8,0.3c-0.3,0-0.5,0.1-0.7,0.1c-1.1,0-1.6-0.5-1.6-1.4c0-0.4,0.1-0.7,0.2-1.1c0.4-0.9,0.9-1.8,1.6-2.5
		c0.7-0.7,1.4-1.3,2.2-1.6c0.2-0.1,0.4-0.1,0.6-0.1c0.7,0,1.1,0.3,1.1,0.9c0,0.3-0.1,0.5-0.2,0.7c-0.1,0.1-0.3,0.3-0.6,0.5l-0.1,0
		c0.1-0.2,0.1-0.3,0.1-0.5c0-0.2-0.1-0.4-0.2-0.6c-0.1-0.2-0.4-0.3-0.7-0.3c-0.4,0-0.7,0.1-1.1,0.4c-0.4,0.3-0.7,0.6-0.9,1
		c-0.3,0.4-0.5,0.9-0.6,1.4s-0.2,1.1-0.2,1.6c0,0.4,0.1,0.7,0.3,0.9s0.5,0.3,0.9,0.3c0.6,0,1.3-0.3,2.3-1c0.9-0.6,2-1.6,3-3
		c0.1-0.1,0.2-0.1,0.2-0.1C44.3,17.4,44.3,17.5,44.2,17.6z"/>
	<path d="M53.1,17.5c-0.5,0.6-1,1.1-1.5,1.7c-0.6,0.6-1.1,1.1-1.7,1.5c-0.6,0.5-1.1,0.8-1.7,1.1c-0.6,0.3-1.1,0.4-1.5,0.4
		c-0.4,0-0.7-0.1-0.8-0.3c-0.2-0.2-0.2-0.4-0.2-0.8c0-0.3,0.1-0.7,0.3-1.1c0.2-0.5,0.4-1,0.8-1.5c-0.3,0.3-0.6,0.7-0.9,1.1
		c-0.3,0.4-0.7,0.7-1.1,1c-0.4,0.3-0.7,0.6-1.1,0.8c-0.4,0.2-0.7,0.3-1,0.3c-0.4,0-0.6-0.2-0.6-0.6c0-0.5,0.2-1,0.5-1.7
		c0.4-0.7,0.8-1.4,1.5-2c0.6-0.6,1.3-1.2,2.1-1.7c0.8-0.5,1.6-0.7,2.4-0.7c0.1-0.2,0.2-0.3,0.3-0.4c0.1-0.1,0.2-0.1,0.2-0.2l0.8-0.2
		l0.1,0c-0.1,0.1-0.2,0.2-0.3,0.4c-0.1,0.2-0.2,0.3-0.3,0.5c0.1,0,0.2,0,0.4,0c0.2,0,0.4,0,0.5,0.1c0.1,0,0.1,0.1,0.1,0.1
		s0,0.1-0.1,0.1c-0.1,0-0.3-0.1-0.5-0.1c-0.2,0-0.4,0-0.5,0c-0.9,1.6-1.6,2.9-2,3.9c-0.4,1-0.6,1.7-0.6,2.1c0,0.2,0,0.3,0.1,0.5
		c0.1,0.1,0.3,0.2,0.6,0.2c0.3,0,0.7-0.1,1.1-0.3c0.4-0.2,0.9-0.5,1.4-1c0.5-0.4,1-0.9,1.5-1.4c0.5-0.5,1-1.1,1.5-1.7
		c0-0.1,0.1-0.1,0.1,0C53.1,17.4,53.1,17.5,53.1,17.5z M48.4,15.2c-0.7,0-1.3,0.2-1.9,0.7c-0.6,0.5-1.2,1-1.7,1.7
		c-0.5,0.7-0.9,1.3-1.2,1.9c-0.3,0.6-0.4,1.1-0.4,1.4c0,0.2,0.1,0.2,0.2,0.2s0.3-0.1,0.6-0.2s0.5-0.4,0.9-0.6s0.6-0.6,1-0.9
		c0.3-0.4,0.6-0.8,0.9-1.2c0.3-0.5,0.6-1,0.9-1.5C47.9,16.2,48.2,15.7,48.4,15.2L48.4,15.2z"/>
	<path d="M58.3,10.7c-0.2,0-0.3,0.1-0.5,0.2c-0.2,0.1-0.4,0.2-0.4,0.4c-0.5,0.6-0.9,1.3-1.3,2c-0.4,0.7-0.8,1.4-1.2,2.1h3.7
		c0.1,0,0.1,0.1,0.1,0.1s0,0.1-0.1,0.1c-0.2,0-0.4,0-0.7,0c-0.3,0-0.7,0-1,0c-0.4,0-0.8,0-1.2,0.1c-0.4,0-0.8,0-1.1,0.1
		c-0.6,1-1,1.9-1.3,2.5c-0.3,0.7-0.4,1.3-0.4,1.8c0,0.7,0.3,1.1,1,1.1c0.3,0,0.7-0.1,1.1-0.3c0.4-0.2,0.8-0.4,1.3-0.7
		c0.1-0.1,0.1-0.1,0.2,0c0.1,0.1,0,0.1-0.1,0.2c-0.7,0.4-1.3,0.8-1.9,1s-1.2,0.3-1.8,0.3c-0.3,0-0.6-0.1-0.8-0.3
		c-0.2-0.2-0.4-0.5-0.4-1c0-0.4,0.2-1,0.5-1.8c0.4-0.8,0.9-1.7,1.6-2.9c-0.2,0-0.5,0-0.9,0.1c-0.4,0-0.6,0-0.6,0
		c-0.1,0-0.1,0-0.1-0.1c0.1-0.1,0.2-0.3,0.4-0.4l1.5,0c0.2-0.3,0.4-0.6,0.6-1c0.2-0.4,0.4-0.7,0.7-1.1c0.2-0.4,0.4-0.7,0.7-1.1
		c0.2-0.4,0.4-0.7,0.6-1c0.2-0.1,0.5-0.2,0.9-0.4c0.4-0.2,0.7-0.3,1-0.4c0,0,0.1,0,0.1,0.1C58.4,10.6,58.4,10.6,58.3,10.7z"/>
	<path d="M64.2,17.7c-0.5,0.6-1,1.2-1.7,1.8c-0.6,0.6-1.2,1-1.7,1.4c-0.4,0.3-0.8,0.5-1.2,0.6c-0.4,0.1-0.8,0.2-1.1,0.2
		c-0.1,0-0.3,0-0.4,0s-0.3-0.1-0.4-0.2c-0.1-0.1-0.2-0.2-0.3-0.3c-0.1-0.1-0.1-0.3-0.1-0.5c0-0.3,0.1-0.6,0.3-1.1
		c0.2-0.5,0.4-0.9,0.7-1.4c0.3-0.5,0.5-0.9,0.8-1.4s0.5-0.8,0.6-1c0.1-0.2,0.3-0.3,0.5-0.4c0.2-0.1,0.4-0.2,0.5-0.2
		c0.1,0,0.1,0,0.1,0.1c0,0,0,0.1,0,0.2c0,0.1-0.1,0.1-0.1,0.2c-0.3,0.4-0.5,0.8-0.8,1.3s-0.5,0.9-0.7,1.4c-0.2,0.4-0.4,0.9-0.5,1.2
		c-0.1,0.4-0.2,0.7-0.2,0.9c0,0.2,0.1,0.4,0.2,0.5c0.1,0.1,0.3,0.2,0.5,0.2c0.4,0,0.8-0.1,1.3-0.4s1-0.6,1.4-1
		c0.5-0.4,0.9-0.8,1.3-1.2c0.4-0.4,0.7-0.8,0.9-1.1c0.1-0.1,0.2-0.1,0.2-0.1C64.3,17.5,64.2,17.6,64.2,17.7z M62.9,11
		c0,0.2-0.1,0.5-0.3,0.7c-0.2,0.2-0.4,0.4-0.7,0.4c-0.2,0-0.4-0.1-0.4-0.4c0-0.3,0.1-0.5,0.3-0.8c0.2-0.2,0.4-0.4,0.7-0.4
		C62.7,10.6,62.9,10.8,62.9,11z"/>
	<path d="M72.6,16.5c-0.3,0.5-0.8,0.9-1.2,1.2c-0.5,0.4-1,0.6-1.7,0.6c-0.3,0-0.7-0.1-1-0.3c-0.3-0.2-0.6-0.4-0.8-0.8
		c-0.1,0.3-0.3,0.7-0.5,1.1c-0.2,0.4-0.5,0.8-0.8,1.2c-0.3,0.4-0.6,0.8-1,1.1c-0.4,0.3-0.8,0.6-1.2,0.8c-0.4,0.2-0.7,0.2-0.9,0.2
		c-0.7,0-1.1-0.3-1.1-1c0-0.4,0.1-0.7,0.2-1.1s0.3-0.8,0.5-1.1c0.2-0.4,0.4-0.7,0.6-1c0.2-0.3,0.4-0.6,0.6-0.8
		c0.4-0.5,0.9-0.8,1.4-1.2c0.5-0.3,1.1-0.5,1.7-0.6c0-0.2,0.1-0.3,0.2-0.6s0.2-0.3,0.4-0.4c0.1,0,0.2,0,0.3-0.1c0.1,0,0.2,0,0.3-0.1
		c0.1,0,0.1,0,0.2,0c0.1,0,0.1,0.1,0,0.2c-0.1,0.2-0.2,0.5-0.3,0.8c-0.1,0.3-0.1,0.7-0.1,1.1c0,0.6,0.1,1,0.3,1.4
		c0.2,0.4,0.6,0.5,1.1,0.5s1-0.2,1.4-0.5c0.4-0.3,0.8-0.7,1.1-1.1c0-0.1,0.1-0.1,0.2-0.1S72.7,16.5,72.6,16.5z M67.7,16.7
		c0-0.2-0.1-0.4-0.1-0.6c0-0.2,0-0.5,0-0.7c0-0.1,0-0.1-0.1-0.1c-0.2,0-0.5,0.1-0.7,0.2c-0.2,0.1-0.5,0.4-0.7,0.6
		c-0.2,0.3-0.5,0.5-0.7,0.9c-0.2,0.3-0.5,0.7-0.7,1c-0.3,0.4-0.5,0.9-0.7,1.4c-0.2,0.5-0.3,1-0.3,1.5c0,0.1,0,0.3,0.1,0.4
		c0,0.1,0.2,0.2,0.3,0.2c0.3,0,0.7-0.2,1.1-0.6c0.4-0.4,0.8-0.8,1.1-1.3c0.4-0.5,0.7-1,0.9-1.5S67.6,17,67.7,16.7z"/>
	<path d="M79.6,17.8c-0.4,0.5-0.8,1-1.2,1.5c-0.5,0.5-1,1-1.5,1.4c-0.5,0.4-1.1,0.7-1.6,1c-0.6,0.3-1.1,0.4-1.6,0.4
		c-0.2,0-0.5,0-0.7-0.1c-0.2-0.1-0.3-0.2-0.3-0.5c0-0.3,0.1-0.6,0.3-1.1c0.2-0.4,0.4-0.9,0.7-1.4s0.5-1,0.8-1.5
		c0.3-0.5,0.5-1,0.7-1.4c0-0.1,0-0.2,0-0.3c0-0.1-0.1-0.1-0.2,0c-0.2,0.1-0.5,0.3-0.8,0.6c-0.3,0.2-0.6,0.5-0.9,0.8
		s-0.6,0.5-0.9,0.8c-0.3,0.3-0.5,0.5-0.7,0.8c-0.3,0.5-0.6,1-0.8,1.4c-0.2,0.4-0.5,0.9-0.9,1.4c-0.1,0.1-0.1,0.2-0.2,0.2
		c-0.1,0-0.2-0.1-0.3-0.3c-0.1-0.2-0.1-0.4-0.1-0.4c0-0.2,0.1-0.4,0.4-0.7c0.2-0.3,0.5-0.7,0.8-1c0.3-0.6,0.6-1.3,1-2
		c0.3-0.7,0.6-1.3,0.9-1.9c0.1-0.1,0.1-0.1,0.3-0.1c0.1,0,0.2,0,0.3,0.1c0.1,0.1,0.1,0.2,0.1,0.3c0,0.1-0.1,0.4-0.4,0.8
		c-0.3,0.5-0.6,1-0.9,1.6c0.4-0.3,0.8-0.7,1.2-1.1c0.4-0.4,0.9-0.7,1.3-1.1c0.4-0.3,0.8-0.6,1.1-0.8s0.5-0.3,0.6-0.3
		c0.1,0,0.2,0,0.2,0.1c0.1,0.1,0.1,0.2,0.1,0.3c0,0.1-0.1,0.2-0.1,0.4c-0.2,0.3-0.5,0.7-0.8,1.2c-0.3,0.5-0.6,1-0.9,1.5
		c-0.3,0.5-0.5,1-0.7,1.5c-0.2,0.5-0.3,0.9-0.3,1.1c0,0.2,0,0.4,0.2,0.5c0.1,0.1,0.3,0.1,0.5,0.1c0.3,0,0.7-0.1,1.2-0.4
		c0.5-0.3,0.9-0.6,1.4-1c0.5-0.4,1-0.8,1.4-1.3c0.4-0.5,0.8-0.9,1.1-1.4c0-0.1,0.1-0.1,0.2,0C79.7,17.6,79.7,17.6,79.6,17.8z"/>
</g>
</svg>
