<?xml version="1.0" encoding="utf-8"?>
<!-- Generator: Adobe Illustrator 24.3.0, SVG Export Plug-In . SVG Version: 6.00 Build 0)  -->
<svg version="1.1" id="Layer_1" xmlns="http://www.w3.org/2000/svg" xmlns:xlink="http://www.w3.org/1999/xlink" x="0px" y="0px"
	 viewBox="0 0 1571.1 1206.3" enable-background="new 0 0 1571.1 1206.3" xml:space="preserve">
<path id="layer_one" fill="#FF0000" d="M1565,303c-1.3-9-2.7-18-4-27c-7-22.1-14.1-48.4-26-67c-49.5-77.1-134.8-126-256-124
	c0-20.3,0-40.7,0-61c0-10.7,1.9-19.8-6-23c-129.7-0.3-259.3-0.7-389-1c-18,19-36,38-54,57c-4.8-1.5-21.1-17.7-24-22
	c-30.2-1.4-68.5,1.5-96,7c-12.7,0-25.3,0-38,0c-13.7,3.7-31.6,4.4-45,8c-8.7,0-17.3,0-26,0c-18,3.5-37.5,1.6-54,6
	c-14.3,0.3-28.7,0.7-43,1c-8.2,2.2-20,4.4-28,6c-12.6,2.6-34.1-4.5-43,2c-8.8,0.8-17.3,19.5-22,26c-9.3,9-18.7,18-28,27
	c-3.6,6.2-0.3,15.4-2,24c-4,20.5-6,46.6-6,70c0,8.4-3.1,21.2,0,27c5.3,9.7,49.8,11.7,62,18c0.7,0,1.3,0,2,0c-0.5,7.6-4.6,16-7,22
	c-0.7,6-1.3,12-2,18c-6.3,13.9-15.1,26.1-23,38c-3.6,5.4-5.8,13.3-11,17c-6.9,4.8-15.3,6-23,10c-20.1,10.5-40,20.7-62,30
	c-12.3,5.2-26.1,15.4-38,21c-53.9,25.3-106.1,49.9-158,76c-17.8,8.9-35.2,13.5-53,23c-1.9,1-22.1,29.9-25,34
	c-7.7,7.3-15.3,14.7-23,22c-6.2,12.4-2.7,26.3-6,42c-3.8,18.1-8.2,33.8-8,58c15.7,15.5,38.1,23.7,57,36c46.1,29.9,94.5,56.8,141,87
	c19.5,12.7,39.8,24.3,60,37c6.8,4.3,13.5,11.5,22,14c-6.3,17.8-8.4,34.1-15,51c0,3.7,0,7.3,0,11c-13.3,39.8-23.4,87-38,129
	c-5.6,15.9-11.6,64.6-20,74c0.6,7.5,3.6,5.9,7,10c117,0.3,234,0.7,351,1c56.3-0.3,112.7-0.7,169-1c49.7,29.3,99.3,58.7,149,88
	c18.4,5.8,27-9.4,34-16c10.3-9.8,21.7-18.3,33-27c7.6-5.9,13.4-15.1,21-21c9.1-7,20.4-13.5,27-23c56-1.7,104.9,1.8,152-12
	c5.7-0.7,11.3-1.3,17-2c24.5-8.2,50.5-15.7,74-26c93.4-40.9,171.1-124.4,212-218c20.7-47.3,36.3-99.2,54-148
	c10.8-29.6,12.3-54.8,36-72c4.1-50.1,8.6-103.5,21-147c4.4-15.6,2-33.5,6-48c0.3-15,0.7-30,1-45C1571,365.9,1572.6,329.7,1565,303z
	 M1533,582c-5.4,20.2,4.5,36.9-6,52c-4.3,6.2-11.7,10.5-18,15c-11.9,8.4-20.6,21.2-33,30c-8,8-16,16-24,24
	c-34.4,24.4-61.6,56.7-96,81c-8,8-16,16-24,24c-10.5,7.4-19.9,15.2-30,23c-4.7,5-9.3,10-14,15c-17.5,12.4-30.8,29.9-48,42
	c-14.5,10.2-26.2,22.3-40,33c-3,3.3-6,6.7-9,10c-49.8,35.2-89.2,82.6-139,118c-8.3,8.3-16.7,16.7-25,25c-33.5,23.8-60.4,55.1-94,79
	c-14.1,10-24,30.4-42,36c-5.5,1.3-11.4-5.7-16-8c-17-8.6-31.4-17.6-47-27c-41.3-24.8-84.4-45.8-125-72c-15.3-9.9-32-17.7-48-28
	c-2.8-1.8-5.3-5.9-9-7c-9.4-2.9-18,2-26,2c-6.7-0.7-13.3-1.3-20-2c-23.8-0.1-60.1,5.4-74-2c-1.5-25.5,2.3-58,7-82
	c0-11.7,0-23.3,0-35c4.1-15,4-36.1,8-51c0-12.3,0-24.7,0-37c3-14.4,3.9-32.2,7-48c0-11,0-22,0-33c4.4-15.9,6.2-36,6-56
	c-2.5-2.5-3.2-4.6-7-6c-49-0.3-98-0.7-147-1c-11.7,0-37.5-3.7-45,2c-6.9-0.1-9.3,0.7-13,3c0.5,37,14.4,67.8,14,104
	c-9.7,10.2-26.4,34.9-40,39c-2.2,1.7-14.9-5.9-18-8c-17.8-12.2-36.8-23.2-56-34c-77.7-43.6-150.1-98.3-228-142
	c-1.1-26.4,11.4-52,11-81c11.3-11.3,22.7-22.7,34-34c5.7-8.1,11-19.3,20-24c13.3-6.9,25.5-9.2,39-16c17.6-8.9,35.6-18.5,55-27
	c46.1-20.3,91.8-48.4,138-69c14.3-6.4,27.3-11,41-18c4.7-3,9.3-6,14-9c13.6-5.7,27.3-9,39-17c7.9-5.4,10.7-14.8,16-23
	c10.5-16.2,23.8-33.1,33-50c5.6-10.3,10.5-23.6,19-31c0.2-8.4-1-10.6-4-15c-13-0.2-21.7-3.4-30-6c-17.2-5.4-34.6-2.2-49-10
	c-7.3-7.1,0.1-37.9,2-48c2.9-15.5-2.4-37.1,2-51c2.1-6.8,11.3-12.3,16-17c10.7-10.7,21.3-22.3,30-35c8.7-0.6,21.2-2.9,29-5
	c11.3,0,22.7,0,34,0c12.2-0.5,29.8-3,41-6c7.7,0,15.3,0,23,0c14.8-2.9,31-2.7,43-6c15-0.3,30-0.7,45-1c16.7-4.5,39.2-3.5,56-8
	c11,0,22,0,33,0c14.7-3,31.2-6.2,49-6c11,10.1,22,19.9,33,30c2.3,0,4.7,0,7,0c21.5-22,41.9-44.6,65-65c91,0.3,182,0.7,273,1
	c20.1,0,82.6-3.8,94,3c-0.3,36-0.7,72-1,108c-3,7.1-13.1,7.8-19,12c-13.6,9.6-21.5,31.2-37,38c-10,4.4-26,1.8-34,8
	c-7.9-0.2-12.7,0.3-17,3c0.5,14.3,15.4,18.4,23,26c22.8,22.7,53.7,49.3,80,68c3.3,3.7,6.7,7.3,10,11c20.5,15.8,38,34.1,59,49
	c9,9,18,18,27,27c22.4,15.9,40.4,35.3,62,52c6,6.3,12,12.7,18,19c37.6,26.6,68.3,60.5,103,90C1539,547.3,1537.3,565.8,1533,582z
	 M1247,329c-10.2-9.4-20.1-20.5-31-29c-2.9-2.3-7.4-3.4-10-6c-31.2-31-69.1-67.5-105-93c-16.3-11.6-28.4-30.6-45-42
	c1.8-15.7,14.1-24.7,16-39c37.3-8.1,77.6-12.7,112-23c9.6-2.9,19.7,0.7,27-4c3.7-1.6,3.7,3.1,6,0.4c0-7,0-20.4,0-27.4
	c-2.3-5-12.5-4.2-20-4c-17.7,0.3-35.3,0.7-53,1c-76-0.3-152-0.7-228-1c-25.6,18-57,47.5-75,73c-3.9,5.6-10.3,9-16,13
	c-4.3,3-5.8,7.8-9,12c-2,1-4,2-6,3c-5.7,4.1-10.1,10.9-15,16c0.4,14.7,15,21.6,24,28c11.3,11.7,22.7,23.3,34,35
	c6.3,5.7,12.7,11.3,19,17c11.9,15.3,28.4,26.4,42,40c22.5,22.5,43.8,48.4,70,67c22,22,44,44,66,66c14.1,10,25,23,37,35
	c6.7,6.7,13.3,13.3,20,20c17.4-0.7,24.7-22,36-30c43-30.4,72.7-76.9,116-107c0-4.3,0-8.7,0-13C1255,334.3,1251,331.7,1247,329z
	 M1015,91.4c-10.8,1.9-28.3,0.3-40,0c-21.4-0.6-40.1,2.2-59,0c2.8-4,6.4-12.3,10-15.4c63.7,0.3,127.3,0.7,191,1
	c24.3-0.3,48.7-0.7,73-1c3.7,0,7.3,0,11,0c-4.7,5.9-16.5,2.6-25,5c-19.1,5.3-38.1,6.3-59,10.4c-20.9,4.1-40.4-4.5-64,0
	C1043.5,93.2,1027.4,89.3,1015,91.4z M829,376c-17-17-34-34-51-51c-5.8-5.8-12.3-17.9-20-21c-1.7-1-4.9-1.1-8-1
	c-10.1,14.6-26.5,24-37,38c-9.7,13-24.6,27.8-38,37c0.1,6,0.9,6.7,3,10c24.3,0.1,46.4,3,67,7c11,0,22,0,33,0c4.6,1.2,14.5,3.8,19,5
	c10.8,2.9,28.1-2.9,36,3c7.9,0.2,12.7-0.3,17-3C849.1,388.3,835.6,382.6,829,376z M816,386c-14.1-3.8-36.3,1-51-3
	c-17.3-4.7-41.1-8.2-62-8c7-7,14-14,21-21c10-10,19.1-20.9,29-31c15.6,8.4,32.3,31.3,45,44c5,5,14.2,10.1,17,17c0.3,0,0.7,0,1,0
	C816,384.7,816,385.3,816,386z M1446,510c-11.3-11.3-22.7-22.7-34-34c-32.4-22.9-61-52.4-89-80c-13.2-13-31.2-21.6-42-37
	c-15.2,0.4-34.7,27.7-44,37c-20.5,20.5-42.5,39.5-63,60c-14.2,14.2-27.4,31.5-44,43c0.1,18.1,33.9,44.4,46,53c10,10,20,20,30,30
	c17.8,17.2,35.9,34.2,54,51c9.4,8.7,26,17.7,31,30c0.7,0.7,0.1,0,0,1c-2.9,7-13.2,12.5-19,17c-20,15.5-37,35.1-58,50
	c-13.4,9.5-23.7,24.6-37,34c-34.1,24.2-62.3,55.8-95,81c-11.9,9.1-23.2,17.7-35,27c-5.1,4-8.6,11.2-14,15c-7.7,5.5-17.4,10.5-23,18
	c-13.8-1.1-36.4-28.8-47-37c-9.9-7.6-48.3-36.6-52-46c-0.4-1,3.4-54.3,5-60c0.3-8.3,0.7-16.7,1-25c10-33.8,4.9-85.1,12-121
	c0-12.3,0-24.7,0-37c5.6-19.1,2.2-48.1,8-69c3.4-12.2-0.8-39.6,4-49c0.2-12,0.5-23.3-4-30c-75,0-150,0-225,0c-34.1,0-81,4.5-104-7
	c-10-26.5,28.5-63.5,40-82c13.4-21.6,30.2-41.3,44-62c21.8-32.7,41.5-64.9,64-97c10.4-14.9,46.4-53.6,46-74c-5.3-5.1-13-14.3-20-17
	c-3-1.7-10.4-1.2-15-1c-3.4,1.8-9.4-0.2-14,1c-13.3,3.6-31,2.9-47,6c-8.7,0-17.3,0-26,0c-24.3,6.5-64,4.2-89,11
	c-13.8,3.8-32-0.2-44,3c-7,0-14,0-21,0c-10.9,2.1-23.4,3.4-33,6c-3.7,0.3-7.3,0.7-11,1c-2.6,1-2.9,1.7-5,3c-0.3,2.2-0.3,2.9-1,4
	c-0.5,23.6,17.6,19.9,36,24c15.9,3.5,64.5,12.5,74,21c-1,10.4-6.7,15.3-11,22c-12.5,19.3-22.1,39.6-35,58c-6.7,9.5-9.5,20.3-16,30
	c-23.7,35.7-45.7,74.1-69,110c-11.2,17.3-18,39.5-33,53c0,4.3,0,8.7,0,13c9.3,9.2,23.1,15.5,37,20c7.3,0.3,14.7,0.7,22,1
	c10.4,3,27.8,4.7,40,8c13.7,0.3,27.3,0.7,41,1c14.9,4.1,38.6-1.2,54,3c13.1,3.6,34.6,2,51,2c30.5,0,71-3.6,95,2
	c-0.2,40.7-2.9,86.5-10,122c0,7.3,0,14.7,0,22c-5.3,19.7-3.1,47.8-8,66c0,12.3,0,24.7,0,37c-2.8,14.7-4.2,31.9-7,46
	c0,13.3,0,26.7,0,40c-2.7,10.2-3.9,26.9-6,37c-3,14.8,1.4,33.8-2,46c-3,10.7,0.1,28-6,36c0,6.7,0,13.3,0,20c3.6,8,34,22,43,27
	c40.6,22.7,80.8,47.7,121,72c11.4,6.9,33.6,26.3,48,27c13.4-13.7,28.1-25.8,44-37c4.3-4.7,8.7-9.3,13-14c11.9-9.2,22.8-18.8,35-28
	c8.2-6.2,14.5-17,23-23c33.5-23.8,61-54.4,94-79c8.3-6.2,14.5-17,23-23c52.3-37.1,93.7-87.9,146-125c14.3-10.2,28.7-29.9,43-40
	c25.3-17.9,45.7-41,71-59c9.3-9.3,18.7-18.7,28-28c10-7.1,30.1-17.7,34-30c1-18.7,2-37.3,3-56C1478.3,535.9,1462.9,522,1446,510z
	 M763,651c5.7-27.8,4.5-65,10-93c2.7-13.9-2.6-38.3,3-49c0-8,0-16,0-24c-5-10.8-55.4,1.7-73-3c-20.8-5.5-50.4,2.5-74-2
	c-15.5-3-39.1-1.7-55-6c-12.7,0-25.3,0-38,0c-11.3-2.2-26.2-3.1-37-6c-5.7,0-11.3,0-17,0c-14.5-3.4-30.5-10.3-43-16
	c1.4-5.8,4.7-7,7-11c11-19.1,21.2-37.4,33-55c10.6-15.9,16.8-32.7,27-49c20.3-32.4,41.5-64.3,60-99c10.6-19.9,48.1-53.6,29-82
	c-19.1-4.6-40.6-11.2-59-16c-12.1-3.2-26-1-36-6c-3.7-0.6-2.9-0.6-5-2c0-0.7,0-1.3,0-2c21-0.1,40-0.9,55-5c15-0.3,30-0.7,45-1
	c10.5-2.8,27.1-4,37-6c10.7,0,21.3,0,32,0c7.4-2,22.1-3.1,29-5c15.8-4.3,34.1-1,50-4c8.6-1.7,20.3,2.2,26-2c1.7,0,3.3,0,5,0
	c2.4,3.4,6.5,5.8,10,8c-1.2,10-9.5,15.2-14,22c-13,19.4-26.2,38.1-39,57c-31.7,46.9-63.4,92.9-95,140c-15.6,23.2-36.1,43.2-45,73
	c-15.6,52,66.5,39,105,39c16.7-0.3,33.3-0.7,50-1c26.7,0,53.3,0,80,0c-7,34.2-16,69.4-27,98c-0.7,6-1.3,12-2,18
	c-2.5,7.1-7.3,16.4-10,24c-1,7-2,14-3,21c-3.1,9.5-7.3,22.6-11,32c-1.3,8-2.7,16-4,24c-2.3,6.9-6.9,13.9-7,23
	C761.7,684.3,761.9,656.5,763,651z M781,685c11.6-39,16.7-77.6,31-113c3.7-9.1,1.5-17,5-26c7.1-18.1,9.5-39.3,16-59
	c4.1-12.5,11-27.4,12-42c26.7,0.3,53.3,0.7,80,1c1,0.3,2,0.7,3,1c-8.2,59.9-5.7,128.1-17,185c0,14.3,0,28.7,0,43
	c-3.9,14.4-4.3,33-7,48c0.3,10.3,0.7,20.7,1,31c-6.1,22.5-8.3,48-8,76c-49.7,0-99.3,0-149,0C751.8,774.8,767.5,730.4,781,685z
	 M1473,602c-5.4,8.2-30.2,27.2-39,34c-27,20.9-50,46.9-78,67c-17.4,12.5-30.5,32.7-48,45c-66,46.6-118,110.3-184,157
	c-4,4.3-8,8.7-12,13c-8.9,6.9-17,14.1-26,21c-5,5.3-10,10.7-15,16c-30.6,21.7-58.6,47.9-85,74c-4.8,4.7-11.7,7.9-17,12
	c-8.8,6.8-16.1,17.2-25,24c-4.2,3.2-8.9,4.8-12,9c-12.8-1.4-43.7-25-55-32c-25.2-15.6-49.8-28.7-76-43c-20.7-11.3-40.7-27.1-61-39
	c-1.1-6.1-0.1-13.8,1-20c2.2-12.5-1.7-23.7,1-38c3.3-17.2,6.1-35.5,6-55c52.8,0,112.7,4.5,162-2c18.9,18.6,41.3,37.6,63,53
	c7.3,7,14.7,14,22,21c8,0.3,16,0.7,24,1c17.1-17.5,36.8-33.7,57-48c6.7-6.7,13.3-13.3,20-20c17.7-12.5,32.8-26.8,50-40
	c25.3-19.4,46.5-43.3,73-62c6.7-6.7,13.3-13.3,20-20c24.5-17.4,47.9-37.2,67-60c0.1-25.1-23.7-37.7-37-51
	c-38.8-38.8-80.6-74.8-120-113c1.5-7.9,26.6-27.6,33-34c13.2-13.2,26.8-25.8,40-39c4.3-5,8.7-10,13-15c13.9-10.9,31.6-26,41-41
	c13.6,5.5,31.3,31,44,40c37.1,26.3,66.1,63.3,102,91c9.9,7.7,17.3,18.7,27,26c8.6,6.5,23.8,13.7,28,24
	C1479.3,562.3,1475.4,598.3,1473,602z M712,538c-134.7-0.7-269.3-1.3-404-2c-4.7-0.3-9.3-0.7-14-1c2.4-9.6,12-18.3,17-26
	c10.1-15.6,17.8-33.4,30-47c-0.1-6-0.9-6.7-3-10c-2,0-4,0-6,0c-14.7,13.2-54.5,28.8-75,37c-8,3.2-17,10.5-25,14
	c-20.7,9.2-39.9,18.1-59,28c-21.7,11.2-45.4,19.3-65,32c-0.3,3.7-0.7,7.3-1,11c-0.4,26.5,23.4,28.6,39,39c34.6,23,71.4,45.4,106,68
	c12,7.8,25.1,12.3,35,22c5.1-0.4,5.1-1.1,8-3c-0.6-22.7-9.3-45.8-15-65c-2.9-9.7,0.2-18.3-5-25c0.3-1.7,0.7-3.3,1-5
	c122.3,0.3,244.7,0.7,367,1c1,0.3,2,0.7,3,1c1.2,7.7-1.2,24.8-3,35c0.3,8,0.7,16,1,24c-3.5,13.1-4.4,31.7-8,45c0,13.7,0,27.3,0,41
	c-5.8,28.4-4.3,71.9-12,100c0,9.7,0,19.3,0,29c-2.8,14.5-2.7,30.9-6,43c-1.4,5.2,1,12.1-1,16c-0.2,8.3,0.1,14.4,3,19
	c17.2,0.2,48.3,4.1,60-3c1.7-23.6,2.2-54.6,8-76c0-7.3,0-14.7,0-22c2.7-14,2.8-29.3,6-41c0-12.7,0-25.3,0-38c2.3-11.6,3.1-28.2,6-39
	c0.3-16.3,0.7-32.7,1-49c2.8-10.4,5.5-26.4,6-38c1.1-28.3,0.1-50.1,5-75C714.2,566.8,717.8,548.1,712,538z M696,602
	c-0.3,9.7-0.7,19.3-1,29c-1.7,6.3-3.4,19-5,25c0,14,0,28,0,42c-7,36.1-5.8,85.2-13,122c0,10.7,0,21.3,0,32c-1.6,6-3.5,18.5-5,24
	c0,5.3,0,10.7,0,16c-3.3,17.4-2.2,37-6,52c-7.9,1.7-26.2,5.7-32,1c-0.7,0-1.3,0-2,0c0.5-26.1,1.8-61.9,8-85c0-5,0-10,0-15
	c3.2-16.6,2.1-36.5,6-51c0-7.7,0-15.3,0-23c3.7-19.3,3.4-41,7-58c0-10.7,0-21.3,0-32c2.8-10.5,2.7-27.3,5-38c1.3-6.4-0.1-12.8,3-17
	c0-9.7,0-19.3,0-29c-2.2-4.6-16.2-5.5-24-4c-24,0.3-48,0.7-72,1c-99.7-0.3-199.3-0.7-299-1c-1.7,1.3-3.3,2.7-5,4
	c0.2,19.7,4.2,28.5,8,42c0,5,0,10,0,15c2.3,7.3,4.7,14.7,7,22c-40.5-22-80.1-48.7-118-74c-11.7-7.8-31.4-12.6-37-26
	c-0.7-0.7-0.1,0,0-1c3.6-8.5,41.3-22.8,52-27c26.4-10.4,53.5-27.5,79-40c18.4-9,40-13.5,55-26c0.3,0.7,0.7,1.3,1,2
	c-11.9,12.1-17.7,30.3-29,43c-0.7,17.9-0.7,15.6,9,23c99.3,0,198.7,0,298,0c26.7,0,53.3,0,80,0c12,0,27.6-1.5,35,3
	C697.7,565.7,699.6,588.7,696,602z M1135,646c-4.9-3.5-8.7-10.7-13-15c-30.7-30.9-60.4-63-91-94c-7.9-8-23.6-31.2-33-35
	c-1.3-0.8-2.5-0.9-5-1c-9,13.2-1.3,30-7,51c-3.5,12.8,0.8,31.8-3,46c-5.4,20.5,2.6,49.7-2,73c-2,10.4-4,20.8-4,34c0,19.4-7,55,1,69
	c3.7,0.3,7.3,0.7,11,1c11.8-12,30.5-16.6,45-26c39.4-25.5,82.5-47.1,123-72c0-4,0-8,0-12C1153.9,657.9,1141.4,650.5,1135,646z
	 M1062,712c-0.7,0-1.3,0-2,0c9.2-21.4,11.6-45.3,19-70c2.2-7.4,5.5-15.6,6-25c17,17,34,34,51,51C1115.2,686.8,1082.7,693,1062,712z"
	/>
</svg>
