<?xml version="1.0" encoding="utf-8"?>
<!-- Generator: Adobe Illustrator 24.3.0, SVG Export Plug-In . SVG Version: 6.00 Build 0)  -->
<svg version="1.1" id="Layer_1" xmlns="http://www.w3.org/2000/svg" xmlns:xlink="http://www.w3.org/1999/xlink" x="0px" y="0px"
	 viewBox="0 0 490 78.9" style="enable-background:new 0 0 490 78.9;" xml:space="preserve">
<style type="text/css">
	.st0{fill:#FFFFFF;}
</style>
<g>
	<path class="st0" d="M19.4,30.2c-1.9,0.1-2.7,0.2-4.6,0.4V29c-0.8,1-2.4,2-5.1,2c-5.1,0-7.6-4.4-7.6-9c0-4.5,2.3-9,7.6-9
		c2.9,0,4.2,1,5.2,2V8.1c0-1.2-0.6-1.6-2.8-1.6L11.9,6l5.2-1.8v22.9c0,1.5,0.7,2.3,2.4,2.3C19.4,29.5,19.4,30.2,19.4,30.2z
		 M14.9,16.3c-1-1.3-2.1-2.1-4.5-2.1c-4.2,0-5.9,3.9-5.9,7.8c0,4,1.7,7.7,5.9,7.7c2.9,0,3.8-1.3,4.5-2V16.3z"/>
	<path class="st0" d="M20.9,30.4v-0.9c1.8,0,2.6-0.6,2.6-2V17c0-1.6-0.8-1.9-2.4-1.9l-0.1-0.6l4.7-1.4v3.2C27,14.9,29.2,13,32,13
		c1.7,0,3.6,1.1,4.1,3.1c1.7-1.6,3.8-3.1,6.4-3.1s4.2,2,4.2,4v10.6c0,1.4,0.9,2,2.6,2v0.9h-7.1v-0.9c1.7,0,2.4-0.6,2.4-2v-10
		c0-1.5-1.1-3-3.2-3c-1.9,0-3.7,1.2-5.2,2.7v10.3c0,1.4,0.8,2,2.4,2v0.9h-7v-0.9c1.7,0,2.4-0.6,2.4-2v-10c0-1.5-1.2-2.9-3-2.9
		c-2.3,0-3.7,1.1-5.4,2.8v10.1c0,1.4,0.7,2,2.5,2v0.9H20.9z"/>
	<path class="st0" d="M51.5,25.2c1.6,2.2,3.9,4.8,7.9,4.8c2.4,0,4.2-1.4,4.2-3.7c0-1.7-1.3-2.6-5.1-3.7c-5.6-1.7-6.9-3.3-6.9-5.6
		c0-2.2,2.2-4,5.6-4c2,0,3.1,0.6,3.8,0.6c0.1,0,0.2,0,0.4-0.1l1.3-0.6l2.1,5.1l-0.6,0.3c-0.8-1.4-3.5-4.5-7-4.5
		c-2.2,0-3.8,1.1-3.8,3.1c0,1.8,1.8,2.5,5.1,3.5c4.9,1.5,6.9,3,6.9,5.8c0,3.2-3,4.7-6,4.7c-2,0-3.2-0.7-4.2-0.7
		c-0.2,0-0.4,0-0.5,0.1L53.2,31l-2.1-5.5L51.5,25.2z"/>
	<path class="st0" d="M67.8,14.4v-0.7c2.5-0.2,4-2.1,4.1-6.3h0.8v5.9h4.9v1h-4.9v13c0,1.3,0.9,2,2.3,2c1.1,0,2.3-0.8,3.2-1.9
		l0.4,0.3C77.4,30.1,75.9,31,74,31c-2.1,0-3.5-1.3-3.5-4.1V14.4H67.8z"/>
	<path class="st0" d="M80.8,30.4v-0.9c2.3,0,3-0.4,3-2.2V14.6h-3v-1h3v-2.4c0-3.3,2.3-7.1,5.8-7.1c1.3,0,2.4,0.5,2.4,1.8
		c0,0.6-0.7,1.3-1.6,1.3c-1.4,0-1.6-1-2.9-1c-0.9,0-1.5,1.2-1.5,4.1v3.4h4.1v1H86v12.7c0,1.8,0.7,2.2,3.7,2.2v0.9L80.8,30.4
		L80.8,30.4z"/>
	<path class="st0" d="M108,26.5c-1.6,2.3-3.6,4.5-7.2,4.5c-4.4,0-7.9-3.8-7.9-8.5c0-5.8,4.2-9.5,8.7-9.5c2.6,0,5.9,1.4,5.9,3.6
		c0,0.8-0.5,1.4-1.4,1.4c-1.3,0-1.4-1.1-1.8-2c-0.7-1.3-1.4-2.1-3.6-2.1c-2.8,0-5.4,2.8-5.4,7.9c0,4.6,2.2,7.7,6.2,7.7
		c2.2,0,3.8-0.7,6-3.4L108,26.5z"/>
	<path class="st0" d="M109.9,14.4v-0.7c2.5-0.2,4-2.1,4.1-6.3h0.8v5.9h4.9v1h-4.9v13c0,1.3,0.9,2,2.3,2c1.1,0,2.3-0.8,3.2-1.9
		l0.4,0.3c-1.2,2.2-2.7,3.1-4.6,3.1c-2.1,0-3.5-1.3-3.5-4.1V14.4H109.9z"/>
	<path class="st0" d="M122.2,30.4v-0.9c1.8,0,2.4-0.5,2.4-2.1V16.9c0-1.5-0.4-1.9-2.3-1.9l-0.1-0.6l4.5-1.4v3.2
		c1.6-1.3,3.6-3.1,6.6-3.1s4.6,1.9,4.6,5.1v9.2c0,1.6,0.7,2.1,2.4,2.1v0.9h-6.9v-0.9c1.7,0,2.4-0.5,2.4-2.1V18c0-2-0.7-3.4-3.1-3.4
		c-2.3,0-4.1,1.1-5.9,2.7v10.1c0,1.6,0.7,2.1,2.4,2.1v0.9L122.2,30.4L122.2,30.4z"/>
	<path class="st0" d="M160.5,2.1c-2.9,3.3-4.7,8.8-4.7,15.3c0,6.7,1.9,11.8,4.7,15.3v0.6c-4.4-3.5-6.2-9.1-6.2-15.9
		c0-6.7,1.9-12.4,6.2-16V2.1z"/>
	<path class="st0" d="M161.6,35.5v-0.9c1.2,0,1.6-0.5,1.6-2.1V16.6c0-1.1-0.4-1.6-1.5-1.6l-0.1-0.5l3.1-1.5v1.9
		c0.7-1.1,1.7-1.9,3.6-1.9c3.6,0,5.2,4.3,5.2,8.8c0,4.4-1.6,8.7-5.2,8.7c-1.9,0-2.9-0.9-3.6-1.9v4c0,1.5,0.6,2.1,1.7,2.1v0.9
		C166.4,35.5,161.6,35.5,161.6,35.5z M164.7,27.1c0.5,1,1.2,2.1,3.1,2.1c2.9,0,4.1-3.6,4.1-7.4s-1.2-7.5-4.1-7.5
		c-1.4,0-2.3,0.6-3.1,2V27.1z"/>
	<path class="st0" d="M175.3,30.4v-0.9c1,0,1.6-0.5,1.6-1.9v-11c0-1.3-0.2-1.7-1.5-1.7l-0.1-0.5l3.1-1.8v4.5
		c1.5-1.9,3.4-4.5,5.1-4.5c0.7,0,1.3,0.9,1.3,1.7s-0.6,1.7-1.3,1.7c-0.8,0-1-1-1.6-1c-0.7,0-2.3,1.9-3.5,3.4v9.2
		c0,1.4,0.4,1.9,1.7,1.9v0.9H175.3z"/>
	<path class="st0" d="M198,22c0,4.6-1.8,9-5.7,9c-3.9,0-5.7-4.3-5.7-9c0-4.6,1.8-9,5.7-9C196.2,13,198,17.4,198,22z M188.3,22
		c0,4.2,1.2,8.1,4.1,8.1c2.8,0,4-3.9,4-8.1s-1.2-8.2-4-8.2C189.6,13.9,188.3,17.9,188.3,22z"/>
	<path class="st0" d="M200.1,30.4v-0.9c1.2,0,1.6-0.5,1.6-2.1V16.9c0-1.5-0.3-1.9-1.6-1.9l-0.1-0.6l3.1-1.4v3.2
		c1.1-1.3,2.5-3.1,4.6-3.1c2,0,3.2,1.9,3.2,5.1v9.2c0,1.6,0.5,2.1,1.7,2.1v0.9h-4.8v-0.9c1.2,0,1.6-0.5,1.6-2.1V18
		c0-2-0.5-3.4-2.1-3.4c-1.6,0-2.9,1.1-4.1,2.7v10.1c0,1.6,0.5,2.1,1.7,2.1v0.9L200.1,30.4L200.1,30.4z"/>
	<path class="st0" d="M225.8,22c0,4.6-1.8,9-5.7,9c-3.9,0-5.7-4.3-5.7-9c0-4.6,1.8-9,5.7-9C224,13,225.8,17.4,225.8,22z M216,22
		c0,4.2,1.2,8.1,4.1,8.1c2.8,0,4-3.9,4-8.1s-1.2-8.2-4-8.2C217.3,13.9,216,17.9,216,22z"/>
	<path class="st0" d="M227.8,14.3L231,13v13.6c0,2.1,0.6,2.9,2.3,2.9c1.8,0,3-1.2,3.9-2.3V16.5c0-1.1-0.3-1.6-1.6-1.6l-0.1-0.6
		l3.2-1.3v14.2c0,1.5,0.5,2.3,1.6,2.3v0.8c-1.3,0.1-1.9,0.2-3.1,0.4v-2.4c-0.8,1-2.4,2.8-4.4,2.8c-2,0-3.3-1.6-3.3-4.4V16.6
		c0-1.2-0.4-1.7-1.5-1.7L227.8,14.3z"/>
	<path class="st0" d="M241.7,30.4v-0.9c1.2,0,1.6-0.5,1.6-2.1V16.9c0-1.5-0.3-1.9-1.6-1.9l-0.1-0.6l3.1-1.4v3.2
		c1.1-1.3,2.5-3.1,4.6-3.1c2,0,3.1,1.9,3.1,5.1v9.2c0,1.6,0.5,2.1,1.7,2.1v0.9h-4.8v-0.9c1.2,0,1.6-0.5,1.6-2.1V18
		c0-2-0.5-3.4-2.1-3.4c-1.6,0-2.9,1.1-4.1,2.7v10.1c0,1.6,0.5,2.1,1.7,2.1v0.9L241.7,30.4L241.7,30.4z"/>
	<path class="st0" d="M266.5,26.5c-1.1,2.3-2.5,4.5-5,4.5c-3,0-5.5-3.8-5.5-8.5c0-5.8,2.9-9.5,6-9.5c1.8,0,4,1.4,4,3.6
		c0,0.8-0.4,1.4-1,1.4c-0.9,0-0.9-1.1-1.3-2c-0.5-1.3-1-2.1-2.5-2.1c-2,0-3.7,2.8-3.7,7.9c0,4.6,1.5,7.7,4.3,7.7
		c1.5,0,2.6-0.7,4.1-3.4L266.5,26.5z"/>
	<path class="st0" d="M270.5,21.4c0,6.3,2.2,8.4,4.5,8.4c1.9,0,3.4-1.1,4.7-3.4l0.4,0.4c-1.1,2.3-2.6,4.2-5.4,4.2
		c-3.5,0-5.8-3.6-5.8-9c0-5,2.2-9,5.7-9c3.3,0,5.3,3.1,5.3,8.4C279.9,21.4,270.5,21.4,270.5,21.4z M278.3,20.4
		c-0.1-4.5-1.5-6.5-3.7-6.5c-2.1,0-3.9,2.8-4,6.5H278.3z"/>
	<path class="st0" d="M294.7,30.2c-1.3,0.1-1.9,0.2-3.2,0.4V29c-0.5,1-1.7,2-3.5,2c-3.5,0-5.2-4.4-5.2-9c0-4.5,1.6-9,5.2-9
		c2,0,2.9,1,3.6,2V8.1c0-1.2-0.4-1.6-2-1.6L289.5,6l3.6-1.8v22.9c0,1.5,0.5,2.3,1.6,2.3L294.7,30.2L294.7,30.2z M291.6,16.3
		c-0.7-1.3-1.5-2.1-3.1-2.1c-2.9,0-4.1,3.9-4.1,7.8c0,4,1.2,7.7,4.1,7.7c2,0,2.6-1.3,3.1-2V16.3z"/>
	<path class="st0" d="M317.2,30.2c-1.3,0.1-1.9,0.2-3.2,0.4V29c-0.5,1-1.7,2-3.5,2c-3.5,0-5.2-4.4-5.2-9c0-4.5,1.6-9,5.2-9
		c2,0,2.9,1,3.6,2V8.1c0-1.2-0.4-1.6-2-1.6L312,6l3.6-1.8v22.9c0,1.5,0.5,2.3,1.6,2.3L317.2,30.2L317.2,30.2z M314.1,16.3
		c-0.7-1.3-1.5-2.1-3.1-2.1c-2.9,0-4.1,3.9-4.1,7.8c0,4,1.2,7.7,4.1,7.7c2,0,2.6-1.3,3.1-2V16.3z"/>
	<path class="st0" d="M320.7,21.4c0,6.3,2.2,8.4,4.5,8.4c1.9,0,3.4-1.1,4.7-3.4l0.4,0.4c-1.1,2.3-2.6,4.2-5.4,4.2
		c-3.5,0-5.8-3.6-5.8-9c0-5,2.2-9,5.7-9c3.3,0,5.3,3.1,5.3,8.4C330.1,21.4,320.7,21.4,320.7,21.4z M328.5,20.4
		c-0.1-4.5-1.5-6.5-3.7-6.5c-2.1,0-3.9,2.8-4,6.5H328.5z"/>
	<path class="st0" d="M332.4,30.4v-0.9c1.2,0,1.8-0.6,1.8-2V17c0-1.6-0.5-1.9-1.7-1.9l-0.1-0.6l3.2-1.4v3.2c1-1.4,2.5-3.2,4.5-3.2
		c1.2,0,2.5,1.1,2.8,3.1c1.1-1.6,2.7-3.1,4.5-3.1s2.9,2,2.9,4v10.6c0,1.4,0.6,2,1.8,2v0.9h-4.9v-0.9c1.1,0,1.7-0.6,1.7-2v-10
		c0-1.5-0.8-3-2.2-3c-1.3,0-2.5,1.2-3.6,2.7v10.3c0,1.4,0.5,2,1.6,2v0.9h-4.8v-0.9c1.2,0,1.7-0.6,1.7-2v-10c0-1.5-0.8-2.9-2.1-2.9
		c-1.6,0-2.6,1.1-3.7,2.8v10.1c0,1.4,0.5,2,1.7,2v0.9H332.4z"/>
	<path class="st0" d="M353.2,13.2h4.7v0.9c-1,0-1.4,0.2-1.4,0.7c0,0.1,0,0.4,0.1,0.6l3.5,11l3.2-10.7c0.1-0.2,0.1-0.5,0.1-0.7
		c0-0.6-0.4-1-1.5-1v-0.9h4.3v0.9c-1.3,0-1.8,0.4-2.5,2.6l-4.5,15c-0.9,3.3-1.8,3.8-3.2,3.8c-1.3,0-1.7-0.9-1.7-1.8s0.4-1.8,1.2-1.8
		c1.2,0,0.7,2,1.8,2c0.5,0,1-1.2,1.5-3l0.5-1.6l-4.4-14c-0.3-0.7-0.5-1.1-1.8-1.1L353.2,13.2L353.2,13.2z"/>
	<path class="st0" d="M368,25.2c1.1,2.2,2.7,4.8,5.5,4.8c1.6,0,2.9-1.4,2.9-3.7c0-1.7-0.9-2.6-3.5-3.7c-3.9-1.7-4.8-3.3-4.8-5.6
		c0-2.2,1.5-4,3.9-4c1.4,0,2.2,0.6,2.7,0.6c0.1,0,0.2,0,0.2-0.1l0.9-0.6l1.4,5.1l-0.4,0.3c-0.5-1.4-2.4-4.5-4.8-4.5
		c-1.5,0-2.6,1.1-2.6,3.1c0,1.8,1.2,2.5,3.5,3.5c3.4,1.5,4.7,3,4.7,5.8c0,3.2-2.1,4.7-4.1,4.7c-1.4,0-2.2-0.7-2.9-0.7
		c-0.1,0-0.2,0-0.4,0.1l-1,0.6l-1.4-5.5L368,25.2z"/>
	<path class="st0" d="M379.6,14.4v-0.7c1.7-0.2,2.7-2.1,2.9-6.3h0.5v5.9h3.4v1H383v13c0,1.3,0.6,2,1.6,2c0.8,0,1.6-0.8,2.2-1.9
		l0.3,0.3c-0.8,2.2-1.9,3.1-3.2,3.1c-1.4,0-2.4-1.3-2.4-4.1V14.4H379.6z"/>
	<path class="st0" d="M388.7,30.4v-0.9c1.1,0,1.6-0.3,1.6-1.8v-11c0-0.9-0.3-1.6-1.7-1.6l-0.1-0.5l3.2-1.6v14.8
		c0,1.4,0.4,1.8,1.7,1.8v0.9H388.7z M392.4,5.7c0,0.9-0.5,1.8-1.3,1.8c-0.9,0-1.3-0.9-1.3-1.8s0.4-1.8,1.3-1.8
		C392,3.9,392.4,4.8,392.4,5.7z"/>
	<path class="st0" d="M395.6,30.4v-0.9c1.6,0,2.1-0.4,2.1-2.2V14.6h-2.1v-1h2.1v-2.4c0-3.3,1.6-7.1,4-7.1c0.9,0,1.6,0.5,1.6,1.8
		c0,0.6-0.5,1.3-1.1,1.3c-1,0-1.1-1-2-1c-0.6,0-1,1.2-1,4.1v3.4h2.9v1h-2.9v12.7c0,1.8,0.5,2.2,2.6,2.2v0.9L395.6,30.4L395.6,30.4z"
		/>
	<path class="st0" d="M404,30.4v-0.9c1.1,0,1.6-0.3,1.6-1.8v-11c0-0.9-0.3-1.6-1.7-1.6l-0.1-0.5l3.2-1.6v14.8c0,1.4,0.4,1.8,1.7,1.8
		v0.9H404z M407.7,5.7c0,0.9-0.5,1.8-1.3,1.8c-0.9,0-1.3-0.9-1.3-1.8s0.4-1.8,1.3-1.8C407.3,3.9,407.7,4.8,407.7,5.7z"/>
	<path class="st0" d="M421.4,26.5c-1.1,2.3-2.5,4.5-5,4.5c-3,0-5.5-3.8-5.5-8.5c0-5.8,2.9-9.5,6-9.5c1.8,0,4,1.4,4,3.6
		c0,0.8-0.4,1.4-1,1.4c-0.9,0-0.9-1.1-1.3-2c-0.5-1.3-1-2.1-2.5-2.1c-2,0-3.7,2.8-3.7,7.9c0,4.6,1.5,7.7,4.3,7.7
		c1.5,0,2.6-0.7,4.1-3.4L421.4,26.5z"/>
	<path class="st0" d="M434.8,29.2c-0.5,1-1,1.8-2,1.8c-1.1,0-1.3-1.2-1.3-2.5c-1,1.4-2.2,2.5-4.2,2.5c-2.4,0-3.5-1.8-3.5-4.2
		c0-3.2,2.6-5.6,7.8-6.8v-2.6c0-2.2-0.7-3.6-2.2-3.6c-1.9,0-2.6,0.8-3.1,2.6c-0.2,0.8-0.5,1.5-1.1,1.5c-0.6,0-1-0.6-1-1.5
		c0-1.8,2-3.4,5.3-3.4c2.2,0,3.6,1.7,3.6,4.8v10c0,1.1,0.1,1.9,0.5,1.9c0.3,0,0.7-0.1,1.1-0.8L434.8,29.2z M431.5,21
		c-3.3,0.5-6.1,2.5-6.1,5.8c0,1.6,0.8,2.8,2.3,2.8c1.8,0,2.7-0.6,3.8-2V21z"/>
	<path class="st0" d="M435.9,14.4v-0.7c1.7-0.2,2.7-2.1,2.9-6.3h0.5v5.9h3.4v1h-3.4v13c0,1.3,0.6,2,1.6,2c0.8,0,1.6-0.8,2.2-1.9
		l0.3,0.3c-0.8,2.2-1.9,3.1-3.2,3.1c-1.4,0-2.4-1.3-2.4-4.1V14.4H435.9z"/>
	<path class="st0" d="M445,30.4v-0.9c1.1,0,1.6-0.3,1.6-1.8v-11c0-0.9-0.3-1.6-1.7-1.6l-0.1-0.5l3.2-1.6v14.8c0,1.4,0.4,1.8,1.7,1.8
		v0.9H445z M448.7,5.7c0,0.9-0.5,1.8-1.3,1.8c-0.9,0-1.3-0.9-1.3-1.8s0.4-1.8,1.3-1.8C448.2,3.9,448.7,4.8,448.7,5.7z"/>
	<path class="st0" d="M463.1,22c0,4.6-1.8,9-5.7,9c-3.9,0-5.7-4.3-5.7-9c0-4.6,1.8-9,5.7-9C461.3,13,463.1,17.4,463.1,22z M453.4,22
		c0,4.2,1.2,8.1,4,8.1c2.8,0,4-3.9,4-8.1s-1.2-8.2-4-8.2C454.7,13.9,453.4,17.9,453.4,22z"/>
	<path class="st0" d="M465.2,30.4v-0.9c1.2,0,1.6-0.5,1.6-2.1V16.9c0-1.5-0.3-1.9-1.6-1.9l-0.1-0.6l3.1-1.4v3.2
		c1.1-1.3,2.5-3.1,4.5-3.1c2,0,3.2,1.9,3.2,5.1v9.2c0,1.6,0.5,2.1,1.7,2.1v0.9h-4.8v-0.9c1.2,0,1.6-0.5,1.6-2.1V18
		c0-2-0.5-3.4-2.1-3.4c-1.6,0-2.9,1.1-4.1,2.7v10.1c0,1.6,0.5,2.1,1.7,2.1v0.9L465.2,30.4L465.2,30.4z"/>
	<path class="st0" d="M478.8,32.8c2.9-3.5,4.7-8.7,4.7-15.3c0-6.5-1.9-12-4.7-15.3V1.5c4.4,3.6,6.2,9.3,6.2,16
		c0,6.8-1.9,12.4-6.2,15.9V32.8z"/>
</g>
<g>
	<path class="st0" d="M3.4,73.2v-0.9c1.8,0,2.6-0.6,2.6-2V59.8c0-1.6-0.8-1.9-2.4-1.9l-0.1-0.6l4.7-1.4V59c1.4-1.4,3.6-3.2,6.4-3.2
		c1.7,0,3.6,1.1,4.1,3.1c1.7-1.5,3.9-3.1,6.4-3.1c2.6,0,4.2,2,4.2,4v10.6c0,1.4,0.9,2,2.6,2v0.9h-7.1v-0.9c1.7,0,2.4-0.6,2.4-2v-10
		c0-1.5-1.1-3-3.2-3c-1.9,0-3.7,1.2-5.2,2.7v10.3c0,1.4,0.8,2,2.4,2v0.9h-6.9v-0.9c1.7,0,2.4-0.6,2.4-2v-10c0-1.5-1.2-2.9-3-2.9
		c-2.3,0-3.7,1.1-5.4,2.8v10.2c0,1.4,0.7,2,2.5,2v0.9H3.4z"/>
	<path class="st0" d="M50.7,72c-0.8,1-1.5,1.8-2.9,1.8c-1.6,0-1.9-1.2-1.9-2.4c-1.5,1.4-3.2,2.4-6.2,2.4c-3.5,0-5.1-1.8-5.1-4.2
		c0-3.2,3.7-5.7,11.2-6.8v-2.6c0-2.2-1-3.6-3.2-3.6c-2.7,0-3.8,0.8-4.5,2.6c-0.3,0.8-0.7,1.5-1.6,1.5c-0.9,0-1.4-0.6-1.4-1.5
		c0-1.8,3-3.4,7.7-3.4c3.1,0,5.2,1.7,5.2,4.8v10c0,1.1,0.1,1.9,0.7,1.9c0.5,0,1-0.1,1.7-0.8L50.7,72z M45.9,63.8
		c-4.8,0.5-8.9,2.5-8.9,5.8c0,1.6,1.2,2.8,3.4,2.8c2.6,0,4-0.6,5.5-2.1V63.8z"/>
	<path class="st0" d="M52.6,73.2v-0.9c1.7,0,2.4-0.3,2.4-1.8v-11c0-0.9-0.4-1.6-2.4-1.6l-0.1-0.5l4.7-1.6v14.8
		c0,1.4,0.5,1.8,2.4,1.8v0.9H52.6z M58,48.5c0,0.9-0.6,1.8-1.9,1.8c-1.3,0-1.9-0.9-1.9-1.8c0-0.9,0.6-1.8,1.9-1.8
		C57.3,46.7,58,47.6,58,48.5z"/>
	<path class="st0" d="M61.9,73.2v-0.9c1.8,0,2.4-0.7,2.4-2.2V50.8c0-1.1-0.5-1.7-2.4-1.7l-0.1-0.5l4.7-1.7v23.1
		c0,1.5,0.7,2.2,2.5,2.2v0.9H61.9z"/>
	<path class="st0" d="M82.2,65.8c0,0.2,0,0.5,0,0.8c0,0.6,0,1.2,0.7,1.2c1.8,0,2.9-4.1,2.9-7.7c0-4.7-1.9-11-6.3-11
		c-3.8,0-6.4,5.2-6.4,13.2c0,6,2.7,11.9,6.6,11.9c2.9,0,4.4-0.7,5.7-2.6l0.6,0.3c-1.2,2-3.2,3.3-6.3,3.3c-5.6,0-8.5-6.3-8.5-13
		c0-7.9,3.4-13.9,8.2-13.9c4.9,0,7.5,5.5,7.5,12c0,5.2-1.5,8.4-4.2,8.4c-1.4,0-2-1.4-2-2c-1,1.9-1.9,2.1-3,2.1
		c-0.7,0-2.1-0.4-2.1-4.5c0-4.2,1.7-9,4.8-9c1.1,0,1.2,0.7,1.5,1.5l0.3-1.3h1.5L82.2,65.8z M80.4,56.3c-1.2,0-3,2.1-3,7.9
		c0,2.6,0.5,3.4,1.3,3.4c1,0,2.1-1.9,2.8-8.9C81.6,57.3,81,56.3,80.4,56.3z"/>
	<path class="st0" d="M106.7,73c-1.9,0.1-2.7,0.2-4.6,0.4v-1.6c-0.8,1-2.4,2-5.1,2c-5.1,0-7.6-4.4-7.6-9c0-4.5,2.3-9,7.6-9
		c2.9,0,4.2,1,5.2,2v-6.8c0-1.2-0.6-1.6-2.8-1.6l-0.2-0.5l5.2-1.8V70c0,1.5,0.7,2.3,2.4,2.3V73z M102.2,59.1c-1-1.3-2.1-2.1-4.5-2.1
		c-4.2,0-5.9,3.9-5.9,7.8c0,4,1.7,7.7,5.9,7.7c2.9,0,3.8-1.3,4.5-2V59.1z"/>
	<path class="st0" d="M108.6,73.2v-0.9c1.8,0,2.6-0.6,2.6-2V59.8c0-1.6-0.8-1.9-2.4-1.9l-0.1-0.6l4.7-1.4V59
		c1.4-1.4,3.6-3.2,6.4-3.2c1.7,0,3.6,1.1,4.1,3.1c1.7-1.5,3.9-3.1,6.4-3.1c2.6,0,4.2,2,4.2,4v10.6c0,1.4,0.9,2,2.6,2v0.9h-7.1v-0.9
		c1.7,0,2.4-0.6,2.4-2v-10c0-1.5-1.1-3-3.2-3c-1.9,0-3.7,1.2-5.2,2.7v10.3c0,1.4,0.8,2,2.4,2v0.9h-6.9v-0.9c1.7,0,2.4-0.6,2.4-2v-10
		c0-1.5-1.2-2.9-3-2.9c-2.3,0-3.7,1.1-5.4,2.8v10.2c0,1.4,0.7,2,2.5,2v0.9H108.6z"/>
	<path class="st0" d="M140.6,68c1.6,2.2,3.9,4.8,7.9,4.8c2.4,0,4.2-1.4,4.2-3.7c0-1.7-1.3-2.6-5.1-3.7c-5.6-1.7-6.9-3.3-6.9-5.6
		c0-2.2,2.2-4,5.6-4c2,0,3.1,0.6,3.9,0.6c0.1,0,0.3,0,0.4-0.1l1.3-0.6l2.1,5.1l-0.6,0.3c-0.8-1.4-3.5-4.5-7-4.5
		c-2.2,0-3.8,1.1-3.8,3.1c0,1.8,1.8,2.5,5.1,3.5c4.9,1.5,6.9,3,6.9,5.8c0,3.2-3,4.7-6,4.7c-2.1,0-3.2-0.7-4.2-0.7
		c-0.2,0-0.4,0-0.5,0.1l-1.5,0.6l-2.1-5.5L140.6,68z"/>
	<path class="st0" d="M157.1,57.2v-0.7c2.5-0.2,4-2.1,4.1-6.3h0.8v5.9h4.9v1H162v13c0,1.3,0.9,2,2.3,2c1.1,0,2.3-0.8,3.2-1.9
		l0.4,0.3c-1.2,2.2-2.7,3.1-4.6,3.1c-2.1,0-3.5-1.3-3.5-4.1V57.2H157.1z"/>
	<path class="st0" d="M170.5,73.2v-0.9c2.3,0,3-0.4,3-2.2V57.4h-3v-1h3V54c0-3.3,2.3-7.1,5.8-7.1c1.3,0,2.4,0.5,2.4,1.8
		c0,0.6-0.7,1.3-1.6,1.3c-1.4,0-1.6-1-2.9-1c-0.9,0-1.5,1.2-1.5,4.1v3.4h4.1v1h-4.1v12.7c0,1.8,0.7,2.2,3.7,2.2v0.9H170.5z"/>
	<path class="st0" d="M198.2,69.3c-1.6,2.3-3.6,4.5-7.2,4.5c-4.4,0-7.9-3.8-7.9-8.5c0-5.8,4.2-9.5,8.7-9.5c2.6,0,5.9,1.4,5.9,3.6
		c0,0.8-0.5,1.4-1.4,1.4c-1.3,0-1.4-1.1-1.8-2c-0.7-1.3-1.4-2.1-3.6-2.1c-2.8,0-5.4,2.8-5.4,7.9c0,4.6,2.2,7.7,6.2,7.7
		c2.2,0,3.8-0.7,6-3.4L198.2,69.3z"/>
	<path class="st0" d="M200.4,57.2v-0.7c2.5-0.2,4-2.1,4.1-6.3h0.8v5.9h4.9v1h-4.9v13c0,1.3,0.9,2,2.3,2c1.1,0,2.3-0.8,3.2-1.9
		l0.4,0.3c-1.2,2.2-2.7,3.1-4.6,3.1c-2.1,0-3.5-1.3-3.5-4.1V57.2H200.4z"/>
	<path class="st0" d="M213.1,73.2v-0.9c1.8,0,2.4-0.5,2.4-2.1V59.7c0-1.5-0.4-1.9-2.3-1.9l-0.1-0.6l4.5-1.4v3.2
		c1.6-1.3,3.6-3.1,6.6-3.1s4.6,1.9,4.6,5.1v9.3c0,1.6,0.7,2.1,2.4,2.1v0.9h-6.9v-0.9c1.7,0,2.4-0.5,2.4-2.1v-9.4
		c0-2-0.7-3.4-3.1-3.4c-2.3,0-4.1,1.1-5.9,2.7v10.1c0,1.6,0.7,2.1,2.4,2.1v0.9H213.1z"/>
	<path class="st0" d="M238.7,71.6c0,1.1-0.6,2.1-2,2.1c-1.4,0-2-1-2-2.1c0-1,0.6-2,2-2C238.1,69.6,238.7,70.6,238.7,71.6z"/>
	<path class="st0" d="M242.4,73.2v-0.9c1.8,0,2.4-0.5,2.4-2.1V59.7c0-1.5-0.4-1.9-2.3-1.9l-0.1-0.6l4.5-1.4v3.2
		c1.6-1.3,3.6-3.1,6.6-3.1c3,0,4.6,1.9,4.6,5.1v9.3c0,1.6,0.7,2.1,2.4,2.1v0.9h-6.9v-0.9c1.7,0,2.4-0.5,2.4-2.1v-9.4
		c0-2-0.7-3.4-3.1-3.4c-2.3,0-4.1,1.1-5.9,2.7v10.1c0,1.6,0.7,2.1,2.4,2.1v0.9H242.4z"/>
	<path class="st0" d="M265.4,64.2c0,6.3,3.1,8.4,6.6,8.4c2.8,0,5-1.2,6.8-3.4l0.5,0.4c-1.6,2.3-3.7,4.2-7.8,4.2c-5,0-8.4-3.6-8.4-9
		c0-5,3.2-9,8.2-9c4.8,0,7.7,3.1,7.7,8.4H265.4z M276.6,63.2c-0.2-4.5-2.2-6.5-5.4-6.5c-3.1,0-5.7,2.8-5.9,6.5H276.6z"/>
	<path class="st0" d="M281.9,57.2v-0.7c2.5-0.2,4-2.1,4.1-6.3h0.8v5.9h4.9v1h-4.9v13c0,1.3,0.9,2,2.3,2c1.1,0,2.3-0.8,3.2-1.9
		l0.4,0.3c-1.2,2.2-2.7,3.1-4.6,3.1c-2.1,0-3.5-1.3-3.5-4.1V57.2H281.9z"/>
	<path class="st0" d="M296.1,77.7c1.8-1.6,2.4-2.4,2.4-3.6c0-0.5-0.2-0.9-0.7-0.9c-0.5,0-1.3-0.7-1.3-1.7c0-1,0.9-1.8,1.8-1.8
		c1.1,0,2.1,0.7,2.1,2.3c0,2.9-1.8,4.6-3.8,6.1L296.1,77.7z"/>
	<path class="st0" d="M330.9,65.8c0,0.2,0,0.5,0,0.8c0,0.6,0,1.2,0.7,1.2c1.8,0,2.9-4.1,2.9-7.7c0-4.7-1.9-11-6.3-11
		c-3.8,0-6.4,5.2-6.4,13.2c0,6,2.7,11.9,6.6,11.9c2.9,0,4.4-0.7,5.7-2.6l0.6,0.3c-1.2,2-3.2,3.3-6.3,3.3c-5.6,0-8.5-6.3-8.5-13
		c0-7.9,3.4-13.9,8.2-13.9c4.9,0,7.5,5.5,7.5,12c0,5.2-1.5,8.4-4.2,8.4c-1.4,0-2-1.4-2-2c-1,1.9-1.9,2.1-3,2.1
		c-0.7,0-2.1-0.4-2.1-4.5c0-4.2,1.7-9,4.8-9c1.1,0,1.2,0.7,1.5,1.5l0.3-1.3h1.5L330.9,65.8z M329.1,56.3c-1.2,0-3,2.1-3,7.9
		c0,2.6,0.5,3.4,1.3,3.4c1,0,2.1-1.9,2.8-8.9C330.3,57.3,329.8,56.3,329.1,56.3z"/>
	<path class="st0" d="M355.5,73c-1.9,0.1-2.7,0.2-4.6,0.4v-1.6c-0.8,1-2.4,2-5.1,2c-5.1,0-7.6-4.4-7.6-9c0-4.5,2.3-9,7.6-9
		c2.9,0,4.2,1,5.2,2v-6.8c0-1.2-0.6-1.6-2.8-1.6l-0.2-0.5l5.2-1.8V70c0,1.5,0.7,2.3,2.4,2.3V73z M351,59.1c-1-1.3-2.1-2.1-4.5-2.1
		c-4.2,0-5.9,3.9-5.9,7.8c0,4,1.7,7.7,5.9,7.7c2.9,0,3.8-1.3,4.5-2V59.1z"/>
	<path class="st0" d="M357.3,73.2v-0.9c1.8,0,2.6-0.6,2.6-2V59.8c0-1.6-0.8-1.9-2.4-1.9l-0.1-0.6l4.7-1.4V59
		c1.4-1.4,3.6-3.2,6.4-3.2c1.7,0,3.6,1.1,4.1,3.1c1.7-1.5,3.9-3.1,6.4-3.1s4.2,2,4.2,4v10.6c0,1.4,0.9,2,2.6,2v0.9h-7.1v-0.9
		c1.7,0,2.4-0.6,2.4-2v-10c0-1.5-1.1-3-3.2-3c-1.9,0-3.7,1.2-5.2,2.7v10.3c0,1.4,0.8,2,2.4,2v0.9H368v-0.9c1.7,0,2.4-0.6,2.4-2v-10
		c0-1.5-1.2-2.9-3-2.9c-2.3,0-3.7,1.1-5.4,2.8v10.2c0,1.4,0.7,2,2.5,2v0.9H357.3z"/>
	<path class="st0" d="M389.3,68c1.6,2.2,3.9,4.8,7.9,4.8c2.4,0,4.2-1.4,4.2-3.7c0-1.7-1.3-2.6-5.1-3.7c-5.6-1.7-6.9-3.3-6.9-5.6
		c0-2.2,2.2-4,5.6-4c2,0,3.1,0.6,3.9,0.6c0.1,0,0.3,0,0.4-0.1l1.3-0.6l2.1,5.1l-0.6,0.3c-0.8-1.4-3.5-4.5-7-4.5
		c-2.2,0-3.8,1.1-3.8,3.1c0,1.8,1.8,2.5,5.1,3.5c4.9,1.5,6.9,3,6.9,5.8c0,3.2-3,4.7-6,4.7c-2.1,0-3.2-0.7-4.2-0.7
		c-0.2,0-0.4,0-0.5,0.1l-1.5,0.6l-2.1-5.5L389.3,68z"/>
	<path class="st0" d="M405.9,57.2v-0.7c2.5-0.2,4-2.1,4.1-6.3h0.8v5.9h4.9v1h-4.9v13c0,1.3,0.9,2,2.3,2c1.1,0,2.3-0.8,3.2-1.9
		l0.4,0.3c-1.2,2.2-2.7,3.1-4.6,3.1c-2.1,0-3.5-1.3-3.5-4.1V57.2H405.9z"/>
	<path class="st0" d="M419.3,73.2v-0.9c2.3,0,3-0.4,3-2.2V57.4h-3v-1h3V54c0-3.3,1.3-7.1,4.8-7.1c1.3,0,3.4,0.5,3.4,1.8
		c0,0.6-0.7,1.3-1.6,1.3c-1.4,0-1.6-1-2.9-1c-0.9,0-1.5,1.2-1.5,4.1v3.4h4.1v1h-4.1v12.7c0,1.8,0.7,2.2,3.7,2.2v0.9H419.3z"/>
	<path class="st0" d="M446.9,69.3c-1.6,2.3-3.6,4.5-7.2,4.5c-4.4,0-7.9-3.8-7.9-8.5c0-5.8,4.2-9.5,8.7-9.5c2.6,0,5.9,1.4,5.9,3.6
		c0,0.8-0.5,1.4-1.4,1.4c-1.3,0-1.4-1.1-1.8-2c-0.7-1.3-1.4-2.1-3.6-2.1c-2.8,0-5.4,2.8-5.4,7.9c0,4.6,2.2,7.7,6.2,7.7
		c2.2,0,3.8-0.7,6-3.4L446.9,69.3z"/>
	<path class="st0" d="M449.1,57.2v-0.7c2.5-0.2,4-2.1,4.1-6.3h0.8v5.9h4.9v1H454v13c0,1.3,0.9,2,2.3,2c1.1,0,2.3-0.8,3.2-1.9
		l0.4,0.3c-1.2,2.2-2.7,3.1-4.6,3.1c-2.1,0-3.5-1.3-3.5-4.1V57.2H449.1z"/>
	<path class="st0" d="M461.8,73.2v-0.9c1.8,0,2.4-0.5,2.4-2.1V59.7c0-1.5-0.4-1.9-2.3-1.9l-0.1-0.6l4.5-1.4v3.2
		c1.6-1.3,3.6-3.1,6.6-3.1c3,0,4.6,1.9,4.6,5.1v9.3c0,1.6,0.7,2.1,2.4,2.1v0.9H473v-0.9c1.7,0,2.4-0.5,2.4-2.1v-9.4
		c0-2-0.7-3.4-3.1-3.4c-2.3,0-4.1,1.1-5.9,2.7v10.1c0,1.6,0.7,2.1,2.4,2.1v0.9H461.8z"/>
</g>
<path class="st0" d="M4.5-64.5"/>
</svg>
