<?xml version="1.0" encoding="utf-8"?>
<!-- Generator: Adobe Illustrator 27.0.1, SVG Export Plug-In . SVG Version: 6.00 Build 0)  -->
<svg version="1.1" id="Layer_1" xmlns="http://www.w3.org/2000/svg" xmlns:xlink="http://www.w3.org/1999/xlink" x="0px" y="0px"
	 viewBox="0 0 490 37" enable-background="new 0 0 490 37" xml:space="preserve">
<g>
	<path fill="#FFFFFF" d="M19.44,30.25c-1.91,0.11-2.74,0.18-4.61,0.36v-1.58c-0.79,0.97-2.41,1.98-5.11,1.98
		c-5.11,0-7.56-4.43-7.56-8.96c0-4.54,2.27-9.04,7.56-9.04c2.88,0,4.18,0.97,5.18,1.98V8.15c0-1.22-0.61-1.62-2.84-1.62l-0.18-0.5
		l5.18-1.76v22.93c0,1.55,0.72,2.3,2.38,2.3V30.25z M14.9,16.32c-0.97-1.33-2.12-2.09-4.46-2.09c-4.18,0-5.9,3.89-5.9,7.81
		c0,4,1.73,7.74,5.9,7.74c2.92,0,3.78-1.3,4.46-2.02V16.32z"/>
	<path fill="#FFFFFF" d="M20.88,30.43v-0.86c1.8,0,2.56-0.65,2.56-2.02V17.01c0-1.62-0.76-1.94-2.41-1.94l-0.14-0.61l4.72-1.44v3.24
		c1.4-1.37,3.56-3.24,6.44-3.24c1.73,0,3.56,1.08,4.1,3.13c1.66-1.55,3.85-3.13,6.44-3.13c2.59,0,4.18,2.02,4.18,3.96v10.58
		c0,1.37,0.9,2.02,2.56,2.02v0.86h-7.13v-0.86c1.66,0,2.41-0.65,2.41-2.02V17.55c0-1.48-1.08-2.99-3.24-2.99
		c-1.94,0-3.67,1.19-5.22,2.66v10.33c0,1.37,0.79,2.02,2.38,2.02v0.86h-6.95v-0.86c1.73,0,2.41-0.65,2.41-2.02V17.51
		c0-1.51-1.22-2.88-3.02-2.88c-2.3,0-3.74,1.08-5.36,2.77v10.15c0,1.37,0.68,2.02,2.48,2.02v0.86H20.88z"/>
	<path fill="#FFFFFF" d="M52.53,25.25c1.62,2.2,3.92,4.79,7.92,4.79c2.38,0,4.18-1.37,4.18-3.71c0-1.66-1.3-2.56-5.08-3.74
		c-5.62-1.73-6.91-3.28-6.91-5.62c0-2.2,2.16-3.96,5.62-3.96c1.98,0,3.13,0.65,3.85,0.65c0.14,0,0.25-0.04,0.36-0.07l1.33-0.61
		l2.05,5.15l-0.61,0.29c-0.79-1.44-3.49-4.5-6.98-4.5c-2.23,0-3.78,1.08-3.78,3.06c0,1.76,1.8,2.52,5.08,3.53
		c4.93,1.51,6.87,2.95,6.87,5.83c0,3.2-2.99,4.68-5.98,4.68c-2.05,0-3.24-0.72-4.25-0.72c-0.18,0-0.36,0-0.54,0.07l-1.48,0.61
		l-2.09-5.51L52.53,25.25z"/>
	<path fill="#FFFFFF" d="M68.76,14.45v-0.72c2.48-0.22,3.96-2.05,4.14-6.26h0.76v5.94h4.86v1.04h-4.86v12.99
		c0,1.33,0.86,2.02,2.34,2.02c1.12,0,2.3-0.79,3.2-1.87l0.43,0.32c-1.19,2.2-2.7,3.1-4.61,3.1c-2.05,0-3.53-1.3-3.53-4.07V14.45
		H68.76z"/>
	<path fill="#FFFFFF" d="M81.79,30.43v-0.9c2.34,0,3.02-0.4,3.02-2.2V14.63h-3.02v-0.97h3.02v-2.45c0-3.35,2.27-7.13,5.76-7.13
		c1.33,0,2.38,0.47,2.38,1.84c0,0.61-0.72,1.3-1.58,1.3c-1.4,0-1.62-1.04-2.92-1.04c-0.94,0-1.48,1.15-1.48,4.07v3.42h4.14v0.97
		h-4.14v12.71c0,1.8,0.72,2.2,3.74,2.2v0.9H81.79z"/>
	<path fill="#FFFFFF" d="M109.04,26.51c-1.62,2.34-3.6,4.5-7.2,4.5c-4.39,0-7.92-3.78-7.92-8.46c0-5.76,4.18-9.54,8.71-9.54
		c2.63,0,5.87,1.4,5.87,3.64c0,0.83-0.54,1.4-1.4,1.4c-1.3,0-1.37-1.08-1.84-1.98c-0.72-1.3-1.44-2.12-3.56-2.12
		c-2.84,0-5.4,2.84-5.4,7.88c0,4.57,2.16,7.74,6.19,7.74c2.16,0,3.82-0.72,6.01-3.38L109.04,26.51z"/>
	<path fill="#FFFFFF" d="M110.92,14.45v-0.72c2.48-0.22,3.96-2.05,4.14-6.26h0.76v5.94h4.86v1.04h-4.86v12.99
		c0,1.33,0.86,2.02,2.34,2.02c1.12,0,2.3-0.79,3.2-1.87l0.43,0.32c-1.19,2.2-2.7,3.1-4.61,3.1c-2.05,0-3.53-1.3-3.53-4.07V14.45
		H110.92z"/>
	<path fill="#FFFFFF" d="M123.23,30.43v-0.9c1.8,0,2.38-0.54,2.38-2.12V16.9c0-1.48-0.4-1.91-2.27-1.91l-0.11-0.58l4.54-1.4v3.17
		c1.58-1.33,3.64-3.13,6.59-3.13s4.57,1.91,4.57,5.11v9.25c0,1.58,0.68,2.12,2.41,2.12v0.9h-6.95v-0.9c1.73,0,2.38-0.54,2.38-2.12
		v-9.36c0-2.02-0.68-3.42-3.1-3.42c-2.34,0-4.14,1.08-5.9,2.66v10.11c0,1.58,0.72,2.12,2.41,2.12v0.9H123.23z"/>
	<path fill="#FFFFFF" d="M164.5,2.14c-2.86,3.35-4.72,8.82-4.72,15.33c0,6.66,1.86,11.81,4.72,15.33v0.58
		c-4.37-3.53-6.21-9.11-6.21-15.91c0-6.69,1.86-12.38,6.21-15.98V2.14z"/>
	<path fill="#FFFFFF" d="M165.57,35.51v-0.9c1.24,0,1.64-0.54,1.64-2.09V16.61c0-1.12-0.37-1.58-1.54-1.58l-0.1-0.54l3.13-1.48v1.91
		c0.72-1.08,1.71-1.91,3.58-1.91c3.6,0,5.19,4.28,5.19,8.75c0,4.43-1.59,8.67-5.19,8.67c-1.86,0-2.88-0.86-3.58-1.91v4
		c0,1.55,0.6,2.09,1.66,2.09v0.9H165.57z M168.7,27.12c0.52,1.01,1.22,2.09,3.06,2.09c2.88,0,4.05-3.6,4.05-7.45
		s-1.17-7.52-4.05-7.52c-1.42,0-2.31,0.58-3.06,2.02V27.12z"/>
	<path fill="#FFFFFF" d="M179.28,30.43v-0.9c0.99,0,1.64-0.47,1.64-1.87V16.61c0-1.26-0.25-1.66-1.52-1.66l-0.12-0.54l3.13-1.76
		v4.46c1.54-1.91,3.45-4.46,5.09-4.46c0.72,0,1.29,0.86,1.29,1.69c0,0.83-0.57,1.66-1.29,1.66c-0.82,0-0.99-0.97-1.57-0.97
		c-0.72,0-2.26,1.87-3.53,3.38v9.25c0,1.4,0.37,1.87,1.66,1.87v0.9H179.28z"/>
	<path fill="#FFFFFF" d="M202.04,22.05c0,4.64-1.79,8.96-5.66,8.96c-3.9,0-5.66-4.32-5.66-8.96c0-4.61,1.76-9.04,5.66-9.04
		C200.25,13.01,202.04,17.44,202.04,22.05z M192.32,22.05c0,4.18,1.24,8.1,4.05,8.1c2.78,0,4.02-3.92,4.02-8.1
		c0-4.18-1.24-8.17-4.02-8.17C193.57,13.87,192.32,17.87,192.32,22.05z"/>
	<path fill="#FFFFFF" d="M204.1,30.43v-0.9c1.24,0,1.64-0.54,1.64-2.12V16.9c0-1.48-0.27-1.91-1.56-1.91l-0.07-0.58l3.13-1.4v3.17
		c1.09-1.33,2.51-3.13,4.55-3.13c2.04,0,3.16,1.91,3.16,5.11v9.25c0,1.58,0.47,2.12,1.66,2.12v0.9h-4.79v-0.9
		c1.19,0,1.64-0.54,1.64-2.12v-9.36c0-2.02-0.47-3.42-2.14-3.42c-1.61,0-2.86,1.08-4.07,2.66v10.11c0,1.58,0.5,2.12,1.66,2.12v0.9
		H204.1z"/>
	<path fill="#FFFFFF" d="M229.76,22.05c0,4.64-1.79,8.96-5.66,8.96c-3.9,0-5.66-4.32-5.66-8.96c0-4.61,1.76-9.04,5.66-9.04
		C227.97,13.01,229.76,17.44,229.76,22.05z M220.04,22.05c0,4.18,1.24,8.1,4.05,8.1c2.78,0,4.02-3.92,4.02-8.1
		c0-4.18-1.24-8.17-4.02-8.17C221.29,13.87,220.04,17.87,220.04,22.05z"/>
	<path fill="#FFFFFF" d="M231.82,14.31l3.13-1.3v13.61c0,2.12,0.6,2.92,2.34,2.92c1.81,0,2.96-1.19,3.85-2.27v-10.8
		c0-1.12-0.32-1.58-1.56-1.58l-0.1-0.58l3.16-1.3v14.18c0,1.55,0.5,2.3,1.64,2.3v0.76c-1.32,0.11-1.89,0.18-3.13,0.36V28.2
		c-0.75,1.01-2.41,2.81-4.37,2.81c-2.04,0-3.3-1.58-3.3-4.39V16.57c0-1.22-0.35-1.69-1.54-1.69L231.82,14.31z"/>
	<path fill="#FFFFFF" d="M245.68,30.43v-0.9c1.24,0,1.64-0.54,1.64-2.12V16.9c0-1.48-0.27-1.91-1.56-1.91l-0.07-0.58l3.13-1.4v3.17
		c1.09-1.33,2.51-3.13,4.55-3.13c2.04,0,3.15,1.91,3.15,5.11v9.25c0,1.58,0.47,2.12,1.66,2.12v0.9h-4.79v-0.9
		c1.19,0,1.64-0.54,1.64-2.12v-9.36c0-2.02-0.47-3.42-2.14-3.42c-1.61,0-2.86,1.08-4.07,2.66v10.11c0,1.58,0.5,2.12,1.66,2.12v0.9
		H245.68z"/>
	<path fill="#FFFFFF" d="M270.52,26.51c-1.12,2.34-2.48,4.5-4.97,4.5c-3.03,0-5.47-3.78-5.47-8.46c0-5.76,2.88-9.54,6.01-9.54
		c1.81,0,4.05,1.4,4.05,3.64c0,0.83-0.37,1.4-0.97,1.4c-0.89,0-0.94-1.08-1.27-1.98c-0.5-1.3-0.99-2.12-2.46-2.12
		c-1.96,0-3.73,2.84-3.73,7.88c0,4.57,1.49,7.74,4.27,7.74c1.49,0,2.63-0.72,4.15-3.38L270.52,26.51z"/>
	<path fill="#FFFFFF" d="M274.49,21.4c0,6.26,2.16,8.35,4.55,8.35c1.94,0,3.43-1.15,4.67-3.42l0.35,0.43
		c-1.09,2.34-2.56,4.25-5.37,4.25c-3.45,0-5.79-3.6-5.79-9.04c0-5,2.24-8.96,5.66-8.96c3.28,0,5.32,3.06,5.32,8.39H274.49z
		 M282.27,20.39c-0.15-4.5-1.49-6.52-3.73-6.52c-2.11,0-3.9,2.77-4.05,6.52H282.27z"/>
	<path fill="#FFFFFF" d="M298.69,30.25c-1.32,0.11-1.89,0.18-3.18,0.36v-1.58c-0.55,0.97-1.66,1.98-3.53,1.98
		c-3.53,0-5.22-4.43-5.22-8.96c0-4.54,1.56-9.04,5.22-9.04c1.99,0,2.88,0.97,3.58,1.98V8.15c0-1.22-0.42-1.62-1.96-1.62l-0.12-0.5
		l3.58-1.76v22.93c0,1.55,0.5,2.3,1.64,2.3V30.25z M295.56,16.32c-0.67-1.33-1.47-2.09-3.08-2.09c-2.88,0-4.07,3.89-4.07,7.81
		c0,4,1.19,7.74,4.07,7.74c2.01,0,2.61-1.3,3.08-2.02V16.32z"/>
	<path fill="#FFFFFF" d="M320.2,30.25c-1.32,0.11-1.89,0.18-3.18,0.36v-1.58c-0.55,0.97-1.66,1.98-3.53,1.98
		c-3.53,0-5.22-4.43-5.22-8.96c0-4.54,1.56-9.04,5.22-9.04c1.99,0,2.88,0.97,3.58,1.98V8.15c0-1.22-0.42-1.62-1.96-1.62l-0.12-0.5
		l3.58-1.76v22.93c0,1.55,0.5,2.3,1.64,2.3V30.25z M317.07,16.32c-0.67-1.33-1.47-2.09-3.08-2.09c-2.88,0-4.07,3.89-4.07,7.81
		c0,4,1.19,7.74,4.07,7.74c2.01,0,2.61-1.3,3.08-2.02V16.32z"/>
	<path fill="#FFFFFF" d="M323.72,21.4c0,6.26,2.16,8.35,4.55,8.35c1.94,0,3.43-1.15,4.67-3.42l0.35,0.43
		c-1.09,2.34-2.56,4.25-5.37,4.25c-3.45,0-5.79-3.6-5.79-9.04c0-5,2.24-8.96,5.66-8.96c3.28,0,5.32,3.06,5.32,8.39H323.72z
		 M331.5,20.39c-0.15-4.5-1.49-6.52-3.73-6.52c-2.11,0-3.9,2.77-4.05,6.52H331.5z"/>
	<path fill="#FFFFFF" d="M335.42,30.43v-0.86c1.24,0,1.76-0.65,1.76-2.02V17.01c0-1.62-0.52-1.94-1.66-1.94l-0.1-0.61l3.25-1.44
		v3.24c0.97-1.37,2.46-3.24,4.45-3.24c1.19,0,2.46,1.08,2.83,3.13c1.14-1.55,2.66-3.13,4.45-3.13s2.88,2.02,2.88,3.96v10.58
		c0,1.37,0.62,2.02,1.76,2.02v0.86h-4.92v-0.86c1.14,0,1.66-0.65,1.66-2.02V17.55c0-1.48-0.75-2.99-2.24-2.99
		c-1.34,0-2.53,1.19-3.6,2.66v10.33c0,1.37,0.55,2.02,1.64,2.02v0.86h-4.79v-0.86c1.19,0,1.66-0.65,1.66-2.02V17.51
		c0-1.51-0.84-2.88-2.09-2.88c-1.59,0-2.58,1.08-3.7,2.77v10.15c0,1.37,0.47,2.02,1.71,2.02v0.86H335.42z"/>
	<path fill="#FFFFFF" d="M356.19,13.23h4.72v0.9c-1.04,0-1.39,0.18-1.39,0.72c0,0.14,0.02,0.36,0.1,0.61l3.53,11.05l3.16-10.69
		c0.07-0.25,0.1-0.5,0.1-0.72c0-0.65-0.4-0.97-1.49-0.97v-0.9h4.3v0.9c-1.27,0-1.79,0.36-2.46,2.56l-4.47,15.01
		c-0.89,3.28-1.79,3.82-3.23,3.82c-1.29,0-1.74-0.9-1.74-1.84c0-0.94,0.42-1.8,1.19-1.8c1.17,0,0.72,2.02,1.79,2.02
		c0.5,0,0.99-1.15,1.52-2.99l0.5-1.62l-4.35-14.04c-0.27-0.68-0.5-1.12-1.76-1.12V13.23z"/>
	<path fill="#FFFFFF" d="M371.04,25.25c1.12,2.2,2.71,4.79,5.46,4.79c1.64,0,2.88-1.37,2.88-3.71c0-1.66-0.89-2.56-3.5-3.74
		c-3.88-1.73-4.77-3.28-4.77-5.62c0-2.2,1.49-3.96,3.88-3.96c1.37,0,2.16,0.65,2.66,0.65c0.1,0,0.17-0.04,0.25-0.07l0.92-0.61
		l1.42,5.15l-0.42,0.29c-0.55-1.44-2.41-4.5-4.82-4.5c-1.54,0-2.61,1.08-2.61,3.06c0,1.76,1.24,2.52,3.5,3.53
		c3.4,1.51,4.74,2.95,4.74,5.83c0,3.2-2.06,4.68-4.12,4.68c-1.42,0-2.24-0.72-2.93-0.72c-0.12,0-0.25,0-0.37,0.07l-1.02,0.61
		l-1.44-5.51L371.04,25.25z"/>
	<path fill="#FFFFFF" d="M382.62,14.45v-0.72c1.71-0.22,2.73-2.05,2.86-6.26H386v5.94h3.35v1.04H386v12.99
		c0,1.33,0.6,2.02,1.61,2.02c0.77,0,1.59-0.79,2.21-1.87l0.3,0.32c-0.82,2.2-1.86,3.1-3.18,3.1c-1.42,0-2.43-1.3-2.43-4.07V14.45
		H382.62z"/>
	<path fill="#FFFFFF" d="M391.71,30.43v-0.9c1.14,0,1.64-0.32,1.64-1.76V16.79c0-0.94-0.27-1.62-1.66-1.62l-0.07-0.54l3.23-1.62
		v14.76c0,1.44,0.37,1.76,1.66,1.76v0.9H391.71z M395.44,5.74c0,0.9-0.45,1.8-1.32,1.8c-0.89,0-1.29-0.9-1.29-1.8s0.4-1.8,1.29-1.8
		C394.99,3.94,395.44,4.84,395.44,5.74z"/>
	<path fill="#FFFFFF" d="M398.59,30.43v-0.9c1.61,0,2.09-0.4,2.09-2.2V14.63h-2.09v-0.97h2.09v-2.45c0-3.35,1.56-7.13,3.97-7.13
		c0.92,0,1.64,0.47,1.64,1.84c0,0.61-0.5,1.3-1.09,1.3c-0.97,0-1.12-1.04-2.01-1.04c-0.65,0-1.02,1.15-1.02,4.07v3.42h2.86v0.97
		h-2.86v12.71c0,1.8,0.5,2.2,2.58,2.2v0.9H398.59z"/>
	<path fill="#FFFFFF" d="M407.01,30.43v-0.9c1.14,0,1.64-0.32,1.64-1.76V16.79c0-0.94-0.27-1.62-1.66-1.62l-0.07-0.54l3.23-1.62
		v14.76c0,1.44,0.37,1.76,1.66,1.76v0.9H407.01z M410.74,5.74c0,0.9-0.45,1.8-1.32,1.8c-0.89,0-1.29-0.9-1.29-1.8s0.4-1.8,1.29-1.8
		C410.29,3.94,410.74,4.84,410.74,5.74z"/>
	<path fill="#FFFFFF" d="M424.37,26.51c-1.12,2.34-2.48,4.5-4.97,4.5c-3.03,0-5.47-3.78-5.47-8.46c0-5.76,2.88-9.54,6.01-9.54
		c1.81,0,4.05,1.4,4.05,3.64c0,0.83-0.37,1.4-0.97,1.4c-0.89,0-0.94-1.08-1.27-1.98c-0.5-1.3-0.99-2.12-2.46-2.12
		c-1.96,0-3.73,2.84-3.73,7.88c0,4.57,1.49,7.74,4.27,7.74c1.49,0,2.63-0.72,4.15-3.38L424.37,26.51z"/>
	<path fill="#FFFFFF" d="M437.84,29.24c-0.52,1.01-1.02,1.76-1.99,1.76c-1.12,0-1.34-1.19-1.34-2.45c-1.04,1.4-2.24,2.45-4.25,2.45
		c-2.41,0-3.5-1.84-3.5-4.18c0-3.2,2.58-5.65,7.75-6.8v-2.56c0-2.16-0.72-3.6-2.21-3.6c-1.89,0-2.63,0.76-3.08,2.59
		c-0.2,0.79-0.47,1.51-1.09,1.51c-0.65,0-0.99-0.58-0.99-1.55c0-1.8,2.04-3.42,5.29-3.42c2.16,0,3.58,1.66,3.58,4.79v9.97
		c0,1.08,0.07,1.94,0.47,1.94c0.32,0,0.67-0.14,1.14-0.83L437.84,29.24z M434.51,21c-3.33,0.54-6.11,2.52-6.11,5.76
		c0,1.62,0.84,2.81,2.33,2.81c1.81,0,2.73-0.61,3.78-2.05V21z"/>
	<path fill="#FFFFFF" d="M438.85,14.45v-0.72c1.71-0.22,2.73-2.05,2.86-6.26h0.52v5.94h3.35v1.04h-3.35v12.99
		c0,1.33,0.6,2.02,1.61,2.02c0.77,0,1.59-0.79,2.21-1.87l0.3,0.32c-0.82,2.2-1.86,3.1-3.18,3.1c-1.42,0-2.43-1.3-2.43-4.07V14.45
		H438.85z"/>
	<path fill="#FFFFFF" d="M447.95,30.43v-0.9c1.14,0,1.64-0.32,1.64-1.76V16.79c0-0.94-0.27-1.62-1.66-1.62l-0.07-0.54l3.23-1.62
		v14.76c0,1.44,0.37,1.76,1.66,1.76v0.9H447.95z M451.67,5.74c0,0.9-0.45,1.8-1.32,1.8c-0.89,0-1.29-0.9-1.29-1.8s0.4-1.8,1.29-1.8
		C451.23,3.94,451.67,4.84,451.67,5.74z"/>
	<path fill="#FFFFFF" d="M466.13,22.05c0,4.64-1.79,8.96-5.66,8.96c-3.9,0-5.66-4.32-5.66-8.96c0-4.61,1.76-9.04,5.66-9.04
		C464.34,13.01,466.13,17.44,466.13,22.05z M456.42,22.05c0,4.18,1.24,8.1,4.05,8.1c2.78,0,4.02-3.92,4.02-8.1
		c0-4.18-1.24-8.17-4.02-8.17C457.66,13.87,456.42,17.87,456.42,22.05z"/>
	<path fill="#FFFFFF" d="M468.19,30.43v-0.9c1.24,0,1.64-0.54,1.64-2.12V16.9c0-1.48-0.27-1.91-1.56-1.91l-0.07-0.58l3.13-1.4v3.17
		c1.09-1.33,2.51-3.13,4.55-3.13c2.04,0,3.16,1.91,3.16,5.11v9.25c0,1.58,0.47,2.12,1.66,2.12v0.9h-4.79v-0.9
		c1.19,0,1.64-0.54,1.64-2.12v-9.36c0-2.02-0.47-3.42-2.14-3.42c-1.61,0-2.86,1.08-4.07,2.66v10.11c0,1.58,0.5,2.12,1.66,2.12v0.9
		H468.19z"/>
	<path fill="#FFFFFF" d="M481.83,32.81c2.86-3.53,4.72-8.67,4.72-15.33c0-6.52-1.86-11.99-4.72-15.33V1.49
		c4.35,3.6,6.21,9.29,6.21,15.98c0,6.8-1.86,12.38-6.21,15.91V32.81z"/>
</g>
</svg>
