<?xml version="1.0" standalone="no"?>
<!DOCTYPE svg PUBLIC "-//W3C//DTD SVG 20010904//EN"
 "http://www.w3.org/TR/2001/REC-SVG-20010904/DTD/svg10.dtd">
<svg version="1.0" xmlns="http://www.w3.org/2000/svg"
 width="260.000000pt" height="260.000000pt" viewBox="0 0 260.000000 260.000000"
 preserveAspectRatio="xMidYMid meet">
<metadata>
Created by potrace 1.14, written by Peter Selinger 2001-2017
</metadata>
<g transform="translate(0.000000,260.000000) scale(0.100000,-0.100000)"
fill="#000000" stroke="none">
<path d="M0 1300 l0 -1300 1300 0 1300 0 0 1300 0 1300 -1300 0 -1300 0 0
-1300z m1657 1278 c-8 -24 13 -49 35 -42 14 4 18 2 14 -5 -4 -6 -1 -11 7 -11
8 0 18 -7 21 -16 8 -20 -82 -63 -94 -44 -5 8 -18 10 -38 5 -42 -9 -49 11 -12
30 19 10 30 22 27 29 -3 8 -1 18 5 24 8 8 6 13 -8 19 -16 6 -15 8 11 14 17 4
32 7 33 8 2 0 2 -5 -1 -11z m-97 -7 c0 -5 -9 -11 -20 -14 -20 -5 -26 3 -13 16
9 10 33 8 33 -2z m240 -6 c0 -8 -15 -22 -32 -31 l-33 -16 29 31 c34 35 36 36
36 16z m-506 -17 c12 -6 31 -20 43 -31 19 -17 27 -19 48 -9 34 15 40 15 26 -1
-6 -8 -7 -17 -1 -23 16 -16 -3 -31 -47 -39 -29 -4 -43 -3 -43 4 0 6 -7 11 -15
11 -18 0 -19 12 -3 28 9 9 9 12 0 12 -7 0 -12 9 -12 20 0 31 -22 24 -61 -21
-28 -33 -40 -40 -57 -35 -11 4 -24 16 -27 26 -3 10 -15 22 -26 25 -24 8 -13
28 12 22 11 -3 19 -1 19 3 0 18 114 24 144 8z m96 -2 c0 -2 -7 -7 -16 -10 -8
-3 -12 -2 -9 4 6 10 25 14 25 6z m-340 -68 c0 -10 -9 -22 -20 -28 -24 -13 -27
-32 -4 -28 10 2 19 -3 21 -9 5 -15 -33 -18 -42 -4 -3 5 -20 13 -37 16 -29 7
-30 9 -14 20 11 8 13 15 7 20 -17 10 -13 38 4 31 8 -3 15 -1 15 4 0 12 54 17
62 5 4 -5 8 -18 8 -27z m876 20 c-3 -7 -7 -25 -10 -40 -7 -30 -40 -49 -131
-74 -60 -17 -68 -17 -60 -4 3 6 15 10 25 10 11 0 27 12 36 26 24 35 3 48 -44
28 -41 -17 -52 -18 -52 -4 0 6 16 18 35 27 27 13 40 14 59 5 17 -8 27 -7 35 1
27 27 113 47 107 25z m-1171 -41 c22 -5 47 -16 56 -23 8 -8 23 -14 32 -14 26
0 20 -19 -7 -26 -18 -4 -35 2 -59 20 -19 14 -39 26 -45 26 -7 0 -12 4 -12 9 0
5 -7 8 -16 7 -9 0 -19 5 -22 13 -3 11 0 12 14 6 11 -4 37 -12 59 -18z m865
-44 c0 -38 -11 -52 -48 -62 -25 -8 -32 -7 -32 5 0 8 5 14 10 14 23 0 8 29 -17
32 -25 3 -22 6 22 20 66 22 65 22 65 -9z m-450 7 c0 -5 26 -10 58 -10 41 0 53
-3 42 -10 -8 -6 -28 -10 -45 -9 -54 2 -60 0 -61 -27 -2 -32 -7 -36 -28 -28 -9
4 -15 13 -12 20 3 8 1 14 -5 14 -6 0 -7 5 -4 11 4 6 10 8 13 5 9 -10 31 15 25
30 -3 8 0 14 6 14 6 0 11 -4 11 -10z m242 -1 c21 -11 21 -12 3 -25 -22 -16
-15 -26 21 -30 25 -2 64 -29 64 -44 0 -4 -13 -7 -30 -8 -16 0 -30 4 -30 9 0 5
-5 9 -12 9 -6 0 -26 11 -44 25 -18 14 -46 25 -63 25 -21 0 -31 5 -31 15 0 8 9
15 19 15 11 0 23 5 26 10 8 13 51 13 77 -1z m-474 -28 c3 -8 -1 -12 -9 -9 -7
2 -15 10 -17 17 -3 8 1 12 9 9 7 -2 15 -10 17 -17z m-35 -7 c10 -10 -12 -44
-29 -44 -9 0 -23 7 -31 16 -14 13 -14 17 -2 25 16 10 53 12 62 3z m139 -7 c7
-7 27 -18 43 -26 17 -7 25 -16 18 -18 -7 -2 -9 -11 -6 -20 5 -13 -1 -14 -38
-8 -54 9 -65 18 -45 38 15 14 14 16 -4 22 -11 3 -20 11 -20 16 0 13 36 11 52
-4z m-272 -23 c28 -14 50 -30 50 -34 0 -10 -121 17 -134 30 -6 6 -19 11 -30
11 -12 1 -3 5 19 9 22 4 41 8 43 9 1 0 25 -11 52 -25z m552 6 c46 0 30 -32
-22 -45 -32 -8 -59 27 -39 51 8 10 15 12 23 4 5 -5 23 -10 38 -10z m651 -400
c12 -46 4 -62 -26 -51 -29 11 -330 14 -436 5 l-73 -7 12 24 c18 33 29 39 75
39 22 1 61 6 86 13 27 7 108 12 199 11 l154 -1 9 -33z m-1213 -35 c12 -23 18
-25 57 -19 39 6 43 4 43 -15 0 -16 -6 -21 -24 -21 -13 0 -27 6 -29 13 -4 8 -8
9 -14 1 -4 -6 -57 -16 -117 -22 -60 -7 -115 -17 -122 -23 -12 -9 -14 -2 -14
40 l0 51 43 1 c54 1 141 10 146 15 9 9 18 3 31 -21z m1125 -209 c76 -45 123
-141 108 -223 -8 -47 -29 -20 -27 34 2 86 -76 181 -172 209 l-49 14 47 -4 c27
-2 66 -15 93 -30z m-95 -16 c159 -30 215 -217 95 -315 -44 -37 -119 -59 -163
-49 -38 9 -102 47 -131 78 -24 26 -43 96 -31 116 5 8 17 7 45 -4 20 -9 46 -16
56 -16 19 0 21 4 23 65 0 19 4 35 7 35 11 0 17 50 8 56 -16 9 -10 24 14 34 12
5 23 9 23 9 1 1 25 -4 54 -9z m-1031 -108 c21 -71 22 -86 11 -107 -10 -18 -10
-28 -2 -38 6 -7 9 -30 7 -50 -3 -23 -1 -37 6 -37 6 0 9 10 8 23 -5 38 9 50 34
26 18 -16 19 -21 7 -29 -8 -5 -18 -6 -22 -4 -5 3 -7 0 -6 -7 2 -6 -12 -21 -30
-32 -48 -28 -127 -28 -177 2 -21 12 -33 16 -26 8 17 -22 75 -47 106 -47 17 0
25 -5 23 -12 -7 -22 -53 -20 -102 3 -79 37 -127 112 -125 198 0 46 17 106 18
69 1 -10 5 -18 10 -18 6 0 8 -17 5 -37 -3 -27 1 -20 14 24 22 73 32 87 92 125
34 22 55 28 84 26 l40 -3 25 -83z m-479 64 c0 -2 -8 -10 -17 -17 -16 -13 -17
-12 -4 4 13 16 21 21 21 13z m223 -61 c-3 -9 -8 -14 -10 -11 -3 3 -2 9 2 15 9
16 15 13 8 -4z m726 -24 c6 -10 7 -21 4 -25 -3 -3 1 -6 10 -6 10 0 14 -5 11
-15 -4 -10 0 -15 10 -15 9 0 19 -7 23 -16 3 -9 17 -27 29 -40 13 -12 24 -27
24 -33 0 -5 8 -12 18 -15 12 -4 23 -33 41 -108 13 -57 27 -116 32 -133 12 -41
3 179 -10 236 -5 24 -11 70 -13 103 -3 52 0 60 20 74 23 15 23 15 15 -14 -23
-89 11 -172 93 -223 23 -14 49 -30 58 -36 12 -8 21 -53 37 -185 11 -96 23
-177 25 -179 2 -2 4 73 4 167 l0 171 53 -6 c28 -3 54 -7 55 -9 8 -6 1 -259 -7
-267 -10 -10 -3 -88 9 -102 14 -17 -15 -70 -58 -103 l-40 -32 -7 59 c-7 58 -7
59 -56 86 -40 21 -60 26 -100 23 -40 -2 -49 0 -49 13 0 24 -108 78 -188 94
-64 14 -72 13 -122 -5 -66 -24 -125 -70 -125 -98 0 -13 -19 -35 -50 -58 -28
-21 -52 -39 -55 -41 -3 -3 3 -9 13 -15 18 -10 18 -10 0 -23 -11 -8 -37 -15
-59 -17 -36 -3 -39 -1 -42 25 -3 20 1 27 15 28 13 0 12 3 -7 11 -16 6 -74 8
-156 4 -130 -6 -130 -6 -154 19 -13 14 -30 23 -37 21 -10 -4 -13 7 -13 42 0
26 -2 136 -5 245 -3 129 -2 197 5 197 5 0 10 -6 10 -12 0 -26 48 -72 86 -83
l39 -11 5 -191 c5 -190 12 -225 40 -208 8 5 9 10 1 18 -12 12 -15 190 -5 298
l7 66 47 17 c31 11 60 15 82 11 33 -6 38 -3 86 53 29 33 52 66 52 74 0 8 4 18
9 24 6 5 13 31 18 58 9 56 31 76 25 22 -2 -19 3 -59 12 -89 10 -35 16 -92 15
-163 0 -60 4 -120 9 -134 8 -21 10 -16 17 35 4 33 9 63 11 67 3 4 7 45 10 91
4 76 8 91 47 159 45 79 62 101 87 111 24 9 29 8 39 -12z m701 -351 c5 0 24
-21 42 -47 17 -27 38 -54 45 -61 19 -20 53 -100 60 -145 6 -39 6 -40 -21 -33
-21 5 -35 0 -64 -24 -28 -23 -46 -30 -79 -30 -24 0 -43 5 -43 10 0 6 16 10 36
10 36 0 36 1 30 33 -8 37 -46 334 -45 345 0 4 7 -8 15 -25 8 -18 18 -33 24
-33z m-1234 -627 c1 -39 7 -84 17 -105 16 -39 88 -95 106 -83 20 11 102 -6
108 -24 3 -9 15 -26 26 -38 11 -13 16 -23 11 -23 -14 0 -30 14 -36 31 -5 14
-25 17 -110 19 -57 2 -115 3 -130 3 -19 0 -29 5 -29 16 -4 41 3 151 12 196 20
97 25 98 25 8z"/>
<path d="M1675 2510 c-3 -5 -15 -10 -26 -10 -10 0 -19 -4 -19 -10 0 -18 56 -6
57 13 2 19 -3 22 -12 7z"/>
<path d="M1170 2530 c-9 -6 -10 -10 -3 -10 6 0 15 5 18 10 8 12 4 12 -15 0z"/>
</g>
</svg>
